{
	"asset":{
		"version":"2.0",
		"generator":"Houdini GLTF 2.0 Exporter"
	},
	"accessors":[
		{
			"bufferView":0,
			"componentType":5123,
			"count":20295,
			"type":"SCALAR",
			"min":[0
			],
			"max":[5229
			]
		},
		{
			"bufferView":1,
			"componentType":5126,
			"count":5230,
			"type":"VEC3",
			"min":[-1.59345114,-2.05314851,-2.25311637
			],
			"max":[1.07305765,5.86291981,1.13556361
			]
		},
		{
			"bufferView":2,
			"componentType":5126,
			"count":5230,
			"type":"VEC3",
			"min":[1,1,1
			],
			"max":[1,1,1
			]
		},
		{
			"bufferView":3,
			"componentType":5126,
			"count":5230,
			"type":"VEC3",
			"min":[-1,-1,-1
			],
			"max":[1,1,1
			]
		},
		{
			"bufferView":4,
			"componentType":5123,
			"count":2148,
			"type":"SCALAR",
			"min":[0
			],
			"max":[544
			]
		},
		{
			"bufferView":5,
			"componentType":5126,
			"count":545,
			"type":"VEC3",
			"min":[-1.59394908,2.35945678,-3.90784359
			],
			"max":[-0.184372321,3.76901078,-1.77522659
			]
		},
		{
			"bufferView":6,
			"componentType":5126,
			"count":545,
			"type":"VEC3",
			"min":[1,1,1
			],
			"max":[1,1,1
			]
		},
		{
			"bufferView":7,
			"componentType":5126,
			"count":545,
			"type":"VEC3",
			"min":[-1,-0.999975383,-1
			],
			"max":[0.999973774,0.999760628,0.765211463
			]
		},
		{
			"bufferView":8,
			"componentType":5123,
			"count":20412,
			"type":"SCALAR",
			"min":[0
			],
			"max":[4964
			]
		},
		{
			"bufferView":9,
			"componentType":5126,
			"count":4965,
			"type":"VEC3",
			"min":[-2.49549627,-3.62912035,-1.77522659
			],
			"max":[0.96552974,5.58816385,1.9048655
			]
		},
		{
			"bufferView":10,
			"componentType":5126,
			"count":4965,
			"type":"VEC3",
			"min":[1,1,1
			],
			"max":[1,1,1
			]
		},
		{
			"bufferView":11,
			"componentType":5126,
			"count":4965,
			"type":"VEC3",
			"min":[-1,-1,-1
			],
			"max":[1,1,1
			]
		},
		{
			"bufferView":12,
			"componentType":5125,
			"count":282948,
			"type":"SCALAR",
			"min":[0
			],
			"max":[46993
			]
		},
		{
			"bufferView":13,
			"componentType":5126,
			"count":46994,
			"type":"VEC3",
			"min":[-7.5,-5.86291981,-4.61466599
			],
			"max":[7.5,3.88506675,4.61466599
			]
		},
		{
			"bufferView":14,
			"componentType":5126,
			"count":46994,
			"type":"VEC3",
			"min":[0,0.00581789017,0
			],
			"max":[0.999709129,1,1
			]
		},
		{
			"bufferView":15,
			"componentType":5126,
			"count":46994,
			"type":"VEC3",
			"min":[-0.999847412,-0.999988496,-0.999998927
			],
			"max":[0.999890625,0.999953687,0.999976814
			]
		},
		{
			"bufferView":16,
			"componentType":5123,
			"count":6684,
			"type":"SCALAR",
			"min":[0
			],
			"max":[2343
			]
		},
		{
			"bufferView":17,
			"componentType":5126,
			"count":2344,
			"type":"VEC3",
			"min":[-0.647339404,-3.16419363,-2.56491446
			],
			"max":[0.66685313,1.64164448,2.23983741
			]
		},
		{
			"bufferView":18,
			"componentType":5126,
			"count":2344,
			"type":"VEC3",
			"min":[1,1,1
			],
			"max":[1,1,1
			]
		},
		{
			"bufferView":19,
			"componentType":5126,
			"count":2344,
			"type":"VEC3",
			"min":[-1,-1,-1
			],
			"max":[1,1,1
			]
		}
	],
	"buffers":[
		{
			"uri":"butterflyValve_data.bin",
			"byteLength":3393680,
			"name":"main_buffer"
		}
	],
	"bufferViews":[
		{
			"buffer":0,
			"byteLength":40590,
			"target":34963
		},
		{
			"buffer":0,
			"byteOffset":40592,
			"byteLength":62760,
			"target":34962
		},
		{
			"buffer":0,
			"byteOffset":103352,
			"byteLength":62760,
			"target":34962
		},
		{
			"buffer":0,
			"byteOffset":166112,
			"byteLength":62760,
			"target":34962
		},
		{
			"buffer":0,
			"byteOffset":228872,
			"byteLength":4296,
			"target":34963
		},
		{
			"buffer":0,
			"byteOffset":233168,
			"byteLength":6540,
			"target":34962
		},
		{
			"buffer":0,
			"byteOffset":239708,
			"byteLength":6540,
			"target":34962
		},
		{
			"buffer":0,
			"byteOffset":246248,
			"byteLength":6540,
			"target":34962
		},
		{
			"buffer":0,
			"byteOffset":252788,
			"byteLength":40824,
			"target":34963
		},
		{
			"buffer":0,
			"byteOffset":293612,
			"byteLength":59580,
			"target":34962
		},
		{
			"buffer":0,
			"byteOffset":353192,
			"byteLength":59580,
			"target":34962
		},
		{
			"buffer":0,
			"byteOffset":412772,
			"byteLength":59580,
			"target":34962
		},
		{
			"buffer":0,
			"byteOffset":472352,
			"byteLength":1131792,
			"target":34963
		},
		{
			"buffer":0,
			"byteOffset":1604144,
			"byteLength":563928,
			"target":34962
		},
		{
			"buffer":0,
			"byteOffset":2168072,
			"byteLength":563928,
			"target":34962
		},
		{
			"buffer":0,
			"byteOffset":2732000,
			"byteLength":563928,
			"target":34962
		},
		{
			"buffer":0,
			"byteOffset":3295928,
			"byteLength":13368,
			"target":34963
		},
		{
			"buffer":0,
			"byteOffset":3309296,
			"byteLength":28128,
			"target":34962
		},
		{
			"buffer":0,
			"byteOffset":3337424,
			"byteLength":28128,
			"target":34962
		},
		{
			"buffer":0,
			"byteOffset":3365552,
			"byteLength":28128,
			"target":34962
		}
	],
	"nodes":[
		{
			"name":"geo1",
			"mesh":0
		}
	],
	"meshes":[
		{
			"primitives":[
				{
					"attributes":{
						"NORMAL":3,
						"COLOR_0":2,
						"POSITION":1
					},
					"indices":0,
					"material":0
				},
				{
					"attributes":{
						"NORMAL":7,
						"COLOR_0":6,
						"POSITION":5
					},
					"indices":4,
					"material":1
				},
				{
					"attributes":{
						"NORMAL":11,
						"COLOR_0":10,
						"POSITION":9
					},
					"indices":8,
					"material":2
				},
				{
					"attributes":{
						"NORMAL":15,
						"COLOR_0":14,
						"POSITION":13
					},
					"indices":12,
					"material":3
				},
				{
					"attributes":{
						"NORMAL":19,
						"COLOR_0":18,
						"POSITION":17
					},
					"indices":16,
					"material":4
				}
			],
			"name":"output0"
		}
	],
	"materials":[
		{
			"name":"plasticGrey",
			"pbrMetallicRoughness":{
				"baseColorFactor":[0.75,0.75,0.75,1
				],
				"metallicFactor":0,
				"roughnessFactor":0.300000012
			}
		},
		{
			"name":"plasticOrange",
			"pbrMetallicRoughness":{
				"baseColorFactor":[1,0.5,0,1
				],
				"metallicFactor":0,
				"roughnessFactor":0.300000012
			}
		},
		{
			"name":"shinyMetal",
			"pbrMetallicRoughness":{
				"metallicFactor":0.5,
				"roughnessFactor":0.5
			}
		},
		{
			"name":"unobtanuim",
			"pbrMetallicRoughness":{
				"metallicFactor":0.100000001,
				"roughnessFactor":0.400000006
			}
		},
		{
			"name":"pipe",
			"pbrMetallicRoughness":{
				"baseColorFactor":[0.666700006,0.666700006,0.666700006,1
				],
				"metallicFactor":0.600000024,
				"roughnessFactor":0.400000006
			}
		}
	],
	"scenes":[
		{
			"nodes":[0
			]
		}
	],
	"scene":0
}
