{
	"asset":{
		"version":"2.0",
		"generator":"Houdini GLTF 2.0 Exporter"
	},
	"accessors":[
		{
			"bufferView":0,
			"componentType":5123,
			"count":2148,
			"type":"SCALAR",
			"min":[0
			],
			"max":[524
			]
		},
		{
			"bufferView":1,
			"componentType":5126,
			"count":525,
			"type":"VEC3",
			"min":[-1.59050298,2.35736656,-3.87528563
			],
			"max":[-0.183951497,3.76389551,-1.98502755
			]
		},
		{
			"bufferView":2,
			"componentType":5126,
			"count":525,
			"type":"VEC3",
			"min":[-1,-0.999975443,-1
			],
			"max":[0.999973834,0.999760628,0.765211523
			]
		},
		{
			"bufferView":3,
			"componentType":5126,
			"count":525,
			"type":"VEC3",
			"min":[1,1,1
			],
			"max":[1,1,1
			]
		},
		{
			"bufferView":4,
			"componentType":5123,
			"count":26706,
			"type":"SCALAR",
			"min":[0
			],
			"max":[6962
			]
		},
		{
			"bufferView":5,
			"componentType":5126,
			"count":6963,
			"type":"VEC3",
			"min":[-2.49011517,-3.61835766,-1.98567784
			],
			"max":[1.07077968,4.66588354,1.92494786
			]
		},
		{
			"bufferView":6,
			"componentType":5126,
			"count":6963,
			"type":"VEC3",
			"min":[-1,-1,-1
			],
			"max":[1,1,1
			]
		},
		{
			"bufferView":7,
			"componentType":5126,
			"count":6963,
			"type":"VEC3",
			"min":[1,1,1
			],
			"max":[1,1,1
			]
		},
		{
			"bufferView":8,
			"componentType":5123,
			"count":27282,
			"type":"SCALAR",
			"min":[0
			],
			"max":[27189
			]
		},
		{
			"bufferView":9,
			"componentType":5126,
			"count":27190,
			"type":"VEC3",
			"min":[-7.5,-5.85331059,-4.60977745
			],
			"max":[7.5,3.89980745,4.60977745
			]
		},
		{
			"bufferView":10,
			"componentType":5126,
			"count":27190,
			"type":"VEC3",
			"min":[-0.999999404,-0.999757648,-0.999863625
			],
			"max":[0.999739647,0.999830306,0.999882579
			]
		},
		{
			"bufferView":11,
			"componentType":5126,
			"count":27190,
			"type":"VEC3",
			"min":[0,0.0128157139,0
			],
			"max":[0.99935919,1,1
			]
		},
		{
			"bufferView":12,
			"componentType":5123,
			"count":6690,
			"type":"SCALAR",
			"min":[0
			],
			"max":[2339
			]
		},
		{
			"bufferView":13,
			"componentType":5126,
			"count":2340,
			"type":"VEC3",
			"min":[-0.645924926,-3.15442848,-2.53523874
			],
			"max":[0.665446997,1.6410948,2.25920057
			]
		},
		{
			"bufferView":14,
			"componentType":5126,
			"count":2340,
			"type":"VEC3",
			"min":[-1,-1,-1
			],
			"max":[1,1,1
			]
		},
		{
			"bufferView":15,
			"componentType":5126,
			"count":2340,
			"type":"VEC3",
			"min":[1,1,1
			],
			"max":[1,1,1
			]
		},
		{
			"bufferView":16,
			"componentType":5123,
			"count":14001,
			"type":"SCALAR",
			"min":[0
			],
			"max":[3122
			]
		},
		{
			"bufferView":17,
			"componentType":5126,
			"count":3123,
			"type":"VEC3",
			"min":[-1.05125761,2.20532513,-1.19902182
			],
			"max":[1.07077968,5.85331059,0.922983885
			]
		},
		{
			"bufferView":18,
			"componentType":5126,
			"count":3123,
			"type":"VEC3",
			"min":[-1,-1,-1
			],
			"max":[1,1,1
			]
		},
		{
			"bufferView":19,
			"componentType":5126,
			"count":3123,
			"type":"VEC3",
			"min":[1,1,1
			],
			"max":[1,1,1
			]
		}
	],
	"buffers":[
		{
			"uri":"butterflyValve_data.bin",
			"byteLength":1598732,
			"name":"main_buffer"
		}
	],
	"bufferViews":[
		{
			"buffer":0,
			"byteLength":4296,
			"target":34963
		},
		{
			"buffer":0,
			"byteOffset":4296,
			"byteLength":6300,
			"target":34962
		},
		{
			"buffer":0,
			"byteOffset":10596,
			"byteLength":6300,
			"target":34962
		},
		{
			"buffer":0,
			"byteOffset":16896,
			"byteLength":6300,
			"target":34962
		},
		{
			"buffer":0,
			"byteOffset":23196,
			"byteLength":53412,
			"target":34963
		},
		{
			"buffer":0,
			"byteOffset":76608,
			"byteLength":83556,
			"target":34962
		},
		{
			"buffer":0,
			"byteOffset":160164,
			"byteLength":83556,
			"target":34962
		},
		{
			"buffer":0,
			"byteOffset":243720,
			"byteLength":83556,
			"target":34962
		},
		{
			"buffer":0,
			"byteOffset":327276,
			"byteLength":54564,
			"target":34963
		},
		{
			"buffer":0,
			"byteOffset":381840,
			"byteLength":326280,
			"target":34962
		},
		{
			"buffer":0,
			"byteOffset":708120,
			"byteLength":326280,
			"target":34962
		},
		{
			"buffer":0,
			"byteOffset":1034400,
			"byteLength":326280,
			"target":34962
		},
		{
			"buffer":0,
			"byteOffset":1360680,
			"byteLength":13380,
			"target":34963
		},
		{
			"buffer":0,
			"byteOffset":1374060,
			"byteLength":28080,
			"target":34962
		},
		{
			"buffer":0,
			"byteOffset":1402140,
			"byteLength":28080,
			"target":34962
		},
		{
			"buffer":0,
			"byteOffset":1430220,
			"byteLength":28080,
			"target":34962
		},
		{
			"buffer":0,
			"byteOffset":1458300,
			"byteLength":28002,
			"target":34963
		},
		{
			"buffer":0,
			"byteOffset":1486304,
			"byteLength":37476,
			"target":34962
		},
		{
			"buffer":0,
			"byteOffset":1523780,
			"byteLength":37476,
			"target":34962
		},
		{
			"buffer":0,
			"byteOffset":1561256,
			"byteLength":37476,
			"target":34962
		}
	],
	"nodes":[
		{
			"name":"geo1",
			"mesh":0
		}
	],
	"meshes":[
		{
			"primitives":[
				{
					"attributes":{
						"COLOR_0":3,
						"NORMAL":2,
						"POSITION":1
					},
					"indices":0,
					"material":0
				},
				{
					"attributes":{
						"COLOR_0":7,
						"NORMAL":6,
						"POSITION":5
					},
					"indices":4,
					"material":1
				},
				{
					"attributes":{
						"COLOR_0":11,
						"NORMAL":10,
						"POSITION":9
					},
					"indices":8,
					"material":2
				},
				{
					"attributes":{
						"COLOR_0":15,
						"NORMAL":14,
						"POSITION":13
					},
					"indices":12,
					"material":3
				},
				{
					"attributes":{
						"COLOR_0":19,
						"NORMAL":18,
						"POSITION":17
					},
					"indices":16,
					"material":4
				}
			],
			"name":"matchsize2"
		}
	],
	"materials":[
		{
			"name":"plasticOrange",
			"pbrMetallicRoughness":{
				"baseColorFactor":[1,0.5,0,1
				],
				"metallicFactor":0,
				"roughnessFactor":0.300000012
			}
		},
		{
			"name":"shinyMetal",
			"pbrMetallicRoughness":{
				"metallicFactor":0.5,
				"roughnessFactor":0.5
			}
		},
		{
			"name":"unobtanuim",
			"pbrMetallicRoughness":{
				"metallicFactor":0.100000001,
				"roughnessFactor":0.400000006
			}
		},
		{
			"name":"pipe",
			"pbrMetallicRoughness":{
				"metallicFactor":0.600000024,
				"roughnessFactor":0.400000006
			}
		},
		{
			"name":"plasticGrey",
			"pbrMetallicRoughness":{
				"baseColorFactor":[0.75,0.75,0.75,1
				],
				"metallicFactor":0,
				"roughnessFactor":0.300000012
			}
		}
	],
	"scenes":[
		{
			"nodes":[0
			]
		}
	],
	"scene":0
}
