{
	"asset":{
		"version":"2.0",
		"generator":"Houdini GLTF 2.0 Exporter"
	},
	"accessors":[
		{
			"bufferView":0,
			"componentType":5123,
			"count":2148,
			"type":"SCALAR",
			"min":[0
			],
			"max":[524
			]
		},
		{
			"bufferView":1,
			"componentType":5126,
			"count":525,
			"type":"VEC3",
			"min":[-1.59394908,2.35945678,-3.90784359
			],
			"max":[-0.184372321,3.76901078,-2.01351976
			]
		},
		{
			"bufferView":2,
			"componentType":5126,
			"count":525,
			"type":"VEC3",
			"min":[1,1,1
			],
			"max":[1,1,1
			]
		},
		{
			"bufferView":3,
			"componentType":5126,
			"count":525,
			"type":"VEC3",
			"min":[-1,-0.999975383,-1
			],
			"max":[0.999973774,0.999760628,0.765211463
			]
		},
		{
			"bufferView":4,
			"componentType":5123,
			"count":26706,
			"type":"SCALAR",
			"min":[0
			],
			"max":[6962
			]
		},
		{
			"bufferView":5,
			"componentType":5126,
			"count":6963,
			"type":"VEC3",
			"min":[-2.49549627,-3.62912035,-2.01417136
			],
			"max":[1.07305765,4.67293882,1.9048655
			]
		},
		{
			"bufferView":6,
			"componentType":5126,
			"count":6963,
			"type":"VEC3",
			"min":[1,1,1
			],
			"max":[1,1,1
			]
		},
		{
			"bufferView":7,
			"componentType":5126,
			"count":6963,
			"type":"VEC3",
			"min":[-1,-1,-1
			],
			"max":[1,1,1
			]
		},
		{
			"bufferView":8,
			"componentType":5125,
			"count":282948,
			"type":"SCALAR",
			"min":[0
			],
			"max":[46993
			]
		},
		{
			"bufferView":9,
			"componentType":5126,
			"count":46994,
			"type":"VEC3",
			"min":[-7.5,-5.86291981,-4.61466599
			],
			"max":[7.5,3.88506675,4.61466599
			]
		},
		{
			"bufferView":10,
			"componentType":5126,
			"count":46994,
			"type":"VEC3",
			"min":[0,0.00581789017,0
			],
			"max":[0.999709129,1,1
			]
		},
		{
			"bufferView":11,
			"componentType":5126,
			"count":46994,
			"type":"VEC3",
			"min":[-0.999847412,-0.999988496,-0.999998927
			],
			"max":[0.999890625,0.999953687,0.999976814
			]
		},
		{
			"bufferView":12,
			"componentType":5123,
			"count":6690,
			"type":"SCALAR",
			"min":[0
			],
			"max":[2339
			]
		},
		{
			"bufferView":13,
			"componentType":5126,
			"count":2340,
			"type":"VEC3",
			"min":[-0.647339404,-3.16419363,-2.56491446
			],
			"max":[0.66685313,1.64164448,2.23983741
			]
		},
		{
			"bufferView":14,
			"componentType":5126,
			"count":2340,
			"type":"VEC3",
			"min":[1,1,1
			],
			"max":[1,1,1
			]
		},
		{
			"bufferView":15,
			"componentType":5126,
			"count":2340,
			"type":"VEC3",
			"min":[-1,-1,-1
			],
			"max":[1,1,1
			]
		},
		{
			"bufferView":16,
			"componentType":5123,
			"count":14001,
			"type":"SCALAR",
			"min":[0
			],
			"max":[3122
			]
		},
		{
			"bufferView":17,
			"componentType":5126,
			"count":3123,
			"type":"VEC3",
			"min":[-1.05354393,2.20708823,-1.2258234
			],
			"max":[1.07305765,5.86291981,0.900746524
			]
		},
		{
			"bufferView":18,
			"componentType":5126,
			"count":3123,
			"type":"VEC3",
			"min":[1,1,1
			],
			"max":[1,1,1
			]
		},
		{
			"bufferView":19,
			"componentType":5126,
			"count":3123,
			"type":"VEC3",
			"min":[-1,-1,-1
			],
			"max":[1,1,1
			]
		}
	],
	"buffers":[
		{
			"uri":"butterflyValve_data.bin",
			"byteLength":3388904,
			"name":"main_buffer"
		}
	],
	"bufferViews":[
		{
			"buffer":0,
			"byteLength":4296,
			"target":34963
		},
		{
			"buffer":0,
			"byteOffset":4296,
			"byteLength":6300,
			"target":34962
		},
		{
			"buffer":0,
			"byteOffset":10596,
			"byteLength":6300,
			"target":34962
		},
		{
			"buffer":0,
			"byteOffset":16896,
			"byteLength":6300,
			"target":34962
		},
		{
			"buffer":0,
			"byteOffset":23196,
			"byteLength":53412,
			"target":34963
		},
		{
			"buffer":0,
			"byteOffset":76608,
			"byteLength":83556,
			"target":34962
		},
		{
			"buffer":0,
			"byteOffset":160164,
			"byteLength":83556,
			"target":34962
		},
		{
			"buffer":0,
			"byteOffset":243720,
			"byteLength":83556,
			"target":34962
		},
		{
			"buffer":0,
			"byteOffset":327276,
			"byteLength":1131792,
			"target":34963
		},
		{
			"buffer":0,
			"byteOffset":1459068,
			"byteLength":563928,
			"target":34962
		},
		{
			"buffer":0,
			"byteOffset":2022996,
			"byteLength":563928,
			"target":34962
		},
		{
			"buffer":0,
			"byteOffset":2586924,
			"byteLength":563928,
			"target":34962
		},
		{
			"buffer":0,
			"byteOffset":3150852,
			"byteLength":13380,
			"target":34963
		},
		{
			"buffer":0,
			"byteOffset":3164232,
			"byteLength":28080,
			"target":34962
		},
		{
			"buffer":0,
			"byteOffset":3192312,
			"byteLength":28080,
			"target":34962
		},
		{
			"buffer":0,
			"byteOffset":3220392,
			"byteLength":28080,
			"target":34962
		},
		{
			"buffer":0,
			"byteOffset":3248472,
			"byteLength":28002,
			"target":34963
		},
		{
			"buffer":0,
			"byteOffset":3276476,
			"byteLength":37476,
			"target":34962
		},
		{
			"buffer":0,
			"byteOffset":3313952,
			"byteLength":37476,
			"target":34962
		},
		{
			"buffer":0,
			"byteOffset":3351428,
			"byteLength":37476,
			"target":34962
		}
	],
	"nodes":[
		{
			"name":"geo1",
			"mesh":0
		}
	],
	"meshes":[
		{
			"primitives":[
				{
					"attributes":{
						"NORMAL":3,
						"COLOR_0":2,
						"POSITION":1
					},
					"indices":0,
					"material":0
				},
				{
					"attributes":{
						"NORMAL":7,
						"COLOR_0":6,
						"POSITION":5
					},
					"indices":4,
					"material":1
				},
				{
					"attributes":{
						"NORMAL":11,
						"COLOR_0":10,
						"POSITION":9
					},
					"indices":8,
					"material":2
				},
				{
					"attributes":{
						"NORMAL":15,
						"COLOR_0":14,
						"POSITION":13
					},
					"indices":12,
					"material":3
				},
				{
					"attributes":{
						"NORMAL":19,
						"COLOR_0":18,
						"POSITION":17
					},
					"indices":16,
					"material":4
				}
			],
			"name":"output0"
		}
	],
	"materials":[
		{
			"name":"plasticOrange",
			"pbrMetallicRoughness":{
				"baseColorFactor":[1,0.5,0,1
				],
				"metallicFactor":0,
				"roughnessFactor":0.300000012
			}
		},
		{
			"name":"shinyMetal",
			"pbrMetallicRoughness":{
				"metallicFactor":0.5,
				"roughnessFactor":0.5
			}
		},
		{
			"name":"unobtanuim",
			"pbrMetallicRoughness":{
				"metallicFactor":0.100000001,
				"roughnessFactor":0.400000006
			}
		},
		{
			"name":"pipe",
			"pbrMetallicRoughness":{
				"baseColorFactor":[0.666700006,0.666700006,0.666700006,1
				],
				"metallicFactor":0.600000024,
				"roughnessFactor":0.400000006
			}
		},
		{
			"name":"plasticGrey",
			"pbrMetallicRoughness":{
				"baseColorFactor":[0.75,0.75,0.75,1
				],
				"metallicFactor":0,
				"roughnessFactor":0.300000012
			}
		}
	],
	"scenes":[
		{
			"nodes":[0
			]
		}
	],
	"scene":0
}
