{
	"asset":{
		"version":"2.0",
		"generator":"Houdini GLTF 2.0 Exporter"
	},
	"accessors":[
		{
			"bufferView":0,
			"componentType":5123,
			"count":4527,
			"type":"SCALAR",
			"min":[0
			],
			"max":[1571
			]
		},
		{
			"bufferView":1,
			"componentType":5126,
			"count":1572,
			"type":"VEC3",
			"min":[-1.59394908,2.35945678,-3.90784359
			],
			"max":[-0.183869913,3.76915574,1.08048916
			]
		},
		{
			"bufferView":2,
			"componentType":5126,
			"count":1572,
			"type":"VEC3",
			"min":[1,1,1
			],
			"max":[1,1,1
			]
		},
		{
			"bufferView":3,
			"componentType":5126,
			"count":1572,
			"type":"VEC3",
			"min":[-1,-0.999999404,-1
			],
			"max":[1,0.999999821,1
			]
		},
		{
			"bufferView":4,
			"componentType":5123,
			"count":12204,
			"type":"SCALAR",
			"min":[0
			],
			"max":[4727
			]
		},
		{
			"bufferView":5,
			"componentType":5126,
			"count":4728,
			"type":"VEC3",
			"min":[-2.49549627,-3.62912035,-1.6338048
			],
			"max":[1.05752385,4.67293882,1.9048655
			]
		},
		{
			"bufferView":6,
			"componentType":5126,
			"count":4728,
			"type":"VEC3",
			"min":[1,1,1
			],
			"max":[1,1,1
			]
		},
		{
			"bufferView":7,
			"componentType":5126,
			"count":4728,
			"type":"VEC3",
			"min":[-1,-1,-1
			],
			"max":[1,1,1
			]
		},
		{
			"bufferView":8,
			"componentType":5125,
			"count":282948,
			"type":"SCALAR",
			"min":[0
			],
			"max":[46993
			]
		},
		{
			"bufferView":9,
			"componentType":5126,
			"count":46994,
			"type":"VEC3",
			"min":[-7.5,-5.86291981,-4.61466599
			],
			"max":[7.5,3.88506675,4.61466599
			]
		},
		{
			"bufferView":10,
			"componentType":5126,
			"count":46994,
			"type":"VEC3",
			"min":[0.0178870969,0.200993106,0.71936214
			],
			"max":[1.00752854,0.99689424,0.998226047
			]
		},
		{
			"bufferView":11,
			"componentType":5126,
			"count":46994,
			"type":"VEC3",
			"min":[-0.999847412,-0.999988496,-0.999998927
			],
			"max":[0.999890625,0.999953687,0.999976814
			]
		},
		{
			"bufferView":12,
			"componentType":5123,
			"count":31920,
			"type":"SCALAR",
			"min":[0
			],
			"max":[13064
			]
		},
		{
			"bufferView":13,
			"componentType":5126,
			"count":13065,
			"type":"VEC3",
			"min":[-0.647339404,-3.16425204,-2.56491446
			],
			"max":[0.66685313,1.65412688,2.23983741
			]
		},
		{
			"bufferView":14,
			"componentType":5126,
			"count":13065,
			"type":"VEC3",
			"min":[1,1,1
			],
			"max":[1,1,1
			]
		},
		{
			"bufferView":15,
			"componentType":5126,
			"count":13065,
			"type":"VEC3",
			"min":[-1,-0.999999404,-1
			],
			"max":[1,1,1
			]
		},
		{
			"bufferView":16,
			"componentType":5123,
			"count":16275,
			"type":"SCALAR",
			"min":[0
			],
			"max":[5981
			]
		},
		{
			"bufferView":17,
			"componentType":5126,
			"count":5982,
			"type":"VEC3",
			"min":[-1.31444526,2.20708823,-1.2258234
			],
			"max":[1.07305765,5.86291981,0.900746524
			]
		},
		{
			"bufferView":18,
			"componentType":5126,
			"count":5982,
			"type":"VEC3",
			"min":[1,1,1
			],
			"max":[1,1,1
			]
		},
		{
			"bufferView":19,
			"componentType":5126,
			"count":5982,
			"type":"VEC3",
			"min":[-1,-1,-1
			],
			"max":[1,1,1
			]
		}
	],
	"buffers":[
		{
			"uri":"butterflyValve_data.bin",
			"byteLength":3865924,
			"name":"main_buffer"
		}
	],
	"bufferViews":[
		{
			"buffer":0,
			"byteLength":9054,
			"target":34963
		},
		{
			"buffer":0,
			"byteOffset":9056,
			"byteLength":18864,
			"target":34962
		},
		{
			"buffer":0,
			"byteOffset":27920,
			"byteLength":18864,
			"target":34962
		},
		{
			"buffer":0,
			"byteOffset":46784,
			"byteLength":18864,
			"target":34962
		},
		{
			"buffer":0,
			"byteOffset":65648,
			"byteLength":24408,
			"target":34963
		},
		{
			"buffer":0,
			"byteOffset":90056,
			"byteLength":56736,
			"target":34962
		},
		{
			"buffer":0,
			"byteOffset":146792,
			"byteLength":56736,
			"target":34962
		},
		{
			"buffer":0,
			"byteOffset":203528,
			"byteLength":56736,
			"target":34962
		},
		{
			"buffer":0,
			"byteOffset":260264,
			"byteLength":1131792,
			"target":34963
		},
		{
			"buffer":0,
			"byteOffset":1392056,
			"byteLength":563928,
			"target":34962
		},
		{
			"buffer":0,
			"byteOffset":1955984,
			"byteLength":563928,
			"target":34962
		},
		{
			"buffer":0,
			"byteOffset":2519912,
			"byteLength":563928,
			"target":34962
		},
		{
			"buffer":0,
			"byteOffset":3083840,
			"byteLength":63840,
			"target":34963
		},
		{
			"buffer":0,
			"byteOffset":3147680,
			"byteLength":156780,
			"target":34962
		},
		{
			"buffer":0,
			"byteOffset":3304460,
			"byteLength":156780,
			"target":34962
		},
		{
			"buffer":0,
			"byteOffset":3461240,
			"byteLength":156780,
			"target":34962
		},
		{
			"buffer":0,
			"byteOffset":3618020,
			"byteLength":32550,
			"target":34963
		},
		{
			"buffer":0,
			"byteOffset":3650572,
			"byteLength":71784,
			"target":34962
		},
		{
			"buffer":0,
			"byteOffset":3722356,
			"byteLength":71784,
			"target":34962
		},
		{
			"buffer":0,
			"byteOffset":3794140,
			"byteLength":71784,
			"target":34962
		}
	],
	"nodes":[
		{
			"name":"comp",
			"mesh":0
		}
	],
	"meshes":[
		{
			"primitives":[
				{
					"attributes":{
						"NORMAL":3,
						"COLOR_0":2,
						"POSITION":1
					},
					"indices":0,
					"material":0
				},
				{
					"attributes":{
						"NORMAL":7,
						"COLOR_0":6,
						"POSITION":5
					},
					"indices":4,
					"material":1
				},
				{
					"attributes":{
						"NORMAL":11,
						"COLOR_0":10,
						"POSITION":9
					},
					"indices":8,
					"material":2
				},
				{
					"attributes":{
						"NORMAL":15,
						"COLOR_0":14,
						"POSITION":13
					},
					"indices":12,
					"material":3
				},
				{
					"attributes":{
						"NORMAL":19,
						"COLOR_0":18,
						"POSITION":17
					},
					"indices":16,
					"material":4
				}
			],
			"name":"output0"
		}
	],
	"materials":[
		{
			"name":"plasticOrange",
			"pbrMetallicRoughness":{
				"baseColorFactor":[0.607843161,0.478431374,0.850980401,1
				],
				"metallicFactor":0,
				"roughnessFactor":0.300000012
			}
		},
		{
			"name":"shinyMetal",
			"pbrMetallicRoughness":{
				"metallicFactor":0.5,
				"roughnessFactor":0.5
			}
		},
		{
			"name":"unobtanuimSplash",
			"pbrMetallicRoughness":{
				"metallicFactor":0.100000001,
				"roughnessFactor":0.400000006
			}
		},
		{
			"name":"pipe",
			"pbrMetallicRoughness":{
				"baseColorFactor":[0.666700006,0.666700006,0.666700006,1
				],
				"metallicFactor":0.800000012,
				"roughnessFactor":0.600000024
			}
		},
		{
			"name":"plasticGrey",
			"pbrMetallicRoughness":{
				"baseColorFactor":[0.75,0.75,0.75,1
				],
				"metallicFactor":0,
				"roughnessFactor":0.300000012
			}
		}
	],
	"scenes":[
		{
			"nodes":[0
			]
		}
	],
	"scene":0
}
