{
	"asset":{
		"version":"2.0",
		"generator":"Houdini GLTF 2.0 Exporter"
	},
	"accessors":[
		{
			"bufferView":0,
			"componentType":5123,
			"count":6900,
			"type":"SCALAR",
			"min":[0
			],
			"max":[1343
			]
		},
		{
			"bufferView":1,
			"componentType":5126,
			"count":1344,
			"type":"VEC3",
			"min":[-5.95539427,-1.70716119,-5.95190716
			],
			"max":[6.04460573,-1.50716114,6.04809284
			]
		},
		{
			"bufferView":2,
			"componentType":5126,
			"count":1344,
			"type":"VEC3",
			"min":[-1,-1,-1
			],
			"max":[1,1,1
			]
		},
		{
			"bufferView":3,
			"componentType":5123,
			"count":10620,
			"type":"SCALAR",
			"min":[0
			],
			"max":[2519
			]
		},
		{
			"bufferView":4,
			"componentType":5126,
			"count":2520,
			"type":"VEC3",
			"min":[-4.86517715,-0.227161169,3.48613596
			],
			"max":[-1.82822037,4.44937515,4.95787525
			]
		},
		{
			"bufferView":5,
			"componentType":5126,
			"count":2520,
			"type":"VEC3",
			"min":[-1,-1,-1
			],
			"max":[1,1,1
			]
		},
		{
			"bufferView":6,
			"componentType":5123,
			"count":28800,
			"type":"SCALAR",
			"min":[0
			],
			"max":[4863
			]
		},
		{
			"bufferView":7,
			"componentType":5126,
			"count":4864,
			"type":"VEC3",
			"min":[-5.95539427,-1.43016112,-5.95190716
			],
			"max":[-1.78148127,0.1350559,-1.77799416
			]
		},
		{
			"bufferView":8,
			"componentType":5126,
			"count":4864,
			"type":"VEC3",
			"min":[-0.991278946,-0.991278946,-0.991278946
			],
			"max":[0.991278946,0.991278768,0.991278946
			]
		},
		{
			"bufferView":9,
			"componentType":5123,
			"count":930,
			"type":"SCALAR",
			"min":[0
			],
			"max":[519
			]
		},
		{
			"bufferView":10,
			"componentType":5126,
			"count":520,
			"type":"VEC3",
			"min":[-3.39887261,1.89283895,-3.61451578
			],
			"max":[3.4880836,8.07023335,1.34722304
			]
		},
		{
			"bufferView":11,
			"componentType":5126,
			"count":520,
			"type":"VEC3",
			"min":[-1,-1,-1
			],
			"max":[1,1,1
			]
		},
		{
			"bufferView":12,
			"componentType":5125,
			"count":106032,
			"type":"SCALAR",
			"min":[0
			],
			"max":[27208
			]
		},
		{
			"bufferView":13,
			"componentType":5126,
			"count":27209,
			"type":"VEC3",
			"min":[-6.85709143,-3.09023333,-6.95373106
			],
			"max":[6.85709143,-0.522811174,6.95373106
			]
		},
		{
			"bufferView":14,
			"componentType":5126,
			"count":27209,
			"type":"VEC3",
			"min":[-1,-1,-1
			],
			"max":[1,1,1
			]
		},
		{
			"bufferView":15,
			"componentType":5123,
			"count":9876,
			"type":"SCALAR",
			"min":[0
			],
			"max":[2423
			]
		},
		{
			"bufferView":16,
			"componentType":5126,
			"count":2424,
			"type":"VEC3",
			"min":[-5.92930746,-1.50716114,-5.92582035
			],
			"max":[5.30112791,6.46283865,4.97852802
			]
		},
		{
			"bufferView":17,
			"componentType":5126,
			"count":2424,
			"type":"VEC3",
			"min":[-1,-1,-1
			],
			"max":[1,1,1
			]
		},
		{
			"bufferView":18,
			"componentType":5125,
			"count":58224,
			"type":"SCALAR",
			"min":[0
			],
			"max":[18359
			]
		},
		{
			"bufferView":19,
			"componentType":5126,
			"count":18360,
			"type":"VEC3",
			"min":[-5.98039436,-1.5307225,-5.97690725
			],
			"max":[5.32112741,8.09023285,5.02461481
			]
		},
		{
			"bufferView":20,
			"componentType":5126,
			"count":18360,
			"type":"VEC3",
			"min":[-1,-1,-1
			],
			"max":[1,1,1
			]
		},
		{
			"bufferView":21,
			"componentType":5123,
			"count":7896,
			"type":"SCALAR",
			"min":[0
			],
			"max":[5263
			]
		},
		{
			"bufferView":22,
			"componentType":5126,
			"count":5264,
			"type":"VEC3",
			"min":[-3.89053774,-1.50716126,-4.4001894
			],
			"max":[5.05112791,6.4528389,4.01113605
			]
		},
		{
			"bufferView":23,
			"componentType":5126,
			"count":5264,
			"type":"VEC3",
			"min":[-1,-7.32400736e-07,-1
			],
			"max":[1,7.3240011e-07,1
			]
		},
		{
			"bufferView":24,
			"componentType":5123,
			"count":1200,
			"type":"SCALAR",
			"min":[0
			],
			"max":[767
			]
		},
		{
			"bufferView":25,
			"componentType":5126,
			"count":768,
			"type":"VEC3",
			"min":[-4.94258165,-1.50114119,3.4087317
			],
			"max":[-1.75081611,-0.227161169,5.03528023
			]
		},
		{
			"bufferView":26,
			"componentType":5126,
			"count":768,
			"type":"VEC3",
			"min":[-1,-1,-1
			],
			"max":[1,1,1
			]
		}
	],
	"buffers":[
		{
			"uri":"factory_data.bin",
			"byteLength":2308020,
			"name":"main_buffer"
		}
	],
	"bufferViews":[
		{
			"buffer":0,
			"byteLength":13800,
			"target":34963
		},
		{
			"buffer":0,
			"byteOffset":13800,
			"byteLength":16128,
			"target":34962
		},
		{
			"buffer":0,
			"byteOffset":29928,
			"byteLength":16128,
			"target":34962
		},
		{
			"buffer":0,
			"byteOffset":46056,
			"byteLength":21240,
			"target":34963
		},
		{
			"buffer":0,
			"byteOffset":67296,
			"byteLength":30240,
			"target":34962
		},
		{
			"buffer":0,
			"byteOffset":97536,
			"byteLength":30240,
			"target":34962
		},
		{
			"buffer":0,
			"byteOffset":127776,
			"byteLength":57600,
			"target":34963
		},
		{
			"buffer":0,
			"byteOffset":185376,
			"byteLength":58368,
			"target":34962
		},
		{
			"buffer":0,
			"byteOffset":243744,
			"byteLength":58368,
			"target":34962
		},
		{
			"buffer":0,
			"byteOffset":302112,
			"byteLength":1860,
			"target":34963
		},
		{
			"buffer":0,
			"byteOffset":303972,
			"byteLength":6240,
			"target":34962
		},
		{
			"buffer":0,
			"byteOffset":310212,
			"byteLength":6240,
			"target":34962
		},
		{
			"buffer":0,
			"byteOffset":316452,
			"byteLength":424128,
			"target":34963
		},
		{
			"buffer":0,
			"byteOffset":740580,
			"byteLength":326508,
			"target":34962
		},
		{
			"buffer":0,
			"byteOffset":1067088,
			"byteLength":326508,
			"target":34962
		},
		{
			"buffer":0,
			"byteOffset":1393596,
			"byteLength":19752,
			"target":34963
		},
		{
			"buffer":0,
			"byteOffset":1413348,
			"byteLength":29088,
			"target":34962
		},
		{
			"buffer":0,
			"byteOffset":1442436,
			"byteLength":29088,
			"target":34962
		},
		{
			"buffer":0,
			"byteOffset":1471524,
			"byteLength":232896,
			"target":34963
		},
		{
			"buffer":0,
			"byteOffset":1704420,
			"byteLength":220320,
			"target":34962
		},
		{
			"buffer":0,
			"byteOffset":1924740,
			"byteLength":220320,
			"target":34962
		},
		{
			"buffer":0,
			"byteOffset":2145060,
			"byteLength":15792,
			"target":34963
		},
		{
			"buffer":0,
			"byteOffset":2160852,
			"byteLength":63168,
			"target":34962
		},
		{
			"buffer":0,
			"byteOffset":2224020,
			"byteLength":63168,
			"target":34962
		},
		{
			"buffer":0,
			"byteOffset":2287188,
			"byteLength":2400,
			"target":34963
		},
		{
			"buffer":0,
			"byteOffset":2289588,
			"byteLength":9216,
			"target":34962
		},
		{
			"buffer":0,
			"byteOffset":2298804,
			"byteLength":9216,
			"target":34962
		}
	],
	"nodes":[
		{
			"name":"factory",
			"mesh":0
		}
	],
	"meshes":[
		{
			"primitives":[
				{
					"attributes":{
						"NORMAL":2,
						"POSITION":1
					},
					"indices":0,
					"material":0
				},
				{
					"attributes":{
						"NORMAL":5,
						"POSITION":4
					},
					"indices":3,
					"material":1
				},
				{
					"attributes":{
						"NORMAL":8,
						"POSITION":7
					},
					"indices":6,
					"material":2
				},
				{
					"attributes":{
						"NORMAL":11,
						"POSITION":10
					},
					"indices":9,
					"material":3
				},
				{
					"attributes":{
						"NORMAL":14,
						"POSITION":13
					},
					"indices":12,
					"material":4
				},
				{
					"attributes":{
						"NORMAL":17,
						"POSITION":16
					},
					"indices":15,
					"material":5
				},
				{
					"attributes":{
						"NORMAL":20,
						"POSITION":19
					},
					"indices":18,
					"material":6
				},
				{
					"attributes":{
						"NORMAL":23,
						"POSITION":22
					},
					"indices":21,
					"material":7
				},
				{
					"attributes":{
						"NORMAL":26,
						"POSITION":25
					},
					"indices":24
				}
			],
			"name":"OUT_ASSEMBLY"
		}
	],
	"materials":[
		{
			"name":"plane",
			"pbrMetallicRoughness":{
				"baseColorFactor":[0.899999976,0.899999976,0.899999976,1
				],
				"metallicFactor":0.100000001,
				"roughnessFactor":0.600000024
			}
		},
		{
			"name":"peakTube",
			"pbrMetallicRoughness":{
				"baseColorFactor":[0.75,0.75,0.75,1
				],
				"metallicFactor":0,
				"roughnessFactor":0.800000012
			}
		},
		{
			"name":"crate",
			"pbrMetallicRoughness":{
				"baseColorFactor":[1,0.5,0,1
				],
				"metallicFactor":0,
				"roughnessFactor":0.300000012
			}
		},
		{
			"name":"roofDetail",
			"pbrMetallicRoughness":{
				"metallicFactor":0.100000001,
				"roughnessFactor":0.600000024
			}
		},
		{
			"name":"pipeVariant",
			"pbrMetallicRoughness":{
				"baseColorFactor":[0.666700006,0.666700006,0.666700006,1
				],
				"metallicFactor":0.600000024,
				"roughnessFactor":0.300000012
			}
		},
		{
			"name":"platform",
			"pbrMetallicRoughness":{
				"baseColorFactor":[0.75,0.75,0.75,1
				],
				"metallicFactor":0.600000024,
				"roughnessFactor":0.600000024
			}
		},
		{
			"name":"rail",
			"pbrMetallicRoughness":{
				"baseColorFactor":[0.5,0.5,0.5,1
				],
				"metallicFactor":0.5,
				"roughnessFactor":0.100000001
			}
		},
		{
			"name":"wall",
			"pbrMetallicRoughness":{
				"metallicFactor":0.100000001,
				"roughnessFactor":0.600000024
			}
		}
	],
	"scenes":[
		{
			"nodes":[0
			]
		}
	],
	"scene":0
}
