{
	"asset":{
		"version":"2.0",
		"generator":"Houdini GLTF 2.0 Exporter"
	},
	"accessors":[
		{
			"bufferView":0,
			"componentType":5123,
			"count":6900,
			"type":"SCALAR",
			"min":[0
			],
			"max":[1343
			]
		},
		{
			"bufferView":1,
			"componentType":5126,
			"count":1344,
			"type":"VEC3",
			"min":[-5.95539427,-1.70716119,-5.95190716
			],
			"max":[6.04460573,-1.50716114,6.04809284
			]
		},
		{
			"bufferView":2,
			"componentType":5126,
			"count":1344,
			"type":"VEC2",
			"min":[0,1
			],
			"max":[0,1
			]
		},
		{
			"bufferView":3,
			"componentType":5126,
			"count":1344,
			"type":"VEC3",
			"min":[-1,-1,-1
			],
			"max":[1,1,1
			]
		},
		{
			"bufferView":4,
			"componentType":5126,
			"count":1344,
			"type":"SCALAR",
			"min":[0.150000006
			],
			"max":[0.150000006
			]
		},
		{
			"bufferView":5,
			"componentType":5126,
			"count":1344,
			"type":"VEC3",
			"min":[3.13043451,0,6.2608695
			],
			"max":[3.13043451,0,6.2608695
			]
		},
		{
			"bufferView":6,
			"componentType":5126,
			"count":1344,
			"type":"SCALAR",
			"min":[0.15200001
			],
			"max":[0.15200001
			]
		},
		{
			"bufferView":7,
			"componentType":5123,
			"count":10620,
			"type":"SCALAR",
			"min":[0
			],
			"max":[2519
			]
		},
		{
			"bufferView":8,
			"componentType":5126,
			"count":2520,
			"type":"VEC3",
			"min":[-4.86517715,-0.227161169,3.48613596
			],
			"max":[-1.82822037,4.44937515,4.95787525
			]
		},
		{
			"bufferView":9,
			"componentType":5126,
			"count":2520,
			"type":"VEC2",
			"min":[0,1
			],
			"max":[0,1
			]
		},
		{
			"bufferView":10,
			"componentType":5126,
			"count":2520,
			"type":"VEC3",
			"min":[-1,-1,-1
			],
			"max":[1,1,1
			]
		},
		{
			"bufferView":11,
			"componentType":5126,
			"count":2520,
			"type":"SCALAR",
			"min":[0.150000006
			],
			"max":[0.150000006
			]
		},
		{
			"bufferView":12,
			"componentType":5126,
			"count":2520,
			"type":"VEC3",
			"min":[3.13043451,0,6.2608695
			],
			"max":[3.13043451,0,6.2608695
			]
		},
		{
			"bufferView":13,
			"componentType":5126,
			"count":2520,
			"type":"SCALAR",
			"min":[0.15200001
			],
			"max":[0.15200001
			]
		},
		{
			"bufferView":14,
			"componentType":5123,
			"count":28800,
			"type":"SCALAR",
			"min":[0
			],
			"max":[4863
			]
		},
		{
			"bufferView":15,
			"componentType":5126,
			"count":4864,
			"type":"VEC3",
			"min":[-5.95539427,-1.43016112,-5.95190716
			],
			"max":[-1.78148127,0.1350559,-1.77799416
			]
		},
		{
			"bufferView":16,
			"componentType":5126,
			"count":4864,
			"type":"VEC2",
			"min":[0,1
			],
			"max":[0,1
			]
		},
		{
			"bufferView":17,
			"componentType":5126,
			"count":4864,
			"type":"VEC3",
			"min":[-0.991278946,-0.991278946,-0.991278946
			],
			"max":[0.991278946,0.991278768,0.991278946
			]
		},
		{
			"bufferView":18,
			"componentType":5126,
			"count":4864,
			"type":"SCALAR",
			"min":[0.150000006
			],
			"max":[0.150000006
			]
		},
		{
			"bufferView":19,
			"componentType":5126,
			"count":4864,
			"type":"VEC3",
			"min":[3.13043451,0,6.2608695
			],
			"max":[3.13043451,0,6.2608695
			]
		},
		{
			"bufferView":20,
			"componentType":5126,
			"count":4864,
			"type":"SCALAR",
			"min":[0.15200001
			],
			"max":[0.15200001
			]
		},
		{
			"bufferView":21,
			"componentType":5123,
			"count":930,
			"type":"SCALAR",
			"min":[0
			],
			"max":[519
			]
		},
		{
			"bufferView":22,
			"componentType":5126,
			"count":520,
			"type":"VEC3",
			"min":[-3.39887261,1.89283895,-3.61451578
			],
			"max":[3.4880836,8.07023335,1.34722304
			]
		},
		{
			"bufferView":23,
			"componentType":5126,
			"count":520,
			"type":"VEC2",
			"min":[0,1
			],
			"max":[0,1
			]
		},
		{
			"bufferView":24,
			"componentType":5126,
			"count":520,
			"type":"VEC3",
			"min":[-1,-1,-1
			],
			"max":[1,1,1
			]
		},
		{
			"bufferView":25,
			"componentType":5126,
			"count":520,
			"type":"SCALAR",
			"min":[0.150000006
			],
			"max":[0.150000006
			]
		},
		{
			"bufferView":26,
			"componentType":5126,
			"count":520,
			"type":"VEC3",
			"min":[3.13043451,0,6.2608695
			],
			"max":[3.13043451,0,6.2608695
			]
		},
		{
			"bufferView":27,
			"componentType":5126,
			"count":520,
			"type":"SCALAR",
			"min":[0.15200001
			],
			"max":[0.15200001
			]
		},
		{
			"bufferView":28,
			"componentType":5125,
			"count":106032,
			"type":"SCALAR",
			"min":[0
			],
			"max":[27890
			]
		},
		{
			"bufferView":29,
			"componentType":5126,
			"count":27891,
			"type":"VEC3",
			"min":[-6.85709143,-3.09023333,-6.95373106
			],
			"max":[6.85709143,-0.522811174,6.95373106
			]
		},
		{
			"bufferView":30,
			"componentType":5126,
			"count":27891,
			"type":"VEC2",
			"min":[0,-0.0394368172
			],
			"max":[1,1
			]
		},
		{
			"bufferView":31,
			"componentType":5126,
			"count":27891,
			"type":"VEC3",
			"min":[-1,-1,-1
			],
			"max":[1,1,1
			]
		},
		{
			"bufferView":32,
			"componentType":5126,
			"count":27891,
			"type":"SCALAR",
			"min":[0.150000006
			],
			"max":[0.150000006
			]
		},
		{
			"bufferView":33,
			"componentType":5126,
			"count":27891,
			"type":"VEC3",
			"min":[3.13043451,0,6.2608695
			],
			"max":[3.13043451,0,6.2608695
			]
		},
		{
			"bufferView":34,
			"componentType":5126,
			"count":27891,
			"type":"SCALAR",
			"min":[0.15200001
			],
			"max":[0.15200001
			]
		},
		{
			"bufferView":35,
			"componentType":5123,
			"count":9876,
			"type":"SCALAR",
			"min":[0
			],
			"max":[2423
			]
		},
		{
			"bufferView":36,
			"componentType":5126,
			"count":2424,
			"type":"VEC3",
			"min":[-5.92930746,-1.50716114,-5.92582035
			],
			"max":[5.30112791,6.46283865,4.97852802
			]
		},
		{
			"bufferView":37,
			"componentType":5126,
			"count":2424,
			"type":"VEC2",
			"min":[0,1
			],
			"max":[0,1
			]
		},
		{
			"bufferView":38,
			"componentType":5126,
			"count":2424,
			"type":"VEC3",
			"min":[-1,-1,-1
			],
			"max":[1,1,1
			]
		},
		{
			"bufferView":39,
			"componentType":5126,
			"count":2424,
			"type":"SCALAR",
			"min":[0.150000006
			],
			"max":[0.150000006
			]
		},
		{
			"bufferView":40,
			"componentType":5126,
			"count":2424,
			"type":"VEC3",
			"min":[3.13043451,0,6.2608695
			],
			"max":[3.13043451,0,6.2608695
			]
		},
		{
			"bufferView":41,
			"componentType":5126,
			"count":2424,
			"type":"SCALAR",
			"min":[0.15200001
			],
			"max":[0.15200001
			]
		},
		{
			"bufferView":42,
			"componentType":5125,
			"count":58224,
			"type":"SCALAR",
			"min":[0
			],
			"max":[18359
			]
		},
		{
			"bufferView":43,
			"componentType":5126,
			"count":18360,
			"type":"VEC3",
			"min":[-5.98039436,-1.5307225,-5.97690725
			],
			"max":[5.32112741,8.09023285,5.02461481
			]
		},
		{
			"bufferView":44,
			"componentType":5126,
			"count":18360,
			"type":"VEC2",
			"min":[0,1
			],
			"max":[0,1
			]
		},
		{
			"bufferView":45,
			"componentType":5126,
			"count":18360,
			"type":"VEC3",
			"min":[-1,-1,-1
			],
			"max":[1,1,1
			]
		},
		{
			"bufferView":46,
			"componentType":5126,
			"count":18360,
			"type":"SCALAR",
			"min":[0.150000006
			],
			"max":[0.150000006
			]
		},
		{
			"bufferView":47,
			"componentType":5126,
			"count":18360,
			"type":"VEC3",
			"min":[3.13043451,0,6.2608695
			],
			"max":[3.13043451,0,6.2608695
			]
		},
		{
			"bufferView":48,
			"componentType":5126,
			"count":18360,
			"type":"SCALAR",
			"min":[0.15200001
			],
			"max":[0.15200001
			]
		},
		{
			"bufferView":49,
			"componentType":5123,
			"count":7896,
			"type":"SCALAR",
			"min":[0
			],
			"max":[5263
			]
		},
		{
			"bufferView":50,
			"componentType":5126,
			"count":5264,
			"type":"VEC3",
			"min":[-3.89053774,-1.50716126,-4.4001894
			],
			"max":[5.05112791,6.4528389,4.01113605
			]
		},
		{
			"bufferView":51,
			"componentType":5126,
			"count":5264,
			"type":"VEC2",
			"min":[0,1
			],
			"max":[0,1
			]
		},
		{
			"bufferView":52,
			"componentType":5126,
			"count":5264,
			"type":"VEC3",
			"min":[-1,-7.32400736e-07,-1
			],
			"max":[1,7.3240011e-07,1
			]
		},
		{
			"bufferView":53,
			"componentType":5126,
			"count":5264,
			"type":"SCALAR",
			"min":[0.150000006
			],
			"max":[0.150000006
			]
		},
		{
			"bufferView":54,
			"componentType":5126,
			"count":5264,
			"type":"VEC3",
			"min":[3.13043451,0,6.2608695
			],
			"max":[3.13043451,0,6.2608695
			]
		},
		{
			"bufferView":55,
			"componentType":5126,
			"count":5264,
			"type":"SCALAR",
			"min":[0.15200001
			],
			"max":[0.15200001
			]
		},
		{
			"bufferView":56,
			"componentType":5123,
			"count":1200,
			"type":"SCALAR",
			"min":[0
			],
			"max":[767
			]
		},
		{
			"bufferView":57,
			"componentType":5126,
			"count":768,
			"type":"VEC3",
			"min":[-4.94258165,-1.50114119,3.4087317
			],
			"max":[-1.75081611,-0.227161169,5.03528023
			]
		},
		{
			"bufferView":58,
			"componentType":5126,
			"count":768,
			"type":"VEC2",
			"min":[0,1
			],
			"max":[0,1
			]
		},
		{
			"bufferView":59,
			"componentType":5126,
			"count":768,
			"type":"VEC3",
			"min":[-1,-1,-1
			],
			"max":[1,1,1
			]
		},
		{
			"bufferView":60,
			"componentType":5126,
			"count":768,
			"type":"SCALAR",
			"min":[0.150000006
			],
			"max":[0.150000006
			]
		},
		{
			"bufferView":61,
			"componentType":5126,
			"count":768,
			"type":"VEC3",
			"min":[3.13043451,0,6.2608695
			],
			"max":[3.13043451,0,6.2608695
			]
		},
		{
			"bufferView":62,
			"componentType":5126,
			"count":768,
			"type":"SCALAR",
			"min":[0.15200001
			],
			"max":[0.15200001
			]
		}
	],
	"buffers":[
		{
			"uri":"factory_data.bin",
			"byteLength":4115128,
			"name":"main_buffer"
		}
	],
	"bufferViews":[
		{
			"buffer":0,
			"byteLength":13800,
			"target":34963
		},
		{
			"buffer":0,
			"byteOffset":13800,
			"byteLength":16128,
			"target":34962
		},
		{
			"buffer":0,
			"byteOffset":29928,
			"byteLength":10752,
			"target":34962
		},
		{
			"buffer":0,
			"byteOffset":40680,
			"byteLength":16128,
			"target":34962
		},
		{
			"buffer":0,
			"byteOffset":56808,
			"byteLength":5376,
			"target":34962
		},
		{
			"buffer":0,
			"byteOffset":62184,
			"byteLength":16128,
			"target":34962
		},
		{
			"buffer":0,
			"byteOffset":78312,
			"byteLength":5376,
			"target":34962
		},
		{
			"buffer":0,
			"byteOffset":83688,
			"byteLength":21240,
			"target":34963
		},
		{
			"buffer":0,
			"byteOffset":104928,
			"byteLength":30240,
			"target":34962
		},
		{
			"buffer":0,
			"byteOffset":135168,
			"byteLength":20160,
			"target":34962
		},
		{
			"buffer":0,
			"byteOffset":155328,
			"byteLength":30240,
			"target":34962
		},
		{
			"buffer":0,
			"byteOffset":185568,
			"byteLength":10080,
			"target":34962
		},
		{
			"buffer":0,
			"byteOffset":195648,
			"byteLength":30240,
			"target":34962
		},
		{
			"buffer":0,
			"byteOffset":225888,
			"byteLength":10080,
			"target":34962
		},
		{
			"buffer":0,
			"byteOffset":235968,
			"byteLength":57600,
			"target":34963
		},
		{
			"buffer":0,
			"byteOffset":293568,
			"byteLength":58368,
			"target":34962
		},
		{
			"buffer":0,
			"byteOffset":351936,
			"byteLength":38912,
			"target":34962
		},
		{
			"buffer":0,
			"byteOffset":390848,
			"byteLength":58368,
			"target":34962
		},
		{
			"buffer":0,
			"byteOffset":449216,
			"byteLength":19456,
			"target":34962
		},
		{
			"buffer":0,
			"byteOffset":468672,
			"byteLength":58368,
			"target":34962
		},
		{
			"buffer":0,
			"byteOffset":527040,
			"byteLength":19456,
			"target":34962
		},
		{
			"buffer":0,
			"byteOffset":546496,
			"byteLength":1860,
			"target":34963
		},
		{
			"buffer":0,
			"byteOffset":548356,
			"byteLength":6240,
			"target":34962
		},
		{
			"buffer":0,
			"byteOffset":554596,
			"byteLength":4160,
			"target":34962
		},
		{
			"buffer":0,
			"byteOffset":558756,
			"byteLength":6240,
			"target":34962
		},
		{
			"buffer":0,
			"byteOffset":564996,
			"byteLength":2080,
			"target":34962
		},
		{
			"buffer":0,
			"byteOffset":567076,
			"byteLength":6240,
			"target":34962
		},
		{
			"buffer":0,
			"byteOffset":573316,
			"byteLength":2080,
			"target":34962
		},
		{
			"buffer":0,
			"byteOffset":575396,
			"byteLength":424128,
			"target":34963
		},
		{
			"buffer":0,
			"byteOffset":999524,
			"byteLength":334692,
			"target":34962
		},
		{
			"buffer":0,
			"byteOffset":1334216,
			"byteLength":223128,
			"target":34962
		},
		{
			"buffer":0,
			"byteOffset":1557344,
			"byteLength":334692,
			"target":34962
		},
		{
			"buffer":0,
			"byteOffset":1892036,
			"byteLength":111564,
			"target":34962
		},
		{
			"buffer":0,
			"byteOffset":2003600,
			"byteLength":334692,
			"target":34962
		},
		{
			"buffer":0,
			"byteOffset":2338292,
			"byteLength":111564,
			"target":34962
		},
		{
			"buffer":0,
			"byteOffset":2449856,
			"byteLength":19752,
			"target":34963
		},
		{
			"buffer":0,
			"byteOffset":2469608,
			"byteLength":29088,
			"target":34962
		},
		{
			"buffer":0,
			"byteOffset":2498696,
			"byteLength":19392,
			"target":34962
		},
		{
			"buffer":0,
			"byteOffset":2518088,
			"byteLength":29088,
			"target":34962
		},
		{
			"buffer":0,
			"byteOffset":2547176,
			"byteLength":9696,
			"target":34962
		},
		{
			"buffer":0,
			"byteOffset":2556872,
			"byteLength":29088,
			"target":34962
		},
		{
			"buffer":0,
			"byteOffset":2585960,
			"byteLength":9696,
			"target":34962
		},
		{
			"buffer":0,
			"byteOffset":2595656,
			"byteLength":232896,
			"target":34963
		},
		{
			"buffer":0,
			"byteOffset":2828552,
			"byteLength":220320,
			"target":34962
		},
		{
			"buffer":0,
			"byteOffset":3048872,
			"byteLength":146880,
			"target":34962
		},
		{
			"buffer":0,
			"byteOffset":3195752,
			"byteLength":220320,
			"target":34962
		},
		{
			"buffer":0,
			"byteOffset":3416072,
			"byteLength":73440,
			"target":34962
		},
		{
			"buffer":0,
			"byteOffset":3489512,
			"byteLength":220320,
			"target":34962
		},
		{
			"buffer":0,
			"byteOffset":3709832,
			"byteLength":73440,
			"target":34962
		},
		{
			"buffer":0,
			"byteOffset":3783272,
			"byteLength":15792,
			"target":34963
		},
		{
			"buffer":0,
			"byteOffset":3799064,
			"byteLength":63168,
			"target":34962
		},
		{
			"buffer":0,
			"byteOffset":3862232,
			"byteLength":42112,
			"target":34962
		},
		{
			"buffer":0,
			"byteOffset":3904344,
			"byteLength":63168,
			"target":34962
		},
		{
			"buffer":0,
			"byteOffset":3967512,
			"byteLength":21056,
			"target":34962
		},
		{
			"buffer":0,
			"byteOffset":3988568,
			"byteLength":63168,
			"target":34962
		},
		{
			"buffer":0,
			"byteOffset":4051736,
			"byteLength":21056,
			"target":34962
		},
		{
			"buffer":0,
			"byteOffset":4072792,
			"byteLength":2400,
			"target":34963
		},
		{
			"buffer":0,
			"byteOffset":4075192,
			"byteLength":9216,
			"target":34962
		},
		{
			"buffer":0,
			"byteOffset":4084408,
			"byteLength":6144,
			"target":34962
		},
		{
			"buffer":0,
			"byteOffset":4090552,
			"byteLength":9216,
			"target":34962
		},
		{
			"buffer":0,
			"byteOffset":4099768,
			"byteLength":3072,
			"target":34962
		},
		{
			"buffer":0,
			"byteOffset":4102840,
			"byteLength":9216,
			"target":34962
		},
		{
			"buffer":0,
			"byteOffset":4112056,
			"byteLength":3072,
			"target":34962
		}
	],
	"nodes":[
		{
			"name":"factory",
			"mesh":0
		}
	],
	"meshes":[
		{
			"primitives":[
				{
					"attributes":{
						"_platformHeight":6,
						"_bbox":5,
						"NORMAL":3,
						"TEXCOORD_0":2,
						"_frameHeight":4,
						"POSITION":1
					},
					"indices":0,
					"material":0
				},
				{
					"attributes":{
						"_platformHeight":13,
						"_bbox":12,
						"NORMAL":10,
						"TEXCOORD_0":9,
						"_frameHeight":11,
						"POSITION":8
					},
					"indices":7,
					"material":1
				},
				{
					"attributes":{
						"_platformHeight":20,
						"_bbox":19,
						"NORMAL":17,
						"TEXCOORD_0":16,
						"_frameHeight":18,
						"POSITION":15
					},
					"indices":14,
					"material":2
				},
				{
					"attributes":{
						"_platformHeight":27,
						"_bbox":26,
						"NORMAL":24,
						"TEXCOORD_0":23,
						"_frameHeight":25,
						"POSITION":22
					},
					"indices":21,
					"material":3
				},
				{
					"attributes":{
						"_platformHeight":34,
						"_bbox":33,
						"NORMAL":31,
						"TEXCOORD_0":30,
						"_frameHeight":32,
						"POSITION":29
					},
					"indices":28,
					"material":4
				},
				{
					"attributes":{
						"_platformHeight":41,
						"_bbox":40,
						"NORMAL":38,
						"TEXCOORD_0":37,
						"_frameHeight":39,
						"POSITION":36
					},
					"indices":35,
					"material":5
				},
				{
					"attributes":{
						"_platformHeight":48,
						"_bbox":47,
						"NORMAL":45,
						"TEXCOORD_0":44,
						"_frameHeight":46,
						"POSITION":43
					},
					"indices":42,
					"material":6
				},
				{
					"attributes":{
						"_platformHeight":55,
						"_bbox":54,
						"NORMAL":52,
						"TEXCOORD_0":51,
						"_frameHeight":53,
						"POSITION":50
					},
					"indices":49,
					"material":7
				},
				{
					"attributes":{
						"_platformHeight":62,
						"_bbox":61,
						"NORMAL":59,
						"TEXCOORD_0":58,
						"_frameHeight":60,
						"POSITION":57
					},
					"indices":56
				}
			],
			"name":"OUT_ASSEMBLY"
		}
	],
	"materials":[
		{
			"name":"plane",
			"pbrMetallicRoughness":{
				"baseColorFactor":[0.899999976,0.899999976,0.899999976,1
				],
				"metallicFactor":0.100000001,
				"roughnessFactor":0.600000024
			}
		},
		{
			"name":"peakTube",
			"pbrMetallicRoughness":{
				"baseColorFactor":[0.75,0.75,0.75,1
				],
				"metallicFactor":0,
				"roughnessFactor":0.800000012
			}
		},
		{
			"name":"crate",
			"pbrMetallicRoughness":{
				"baseColorFactor":[1,0.5,0,1
				],
				"metallicFactor":0,
				"roughnessFactor":0.300000012
			}
		},
		{
			"name":"roofDetail",
			"pbrMetallicRoughness":{
				"metallicFactor":0.100000001,
				"roughnessFactor":0.600000024
			}
		},
		{
			"name":"pipe",
			"pbrMetallicRoughness":{
				"baseColorFactor":[0.5,0.5,0.5,1
				],
				"metallicFactor":0.699999988,
				"roughnessFactor":0.100000001
			}
		},
		{
			"name":"platform",
			"pbrMetallicRoughness":{
				"baseColorFactor":[0.75,0.75,0.75,1
				],
				"metallicFactor":0.600000024,
				"roughnessFactor":0.600000024
			}
		},
		{
			"name":"rail",
			"pbrMetallicRoughness":{
				"baseColorFactor":[0.5,0.5,0.5,1
				],
				"metallicFactor":0.5,
				"roughnessFactor":0.100000001
			}
		},
		{
			"name":"wall",
			"pbrMetallicRoughness":{
				"metallicFactor":0.100000001,
				"roughnessFactor":0.600000024
			}
		}
	],
	"scenes":[
		{
			"nodes":[0
			]
		}
	],
	"scene":0
}
