{
	"asset":{
		"version":"2.0",
		"generator":"Houdini GLTF 2.0 Exporter"
	},
	"accessors":[
		{
			"bufferView":0,
			"componentType":5125,
			"count":261294,
			"type":"SCALAR",
			"min":[0
			],
			"max":[43393
			]
		},
		{
			"bufferView":1,
			"componentType":5126,
			"count":43394,
			"type":"VEC3",
			"min":[-7.5,-6.73526192,-7.37509155
			],
			"max":[5.34267044,5.3024826,7.37509155
			]
		},
		{
			"bufferView":2,
			"componentType":5126,
			"count":43394,
			"type":"VEC3",
			"min":[0.00484927092,0,0.00120866077
			],
			"max":[0.948793948,0.944391012,0.391577154
			]
		},
		{
			"bufferView":3,
			"componentType":5126,
			"count":43394,
			"type":"VEC3",
			"min":[-0.999993205,-0.99999851,-0.999990642
			],
			"max":[0.999957144,0.999979973,0.999996483
			]
		},
		{
			"bufferView":4,
			"componentType":5125,
			"count":91689,
			"type":"SCALAR",
			"min":[0
			],
			"max":[17102
			]
		},
		{
			"bufferView":5,
			"componentType":5126,
			"count":17103,
			"type":"VEC3",
			"min":[1.13362789,-0.940784931,-3.37526679
			],
			"max":[5.79258537,5.09377193,3.24231768
			]
		},
		{
			"bufferView":6,
			"componentType":5126,
			"count":17103,
			"type":"VEC3",
			"min":[1,1,1
			],
			"max":[1,1,1
			]
		},
		{
			"bufferView":7,
			"componentType":5126,
			"count":17103,
			"type":"VEC3",
			"min":[-0.999266148,-0.989751577,-0.999653399
			],
			"max":[0.999026418,0.989670694,0.999703407
			]
		},
		{
			"bufferView":8,
			"componentType":5123,
			"count":10014,
			"type":"SCALAR",
			"min":[0
			],
			"max":[2789
			]
		},
		{
			"bufferView":9,
			"componentType":5126,
			"count":2790,
			"type":"VEC3",
			"min":[2.09961557,-0.368793726,-3.59618878
			],
			"max":[6.31519127,5.57696152,3.46318698
			]
		},
		{
			"bufferView":10,
			"componentType":5126,
			"count":2790,
			"type":"VEC3",
			"min":[1,1,1
			],
			"max":[1,1,1
			]
		},
		{
			"bufferView":11,
			"componentType":5126,
			"count":2790,
			"type":"VEC3",
			"min":[-0.999750078,-0.99946636,-0.999919891
			],
			"max":[0.91742909,0.827814937,0.999919355
			]
		},
		{
			"bufferView":12,
			"componentType":5123,
			"count":32628,
			"type":"SCALAR",
			"min":[0
			],
			"max":[7381
			]
		},
		{
			"bufferView":13,
			"componentType":5126,
			"count":7382,
			"type":"VEC3",
			"min":[0.318562746,-1.97179675,-4.40757942
			],
			"max":[7.5,6.73526192,4.2745924
			]
		},
		{
			"bufferView":14,
			"componentType":5126,
			"count":7382,
			"type":"VEC3",
			"min":[1,1,1
			],
			"max":[1,1,1
			]
		},
		{
			"bufferView":15,
			"componentType":5126,
			"count":7382,
			"type":"VEC3",
			"min":[-0.996741652,-0.996537209,-1
			],
			"max":[0.996733844,0.999783337,1
			]
		}
	],
	"buffers":[
		{
			"uri":"pressureValve_data.bin",
			"byteLength":4041300,
			"name":"main_buffer"
		}
	],
	"bufferViews":[
		{
			"buffer":0,
			"byteLength":1045176,
			"target":34963
		},
		{
			"buffer":0,
			"byteOffset":1045176,
			"byteLength":520728,
			"target":34962
		},
		{
			"buffer":0,
			"byteOffset":1565904,
			"byteLength":520728,
			"target":34962
		},
		{
			"buffer":0,
			"byteOffset":2086632,
			"byteLength":520728,
			"target":34962
		},
		{
			"buffer":0,
			"byteOffset":2607360,
			"byteLength":366756,
			"target":34963
		},
		{
			"buffer":0,
			"byteOffset":2974116,
			"byteLength":205236,
			"target":34962
		},
		{
			"buffer":0,
			"byteOffset":3179352,
			"byteLength":205236,
			"target":34962
		},
		{
			"buffer":0,
			"byteOffset":3384588,
			"byteLength":205236,
			"target":34962
		},
		{
			"buffer":0,
			"byteOffset":3589824,
			"byteLength":20028,
			"target":34963
		},
		{
			"buffer":0,
			"byteOffset":3609852,
			"byteLength":33480,
			"target":34962
		},
		{
			"buffer":0,
			"byteOffset":3643332,
			"byteLength":33480,
			"target":34962
		},
		{
			"buffer":0,
			"byteOffset":3676812,
			"byteLength":33480,
			"target":34962
		},
		{
			"buffer":0,
			"byteOffset":3710292,
			"byteLength":65256,
			"target":34963
		},
		{
			"buffer":0,
			"byteOffset":3775548,
			"byteLength":88584,
			"target":34962
		},
		{
			"buffer":0,
			"byteOffset":3864132,
			"byteLength":88584,
			"target":34962
		},
		{
			"buffer":0,
			"byteOffset":3952716,
			"byteLength":88584,
			"target":34962
		}
	],
	"nodes":[
		{
			"name":"comp",
			"mesh":0
		}
	],
	"meshes":[
		{
			"primitives":[
				{
					"attributes":{
						"NORMAL":3,
						"COLOR_0":2,
						"POSITION":1
					},
					"indices":0,
					"material":0
				},
				{
					"attributes":{
						"NORMAL":7,
						"COLOR_0":6,
						"POSITION":5
					},
					"indices":4,
					"material":1
				},
				{
					"attributes":{
						"NORMAL":11,
						"COLOR_0":10,
						"POSITION":9
					},
					"indices":8,
					"material":2
				},
				{
					"attributes":{
						"NORMAL":15,
						"COLOR_0":14,
						"POSITION":13
					},
					"indices":12,
					"material":3
				}
			],
			"name":"output0"
		}
	],
	"materials":[
		{
			"name":"phenolic",
			"pbrMetallicRoughness":{
				"metallicFactor":0.100000001,
				"roughnessFactor":0.5
			}
		},
		{
			"name":"shinyMetal",
			"pbrMetallicRoughness":{
				"metallicFactor":0.5,
				"roughnessFactor":0.300000012
			}
		},
		{
			"name":"pipe",
			"pbrMetallicRoughness":{
				"baseColorFactor":[0.75,0.75,0.75,1
				],
				"metallicFactor":0.800000012,
				"roughnessFactor":0.600000024
			}
		},
		{
			"name":"unobtanium",
			"pbrMetallicRoughness":{
				"baseColorFactor":[0.443500012,0.465999991,0.510999978,1
				],
				"metallicFactor":0.300000012,
				"roughnessFactor":0.300000012
			}
		}
	],
	"scenes":[
		{
			"nodes":[0
			]
		}
	],
	"scene":0
}
