{
	"asset":{
		"version":"2.0",
		"generator":"Houdini GLTF 2.0 Exporter"
	},
	"accessors":[
		{
			"bufferView":0,
			"componentType":5125,
			"count":177360,
			"type":"SCALAR",
			"min":[0
			],
			"max":[29839
			]
		},
		{
			"bufferView":1,
			"componentType":5126,
			"count":29840,
			"type":"VEC3",
			"min":[-5,-2.86120868,-4.79501915
			],
			"max":[5,2.86120892,4.79501915
			]
		},
		{
			"bufferView":2,
			"componentType":5126,
			"count":29840,
			"type":"VEC3",
			"min":[0.666700006,0.666700006,0.666700006
			],
			"max":[0.666700006,0.666700006,0.666700006
			]
		},
		{
			"bufferView":3,
			"componentType":5126,
			"count":29840,
			"type":"VEC3",
			"min":[-0.999953568,-0.728551567,-0.999957681
			],
			"max":[0.999983728,1,0.999983907
			]
		}
	],
	"buffers":[
		{
			"uri":"mia_data.bin",
			"byteLength":1783680,
			"name":"main_buffer"
		}
	],
	"bufferViews":[
		{
			"buffer":0,
			"byteLength":709440,
			"target":34963
		},
		{
			"buffer":0,
			"byteOffset":709440,
			"byteLength":358080,
			"target":34962
		},
		{
			"buffer":0,
			"byteOffset":1067520,
			"byteLength":358080,
			"target":34962
		},
		{
			"buffer":0,
			"byteOffset":1425600,
			"byteLength":358080,
			"target":34962
		}
	],
	"nodes":[
		{
			"name":"COMP",
			"mesh":0
		}
	],
	"meshes":[
		{
			"primitives":[
				{
					"attributes":{
						"NORMAL":3,
						"COLOR_0":2,
						"POSITION":1
					},
					"indices":0,
					"material":0
				}
			],
			"name":"OUT_COMP"
		}
	],
	"materials":[
		{
			"name":"unobtanuimSplash",
			"pbrMetallicRoughness":{
				"metallicFactor":0,
				"roughnessFactor":0.600000024
			}
		}
	],
	"scenes":[
		{
			"nodes":[0
			]
		}
	],
	"scene":0
}
