{
	"asset":{
		"version":"2.0",
		"generator":"Houdini GLTF 2.0 Exporter"
	},
	"accessors":[
		{
			"bufferView":0,
			"componentType":5125,
			"count":124278,
			"type":"SCALAR",
			"min":[0
			],
			"max":[23386
			]
		},
		{
			"bufferView":1,
			"componentType":5126,
			"count":23387,
			"type":"VEC3",
			"min":[-5,-2.137146,-5
			],
			"max":[5,-1.51147974,5
			]
		},
		{
			"bufferView":2,
			"componentType":5126,
			"count":23387,
			"type":"VEC3",
			"min":[-1,-1,-1
			],
			"max":[1,1,1
			]
		},
		{
			"bufferView":3,
			"componentType":5123,
			"count":3828,
			"type":"SCALAR",
			"min":[0
			],
			"max":[1279
			]
		},
		{
			"bufferView":4,
			"componentType":5126,
			"count":1280,
			"type":"VEC3",
			"min":[-5,-3.45647955,-5
			],
			"max":[5,-2.13647985,5
			]
		},
		{
			"bufferView":5,
			"componentType":5126,
			"count":1280,
			"type":"VEC3",
			"min":[-1,-1,-1
			],
			"max":[1,1,1
			]
		},
		{
			"bufferView":6,
			"componentType":5125,
			"count":678036,
			"type":"SCALAR",
			"min":[0
			],
			"max":[135608
			]
		},
		{
			"bufferView":7,
			"componentType":5126,
			"count":135609,
			"type":"VEC3",
			"min":[-2.35722041,-0.610979676,-2.02773643
			],
			"max":[2.35722041,3.45647955,2.02773643
			]
		},
		{
			"bufferView":8,
			"componentType":5126,
			"count":135609,
			"type":"VEC3",
			"min":[-0.999996543,-0.999991655,-0.999996245
			],
			"max":[0.999994695,0.999984562,0.999992132
			]
		},
		{
			"bufferView":9,
			"componentType":5123,
			"count":768,
			"type":"SCALAR",
			"min":[0
			],
			"max":[255
			]
		},
		{
			"bufferView":10,
			"componentType":5126,
			"count":256,
			"type":"VEC3",
			"min":[-3.83327913,-1.64097965,-3.83327913
			],
			"max":[3.83327913,-1.64097965,3.83327913
			]
		},
		{
			"bufferView":11,
			"componentType":5126,
			"count":256,
			"type":"VEC3",
			"min":[-0.137323201,0.990526199,-0.137323201
			],
			"max":[0.137323201,0.99197799,0.137323216
			]
		}
	],
	"buffers":[
		{
			"uri":"unobtanium_data.bin",
			"byteLength":7071216,
			"name":"main_buffer"
		}
	],
	"bufferViews":[
		{
			"buffer":0,
			"byteLength":497112,
			"target":34963
		},
		{
			"buffer":0,
			"byteOffset":497112,
			"byteLength":280644,
			"target":34962
		},
		{
			"buffer":0,
			"byteOffset":777756,
			"byteLength":280644,
			"target":34962
		},
		{
			"buffer":0,
			"byteOffset":1058400,
			"byteLength":7656,
			"target":34963
		},
		{
			"buffer":0,
			"byteOffset":1066056,
			"byteLength":15360,
			"target":34962
		},
		{
			"buffer":0,
			"byteOffset":1081416,
			"byteLength":15360,
			"target":34962
		},
		{
			"buffer":0,
			"byteOffset":1096776,
			"byteLength":2712144,
			"target":34963
		},
		{
			"buffer":0,
			"byteOffset":3808920,
			"byteLength":1627308,
			"target":34962
		},
		{
			"buffer":0,
			"byteOffset":5436228,
			"byteLength":1627308,
			"target":34962
		},
		{
			"buffer":0,
			"byteOffset":7063536,
			"byteLength":1536,
			"target":34963
		},
		{
			"buffer":0,
			"byteOffset":7065072,
			"byteLength":3072,
			"target":34962
		},
		{
			"buffer":0,
			"byteOffset":7068144,
			"byteLength":3072,
			"target":34962
		}
	],
	"nodes":[
		{
			"name":"comp",
			"mesh":0
		}
	],
	"meshes":[
		{
			"primitives":[
				{
					"attributes":{
						"NORMAL":2,
						"POSITION":1
					},
					"indices":0,
					"material":0
				},
				{
					"attributes":{
						"NORMAL":5,
						"POSITION":4
					},
					"indices":3,
					"material":1
				},
				{
					"attributes":{
						"NORMAL":8,
						"POSITION":7
					},
					"indices":6,
					"material":2
				},
				{
					"attributes":{
						"NORMAL":11,
						"POSITION":10
					},
					"indices":9,
					"material":3
				}
			],
			"name":"output0"
		}
	],
	"materials":[
		{
			"name":"plastic",
			"pbrMetallicRoughness":{
				"baseColorFactor":[0.347490013,0.362331241,0.405000001,1
				],
				"metallicFactor":0.300000012,
				"roughnessFactor":0.200000003
			}
		},
		{
			"name":"metal",
			"pbrMetallicRoughness":{
				"baseColorFactor":[0.26700002,0.27579999,0.300000012,1
				],
				"metallicFactor":0.300000012,
				"roughnessFactor":0.200000003
			}
		},
		{
			"name":"unobtanium",
			"pbrMetallicRoughness":{
				"baseColorFactor":[0.5,0.5,0.5,1
				],
				"metallicFactor":0.300000012,
				"roughnessFactor":0.300000012
			}
		},
		{
			"name":"glow",
			"pbrMetallicRoughness":{
				"baseColorFactor":[0,0.5,1,1
				],
				"metallicFactor":0,
				"roughnessFactor":0.300000012
			},
			"emissiveFactor":[0,5,10
			]
		}
	],
	"scenes":[
		{
			"nodes":[0
			]
		}
	],
	"scene":0
}
