{
	"asset":{
		"version":"2.0",
		"generator":"Houdini GLTF 2.0 Exporter"
	},
	"accessors":[
		{
			"bufferView":0,
			"componentType":5125,
			"count":124278,
			"type":"SCALAR",
			"min":[0
			],
			"max":[23386
			]
		},
		{
			"bufferView":1,
			"componentType":5126,
			"count":23387,
			"type":"VEC3",
			"min":[-5,-1.21607232,-5
			],
			"max":[5,-0.590406179,5
			]
		},
		{
			"bufferView":2,
			"componentType":5126,
			"count":23387,
			"type":"VEC3",
			"min":[-1,-1,-1
			],
			"max":[1,1,1
			]
		},
		{
			"bufferView":3,
			"componentType":5123,
			"count":3828,
			"type":"SCALAR",
			"min":[0
			],
			"max":[1279
			]
		},
		{
			"bufferView":4,
			"componentType":5126,
			"count":1280,
			"type":"VEC3",
			"min":[-5,-2.53540611,-5
			],
			"max":[5,-1.21540618,5
			]
		},
		{
			"bufferView":5,
			"componentType":5126,
			"count":1280,
			"type":"VEC3",
			"min":[-1,-1,-1
			],
			"max":[1,1,1
			]
		},
		{
			"bufferView":6,
			"componentType":5125,
			"count":933714,
			"type":"SCALAR",
			"min":[0
			],
			"max":[200455
			]
		},
		{
			"bufferView":7,
			"componentType":5126,
			"count":200456,
			"type":"VEC3",
			"min":[-2.49610949,0.31009388,-2.13151097
			],
			"max":[2.49610949,4.53540611,2.13151097
			]
		},
		{
			"bufferView":8,
			"componentType":5126,
			"count":200456,
			"type":"VEC3",
			"min":[-0.999998033,-0.999981999,-0.99999994
			],
			"max":[0.999982655,0.999993861,0.999988377
			]
		},
		{
			"bufferView":9,
			"componentType":5123,
			"count":768,
			"type":"SCALAR",
			"min":[0
			],
			"max":[255
			]
		},
		{
			"bufferView":10,
			"componentType":5126,
			"count":256,
			"type":"VEC3",
			"min":[-3.83327913,-0.719906092,-3.83327913
			],
			"max":[3.83327913,-0.719906092,3.83327913
			]
		},
		{
			"bufferView":11,
			"componentType":5126,
			"count":256,
			"type":"VEC3",
			"min":[-0.137323201,0.990526199,-0.137323201
			],
			"max":[0.137323201,0.99197799,0.137323216
			]
		}
	],
	"buffers":[
		{
			"uri":"unobtanium_data.bin",
			"byteLength":9650256,
			"name":"main_buffer"
		}
	],
	"bufferViews":[
		{
			"buffer":0,
			"byteLength":497112,
			"target":34963
		},
		{
			"buffer":0,
			"byteOffset":497112,
			"byteLength":280644,
			"target":34962
		},
		{
			"buffer":0,
			"byteOffset":777756,
			"byteLength":280644,
			"target":34962
		},
		{
			"buffer":0,
			"byteOffset":1058400,
			"byteLength":7656,
			"target":34963
		},
		{
			"buffer":0,
			"byteOffset":1066056,
			"byteLength":15360,
			"target":34962
		},
		{
			"buffer":0,
			"byteOffset":1081416,
			"byteLength":15360,
			"target":34962
		},
		{
			"buffer":0,
			"byteOffset":1096776,
			"byteLength":3734856,
			"target":34963
		},
		{
			"buffer":0,
			"byteOffset":4831632,
			"byteLength":2405472,
			"target":34962
		},
		{
			"buffer":0,
			"byteOffset":7237104,
			"byteLength":2405472,
			"target":34962
		},
		{
			"buffer":0,
			"byteOffset":9642576,
			"byteLength":1536,
			"target":34963
		},
		{
			"buffer":0,
			"byteOffset":9644112,
			"byteLength":3072,
			"target":34962
		},
		{
			"buffer":0,
			"byteOffset":9647184,
			"byteLength":3072,
			"target":34962
		}
	],
	"nodes":[
		{
			"name":"comp",
			"mesh":0
		}
	],
	"meshes":[
		{
			"primitives":[
				{
					"attributes":{
						"NORMAL":2,
						"POSITION":1
					},
					"indices":0,
					"material":0
				},
				{
					"attributes":{
						"NORMAL":5,
						"POSITION":4
					},
					"indices":3,
					"material":1
				},
				{
					"attributes":{
						"NORMAL":8,
						"POSITION":7
					},
					"indices":6,
					"material":2
				},
				{
					"attributes":{
						"NORMAL":11,
						"POSITION":10
					},
					"indices":9,
					"material":3
				}
			],
			"name":"output0"
		}
	],
	"materials":[
		{
			"name":"plastic",
			"pbrMetallicRoughness":{
				"baseColorFactor":[0.347490013,0.362331241,0.405000001,1
				],
				"metallicFactor":0.300000012,
				"roughnessFactor":0.200000003
			}
		},
		{
			"name":"metal",
			"pbrMetallicRoughness":{
				"baseColorFactor":[0.26700002,0.27579999,0.300000012,1
				],
				"metallicFactor":0.300000012,
				"roughnessFactor":0.200000003
			}
		},
		{
			"name":"unobtanium",
			"pbrMetallicRoughness":{
				"baseColorFactor":[0.5,0.5,0.5,1
				],
				"metallicFactor":0.300000012,
				"roughnessFactor":0.300000012
			}
		},
		{
			"name":"glow",
			"pbrMetallicRoughness":{
				"baseColorFactor":[0,0.5,1,1
				],
				"metallicFactor":0,
				"roughnessFactor":0.300000012
			},
			"emissiveFactor":[0,5,10
			]
		}
	],
	"scenes":[
		{
			"nodes":[0
			]
		}
	],
	"scene":0
}
