{
	"asset":{
		"version":"2.0",
		"generator":"Houdini GLTF 2.0 Exporter"
	},
	"accessors":[
		{
			"bufferView":0,
			"componentType":5123,
			"count":15096,
			"type":"SCALAR",
			"min":[0
			],
			"max":[3081
			]
		},
		{
			"bufferView":1,
			"componentType":5126,
			"count":3082,
			"type":"VEC3",
			"min":[-1.45907295,3.74453235,-1.79621851
			],
			"max":[1.45908844,4.09477377,1.12195539
			]
		},
		{
			"bufferView":2,
			"componentType":5126,
			"count":3082,
			"type":"VEC3",
			"min":[1,1,1
			],
			"max":[1,1,1
			]
		},
		{
			"bufferView":3,
			"componentType":5126,
			"count":3082,
			"type":"VEC3",
			"min":[-0.999829471,-1,-0.999830961
			],
			"max":[0.999830246,1,0.999829888
			]
		},
		{
			"bufferView":4,
			"componentType":5125,
			"count":304128,
			"type":"SCALAR",
			"min":[0
			],
			"max":[50492
			]
		},
		{
			"bufferView":5,
			"componentType":5126,
			"count":50493,
			"type":"VEC3",
			"min":[-7.49999952,-4.30499792,-3.35926557
			],
			"max":[7.49999952,2.49166703,3.35926557
			]
		},
		{
			"bufferView":6,
			"componentType":5126,
			"count":50493,
			"type":"VEC3",
			"min":[3.17692757e-05,0,0
			],
			"max":[1,0.999364495,1
			]
		},
		{
			"bufferView":7,
			"componentType":5126,
			"count":50493,
			"type":"VEC3",
			"min":[-0.999994397,-0.99997437,-0.999954462
			],
			"max":[0.999985695,0.999957263,0.999930143
			]
		},
		{
			"bufferView":8,
			"componentType":5125,
			"count":50814,
			"type":"SCALAR",
			"min":[0
			],
			"max":[15940
			]
		},
		{
			"bufferView":9,
			"componentType":5126,
			"count":15941,
			"type":"VEC3",
			"min":[-2.04306197,-2.23071027,-1.95992041
			],
			"max":[2.04307723,1.53792262,1.28564477
			]
		},
		{
			"bufferView":10,
			"componentType":5126,
			"count":15941,
			"type":"VEC3",
			"min":[1,1,1
			],
			"max":[1,1,1
			]
		},
		{
			"bufferView":11,
			"componentType":5126,
			"count":15941,
			"type":"VEC3",
			"min":[-1,-1,-1
			],
			"max":[1,1,1
			]
		},
		{
			"bufferView":12,
			"componentType":5125,
			"count":44016,
			"type":"SCALAR",
			"min":[0
			],
			"max":[19807
			]
		},
		{
			"bufferView":13,
			"componentType":5126,
			"count":19808,
			"type":"VEC3",
			"min":[-1.0678066,0.265556097,-1.40495217
			],
			"max":[1.0678221,3.74453235,0.730676532
			]
		},
		{
			"bufferView":14,
			"componentType":5126,
			"count":19808,
			"type":"VEC3",
			"min":[1,1,1
			],
			"max":[1,1,1
			]
		},
		{
			"bufferView":15,
			"componentType":5126,
			"count":19808,
			"type":"VEC3",
			"min":[-0.995577395,-1,-0.999528646
			],
			"max":[0.999976516,1,0.999528646
			]
		},
		{
			"bufferView":16,
			"componentType":5123,
			"count":27465,
			"type":"SCALAR",
			"min":[0
			],
			"max":[9895
			]
		},
		{
			"bufferView":17,
			"componentType":5126,
			"count":9896,
			"type":"VEC3",
			"min":[-1.53718257,0.826041758,-1.70168984
			],
			"max":[1.53719807,3.34961343,1.02742124
			]
		},
		{
			"bufferView":18,
			"componentType":5126,
			"count":9896,
			"type":"VEC3",
			"min":[1,1,1
			],
			"max":[1,1,1
			]
		},
		{
			"bufferView":19,
			"componentType":5126,
			"count":9896,
			"type":"VEC3",
			"min":[-1,-1,-1
			],
			"max":[1,1,1
			]
		}
	],
	"buffers":[
		{
			"uri":"stopValve_data.bin",
			"byteLength":5252876,
			"name":"main_buffer"
		}
	],
	"bufferViews":[
		{
			"buffer":0,
			"byteLength":30192,
			"target":34963
		},
		{
			"buffer":0,
			"byteOffset":30192,
			"byteLength":36984,
			"target":34962
		},
		{
			"buffer":0,
			"byteOffset":67176,
			"byteLength":36984,
			"target":34962
		},
		{
			"buffer":0,
			"byteOffset":104160,
			"byteLength":36984,
			"target":34962
		},
		{
			"buffer":0,
			"byteOffset":141144,
			"byteLength":1216512,
			"target":34963
		},
		{
			"buffer":0,
			"byteOffset":1357656,
			"byteLength":605916,
			"target":34962
		},
		{
			"buffer":0,
			"byteOffset":1963572,
			"byteLength":605916,
			"target":34962
		},
		{
			"buffer":0,
			"byteOffset":2569488,
			"byteLength":605916,
			"target":34962
		},
		{
			"buffer":0,
			"byteOffset":3175404,
			"byteLength":203256,
			"target":34963
		},
		{
			"buffer":0,
			"byteOffset":3378660,
			"byteLength":191292,
			"target":34962
		},
		{
			"buffer":0,
			"byteOffset":3569952,
			"byteLength":191292,
			"target":34962
		},
		{
			"buffer":0,
			"byteOffset":3761244,
			"byteLength":191292,
			"target":34962
		},
		{
			"buffer":0,
			"byteOffset":3952536,
			"byteLength":176064,
			"target":34963
		},
		{
			"buffer":0,
			"byteOffset":4128600,
			"byteLength":237696,
			"target":34962
		},
		{
			"buffer":0,
			"byteOffset":4366296,
			"byteLength":237696,
			"target":34962
		},
		{
			"buffer":0,
			"byteOffset":4603992,
			"byteLength":237696,
			"target":34962
		},
		{
			"buffer":0,
			"byteOffset":4841688,
			"byteLength":54930,
			"target":34963
		},
		{
			"buffer":0,
			"byteOffset":4896620,
			"byteLength":118752,
			"target":34962
		},
		{
			"buffer":0,
			"byteOffset":5015372,
			"byteLength":118752,
			"target":34962
		},
		{
			"buffer":0,
			"byteOffset":5134124,
			"byteLength":118752,
			"target":34962
		}
	],
	"nodes":[
		{
			"name":"comp",
			"mesh":0
		}
	],
	"meshes":[
		{
			"primitives":[
				{
					"attributes":{
						"NORMAL":3,
						"COLOR_0":2,
						"POSITION":1
					},
					"indices":0,
					"material":0
				},
				{
					"attributes":{
						"NORMAL":7,
						"COLOR_0":6,
						"POSITION":5
					},
					"indices":4,
					"material":1
				},
				{
					"attributes":{
						"NORMAL":11,
						"COLOR_0":10,
						"POSITION":9
					},
					"indices":8,
					"material":2
				},
				{
					"attributes":{
						"NORMAL":15,
						"COLOR_0":14,
						"POSITION":13
					},
					"indices":12,
					"material":3
				},
				{
					"attributes":{
						"NORMAL":19,
						"COLOR_0":18,
						"POSITION":17
					},
					"indices":16,
					"material":4
				}
			],
			"name":"output0"
		}
	],
	"materials":[
		{
			"name":"plasticOrange",
			"pbrMetallicRoughness":{
				"baseColorFactor":[0.5,0.25,0.5,1
				],
				"metallicFactor":0,
				"roughnessFactor":0.300000012
			}
		},
		{
			"name":"unobtanuimSplash",
			"pbrMetallicRoughness":{
				"metallicFactor":0.100000001,
				"roughnessFactor":0.400000006
			}
		},
		{
			"name":"unobtanium",
			"pbrMetallicRoughness":{
				"baseColorFactor":[0.507619917,0.477348387,0.550000012,1
				],
				"metallicFactor":0.300000012,
				"roughnessFactor":0.300000012
			}
		},
		{
			"name":"pipe",
			"pbrMetallicRoughness":{
				"baseColorFactor":[0.666700006,0.666700006,0.666700006,1
				],
				"metallicFactor":0.600000024,
				"roughnessFactor":0.400000006
			}
		},
		{
			"name":"pipeLight",
			"pbrMetallicRoughness":{
				"baseColorFactor":[0.850000024,0.850000024,0.850000024,1
				],
				"metallicFactor":0.600000024,
				"roughnessFactor":0.400000006
			}
		}
	],
	"scenes":[
		{
			"nodes":[0
			]
		}
	],
	"scene":0
}
