{
	"asset":{
		"version":"2.0",
		"generator":"Houdini GLTF 2.0 Exporter"
	},
	"accessors":[
		{
			"bufferView":0,
			"componentType":5125,
			"count":241566,
			"type":"SCALAR",
			"min":[0
			],
			"max":[40017
			]
		},
		{
			"bufferView":1,
			"componentType":5126,
			"count":40018,
			"type":"VEC3",
			"min":[-0.959344149,-5.34756947,-2.56077933
			],
			"max":[5.35497761,7.5,2.56077933
			]
		},
		{
			"bufferView":2,
			"componentType":5126,
			"count":40018,
			"type":"VEC3",
			"min":[0,0.0224462114,0.899999976
			],
			"max":[0.930208921,0.993020892,0.993020892
			]
		},
		{
			"bufferView":3,
			"componentType":5126,
			"count":40018,
			"type":"VEC3",
			"min":[-0.999968648,-0.999935925,-0.999986172
			],
			"max":[0.999921918,0.999890745,0.999997616
			]
		},
		{
			"bufferView":4,
			"componentType":5125,
			"count":206853,
			"type":"SCALAR",
			"min":[0
			],
			"max":[34248
			]
		},
		{
			"bufferView":5,
			"componentType":5126,
			"count":34249,
			"type":"VEC3",
			"min":[-5.35497761,-7.5,-2.45123053
			],
			"max":[-0.231047451,-0.106282085,2.4226613
			]
		},
		{
			"bufferView":6,
			"componentType":5126,
			"count":34249,
			"type":"VEC3",
			"min":[0,0.0145598575,0.0647065118
			],
			"max":[0.979824126,0.805098772,0.899999976
			]
		},
		{
			"bufferView":7,
			"componentType":5126,
			"count":34249,
			"type":"VEC3",
			"min":[-0.999955177,-0.999996126,-0.999987543
			],
			"max":[0.999955058,0.999889791,0.999960959
			]
		},
		{
			"bufferView":8,
			"componentType":5123,
			"count":384,
			"type":"SCALAR",
			"min":[0
			],
			"max":[239
			]
		},
		{
			"bufferView":9,
			"componentType":5126,
			"count":240,
			"type":"VEC3",
			"min":[3.19842315,-2.94908381,-1.90970063
			],
			"max":[3.42776108,0.759911954,1.79759395
			]
		},
		{
			"bufferView":10,
			"componentType":5126,
			"count":240,
			"type":"VEC3",
			"min":[1,1,1
			],
			"max":[1,1,1
			]
		},
		{
			"bufferView":11,
			"componentType":5126,
			"count":240,
			"type":"VEC3",
			"min":[-0.0109885642,-0.99992162,-0.99997431
			],
			"max":[0.999943078,0.999919474,0.999979675
			]
		},
		{
			"bufferView":12,
			"componentType":5123,
			"count":4212,
			"type":"SCALAR",
			"min":[0
			],
			"max":[1279
			]
		},
		{
			"bufferView":13,
			"componentType":5126,
			"count":1280,
			"type":"VEC3",
			"min":[-3.25674105,-3.46091986,-1.54242039
			],
			"max":[2.93047237,3.67498541,1.43052268
			]
		},
		{
			"bufferView":14,
			"componentType":5126,
			"count":1280,
			"type":"VEC3",
			"min":[1,1,1
			],
			"max":[1,1,1
			]
		},
		{
			"bufferView":15,
			"componentType":5126,
			"count":1280,
			"type":"VEC3",
			"min":[-0.825330853,-0.825330853,-1
			],
			"max":[0.825330853,0.825330853,1
			]
		},
		{
			"bufferView":16,
			"componentType":5125,
			"count":65337,
			"type":"SCALAR",
			"min":[0
			],
			"max":[16325
			]
		},
		{
			"bufferView":17,
			"componentType":5126,
			"count":16326,
			"type":"VEC3",
			"min":[-3.7740469,-3.79435992,-2.21761417
			],
			"max":[3.44777822,4.00842476,2.10550737
			]
		},
		{
			"bufferView":18,
			"componentType":5126,
			"count":16326,
			"type":"VEC3",
			"min":[1,1,1
			],
			"max":[1,1,1
			]
		},
		{
			"bufferView":19,
			"componentType":5126,
			"count":16326,
			"type":"VEC3",
			"min":[-0.999946535,-0.999940336,-0.999999881
			],
			"max":[0.999948084,0.999949515,1
			]
		},
		{
			"bufferView":20,
			"componentType":5123,
			"count":5313,
			"type":"SCALAR",
			"min":[0
			],
			"max":[2300
			]
		},
		{
			"bufferView":21,
			"componentType":5126,
			"count":2301,
			"type":"VEC3",
			"min":[-4.54980087,-6.48808765,-2.06973863
			],
			"max":[5.05424118,5.86301994,1.7398994
			]
		},
		{
			"bufferView":22,
			"componentType":5126,
			"count":2301,
			"type":"VEC3",
			"min":[0,0.0599256121,0.11166086
			],
			"max":[1,1,1
			]
		},
		{
			"bufferView":23,
			"componentType":5126,
			"count":2301,
			"type":"VEC3",
			"min":[-0.99996233,-0.999976635,-1
			],
			"max":[0.999999285,0.999976516,1
			]
		}
	],
	"buffers":[
		{
			"uri":"filter_data.bin",
			"byteLength":5473748,
			"name":"main_buffer"
		}
	],
	"bufferViews":[
		{
			"buffer":0,
			"byteLength":966264,
			"target":34963
		},
		{
			"buffer":0,
			"byteOffset":966264,
			"byteLength":480216,
			"target":34962
		},
		{
			"buffer":0,
			"byteOffset":1446480,
			"byteLength":480216,
			"target":34962
		},
		{
			"buffer":0,
			"byteOffset":1926696,
			"byteLength":480216,
			"target":34962
		},
		{
			"buffer":0,
			"byteOffset":2406912,
			"byteLength":827412,
			"target":34963
		},
		{
			"buffer":0,
			"byteOffset":3234324,
			"byteLength":410988,
			"target":34962
		},
		{
			"buffer":0,
			"byteOffset":3645312,
			"byteLength":410988,
			"target":34962
		},
		{
			"buffer":0,
			"byteOffset":4056300,
			"byteLength":410988,
			"target":34962
		},
		{
			"buffer":0,
			"byteOffset":4467288,
			"byteLength":768,
			"target":34963
		},
		{
			"buffer":0,
			"byteOffset":4468056,
			"byteLength":2880,
			"target":34962
		},
		{
			"buffer":0,
			"byteOffset":4470936,
			"byteLength":2880,
			"target":34962
		},
		{
			"buffer":0,
			"byteOffset":4473816,
			"byteLength":2880,
			"target":34962
		},
		{
			"buffer":0,
			"byteOffset":4476696,
			"byteLength":8424,
			"target":34963
		},
		{
			"buffer":0,
			"byteOffset":4485120,
			"byteLength":15360,
			"target":34962
		},
		{
			"buffer":0,
			"byteOffset":4500480,
			"byteLength":15360,
			"target":34962
		},
		{
			"buffer":0,
			"byteOffset":4515840,
			"byteLength":15360,
			"target":34962
		},
		{
			"buffer":0,
			"byteOffset":4531200,
			"byteLength":261348,
			"target":34963
		},
		{
			"buffer":0,
			"byteOffset":4792548,
			"byteLength":195912,
			"target":34962
		},
		{
			"buffer":0,
			"byteOffset":4988460,
			"byteLength":195912,
			"target":34962
		},
		{
			"buffer":0,
			"byteOffset":5184372,
			"byteLength":195912,
			"target":34962
		},
		{
			"buffer":0,
			"byteOffset":5380284,
			"byteLength":10626,
			"target":34963
		},
		{
			"buffer":0,
			"byteOffset":5390912,
			"byteLength":27612,
			"target":34962
		},
		{
			"buffer":0,
			"byteOffset":5418524,
			"byteLength":27612,
			"target":34962
		},
		{
			"buffer":0,
			"byteOffset":5446136,
			"byteLength":27612,
			"target":34962
		}
	],
	"nodes":[
		{
			"name":"comp",
			"mesh":0
		}
	],
	"meshes":[
		{
			"primitives":[
				{
					"attributes":{
						"NORMAL":3,
						"COLOR_0":2,
						"POSITION":1
					},
					"indices":0,
					"material":0
				},
				{
					"attributes":{
						"NORMAL":7,
						"COLOR_0":6,
						"POSITION":5
					},
					"indices":4,
					"material":1
				},
				{
					"attributes":{
						"NORMAL":11,
						"COLOR_0":10,
						"POSITION":9
					},
					"indices":8,
					"material":2
				},
				{
					"attributes":{
						"NORMAL":15,
						"COLOR_0":14,
						"POSITION":13
					},
					"indices":12,
					"material":3
				},
				{
					"attributes":{
						"NORMAL":19,
						"COLOR_0":18,
						"POSITION":17
					},
					"indices":16,
					"material":4
				},
				{
					"attributes":{
						"NORMAL":23,
						"COLOR_0":22,
						"POSITION":21
					},
					"indices":20
				}
			],
			"name":"output0"
		}
	],
	"materials":[
		{
			"name":"phenolic",
			"pbrMetallicRoughness":{
				"metallicFactor":0.100000001,
				"roughnessFactor":0.5
			}
		},
		{
			"name":"unobtaniumSplash",
			"pbrMetallicRoughness":{
				"metallicFactor":0.300000012,
				"roughnessFactor":0.300000012
			}
		},
		{
			"name":"shinyMetal",
			"pbrMetallicRoughness":{
				"metallicFactor":0.5,
				"roughnessFactor":0.300000012
			}
		},
		{
			"name":"pipe",
			"pbrMetallicRoughness":{
				"baseColorFactor":[0.5,0.5,0.5,1
				],
				"metallicFactor":0.800000012,
				"roughnessFactor":0.600000024
			}
		},
		{
			"name":"unobtanium",
			"pbrMetallicRoughness":{
				"baseColorFactor":[0.443500012,0.479499996,0.510999978,1
				],
				"metallicFactor":0.300000012,
				"roughnessFactor":0.300000012
			}
		}
	],
	"scenes":[
		{
			"nodes":[0
			]
		}
	],
	"scene":0
}
