{
	"asset":{
		"version":"2.0",
		"generator":"Houdini GLTF 2.0 Exporter"
	},
	"accessors":[
		{
			"bufferView":0,
			"componentType":5125,
			"count":263820,
			"type":"SCALAR",
			"min":[0
			],
			"max":[43882
			]
		},
		{
			"bufferView":1,
			"componentType":5126,
			"count":43883,
			"type":"VEC3",
			"min":[-7.5,-4.85042095,-3.8330884
			],
			"max":[7.5,2.65041685,3.8330884
			]
		},
		{
			"bufferView":2,
			"componentType":5126,
			"count":43883,
			"type":"VEC3",
			"min":[0.0093730716,0,0.0615671389
			],
			"max":[1.00611556,0.958820224,0.509605527
			]
		},
		{
			"bufferView":3,
			"componentType":5126,
			"count":43883,
			"type":"VEC3",
			"min":[-0.999813378,-0.999992669,-0.999963701
			],
			"max":[0.999921679,0.999971926,0.999998331
			]
		},
		{
			"bufferView":4,
			"componentType":5125,
			"count":170925,
			"type":"SCALAR",
			"min":[0
			],
			"max":[30649
			]
		},
		{
			"bufferView":5,
			"componentType":5126,
			"count":30650,
			"type":"VEC3",
			"min":[-2.50429797,-3.66355133,-2.41632891
			],
			"max":[2.4815321,3.73794413,2.63972282
			]
		},
		{
			"bufferView":6,
			"componentType":5126,
			"count":30650,
			"type":"VEC3",
			"min":[1,1,1
			],
			"max":[1,1,1
			]
		},
		{
			"bufferView":7,
			"componentType":5126,
			"count":30650,
			"type":"VEC3",
			"min":[-1,-1,-1
			],
			"max":[1,1,1
			]
		},
		{
			"bufferView":8,
			"componentType":5123,
			"count":4092,
			"type":"SCALAR",
			"min":[0
			],
			"max":[715
			]
		},
		{
			"bufferView":9,
			"componentType":5126,
			"count":716,
			"type":"VEC3",
			"min":[-5.60393476,4.69593,-0.169194609
			],
			"max":[-2.55907249,4.85042095,0.392588884
			]
		},
		{
			"bufferView":10,
			"componentType":5126,
			"count":716,
			"type":"VEC3",
			"min":[1,1,1
			],
			"max":[1,1,1
			]
		},
		{
			"bufferView":11,
			"componentType":5126,
			"count":716,
			"type":"VEC3",
			"min":[-0.99832046,-0.997854531,-0.997943342
			],
			"max":[1,0.997930348,0.997943342
			]
		},
		{
			"bufferView":12,
			"componentType":5123,
			"count":2352,
			"type":"SCALAR",
			"min":[0
			],
			"max":[783
			]
		},
		{
			"bufferView":13,
			"componentType":5126,
			"count":784,
			"type":"VEC3",
			"min":[-2.53940678,-2.87354708,-1.62632072
			],
			"max":[2.51664495,0.602289081,1.8495127
			]
		},
		{
			"bufferView":14,
			"componentType":5126,
			"count":784,
			"type":"VEC3",
			"min":[1,1,1
			],
			"max":[1,1,1
			]
		},
		{
			"bufferView":15,
			"componentType":5126,
			"count":784,
			"type":"VEC3",
			"min":[-1,-1,-1
			],
			"max":[1,0.999883771,0.999883771
			]
		},
		{
			"bufferView":16,
			"componentType":5123,
			"count":16944,
			"type":"SCALAR",
			"min":[0
			],
			"max":[9804
			]
		},
		{
			"bufferView":17,
			"componentType":5126,
			"count":9805,
			"type":"VEC3",
			"min":[-2.55907249,-3.1953373,-1.90735281
			],
			"max":[1.5071162,4.80828857,2.13074684
			]
		},
		{
			"bufferView":18,
			"componentType":5126,
			"count":9805,
			"type":"VEC3",
			"min":[1,1,1
			],
			"max":[1,1,1
			]
		},
		{
			"bufferView":19,
			"componentType":5126,
			"count":9805,
			"type":"VEC3",
			"min":[-1,-1,-1
			],
			"max":[1,1,1
			]
		},
		{
			"bufferView":20,
			"componentType":5123,
			"count":2424,
			"type":"SCALAR",
			"min":[0
			],
			"max":[521
			]
		},
		{
			"bufferView":21,
			"componentType":5126,
			"count":522,
			"type":"VEC3",
			"min":[-2.53940678,-2.25889254,-1.01186979
			],
			"max":[2.51664495,-0.012162447,1.23526418
			]
		},
		{
			"bufferView":22,
			"componentType":5126,
			"count":522,
			"type":"VEC3",
			"min":[1,1,1
			],
			"max":[1,1,1
			]
		},
		{
			"bufferView":23,
			"componentType":5126,
			"count":522,
			"type":"VEC3",
			"min":[-0.301337928,-1,-1
			],
			"max":[0.301336646,1,1
			]
		}
	],
	"buffers":[
		{
			"uri":"ballValve_data.bin",
			"byteLength":4899564,
			"name":"main_buffer"
		}
	],
	"bufferViews":[
		{
			"buffer":0,
			"byteLength":1055280,
			"target":34963
		},
		{
			"buffer":0,
			"byteOffset":1055280,
			"byteLength":526596,
			"target":34962
		},
		{
			"buffer":0,
			"byteOffset":1581876,
			"byteLength":526596,
			"target":34962
		},
		{
			"buffer":0,
			"byteOffset":2108472,
			"byteLength":526596,
			"target":34962
		},
		{
			"buffer":0,
			"byteOffset":2635068,
			"byteLength":683700,
			"target":34963
		},
		{
			"buffer":0,
			"byteOffset":3318768,
			"byteLength":367800,
			"target":34962
		},
		{
			"buffer":0,
			"byteOffset":3686568,
			"byteLength":367800,
			"target":34962
		},
		{
			"buffer":0,
			"byteOffset":4054368,
			"byteLength":367800,
			"target":34962
		},
		{
			"buffer":0,
			"byteOffset":4422168,
			"byteLength":8184,
			"target":34963
		},
		{
			"buffer":0,
			"byteOffset":4430352,
			"byteLength":8592,
			"target":34962
		},
		{
			"buffer":0,
			"byteOffset":4438944,
			"byteLength":8592,
			"target":34962
		},
		{
			"buffer":0,
			"byteOffset":4447536,
			"byteLength":8592,
			"target":34962
		},
		{
			"buffer":0,
			"byteOffset":4456128,
			"byteLength":4704,
			"target":34963
		},
		{
			"buffer":0,
			"byteOffset":4460832,
			"byteLength":9408,
			"target":34962
		},
		{
			"buffer":0,
			"byteOffset":4470240,
			"byteLength":9408,
			"target":34962
		},
		{
			"buffer":0,
			"byteOffset":4479648,
			"byteLength":9408,
			"target":34962
		},
		{
			"buffer":0,
			"byteOffset":4489056,
			"byteLength":33888,
			"target":34963
		},
		{
			"buffer":0,
			"byteOffset":4522944,
			"byteLength":117660,
			"target":34962
		},
		{
			"buffer":0,
			"byteOffset":4640604,
			"byteLength":117660,
			"target":34962
		},
		{
			"buffer":0,
			"byteOffset":4758264,
			"byteLength":117660,
			"target":34962
		},
		{
			"buffer":0,
			"byteOffset":4875924,
			"byteLength":4848,
			"target":34963
		},
		{
			"buffer":0,
			"byteOffset":4880772,
			"byteLength":6264,
			"target":34962
		},
		{
			"buffer":0,
			"byteOffset":4887036,
			"byteLength":6264,
			"target":34962
		},
		{
			"buffer":0,
			"byteOffset":4893300,
			"byteLength":6264,
			"target":34962
		}
	],
	"nodes":[
		{
			"name":"comp",
			"mesh":0
		}
	],
	"meshes":[
		{
			"primitives":[
				{
					"attributes":{
						"NORMAL":3,
						"COLOR_0":2,
						"POSITION":1
					},
					"indices":0,
					"material":0
				},
				{
					"attributes":{
						"NORMAL":7,
						"COLOR_0":6,
						"POSITION":5
					},
					"indices":4,
					"material":1
				},
				{
					"attributes":{
						"NORMAL":11,
						"COLOR_0":10,
						"POSITION":9
					},
					"indices":8,
					"material":2
				},
				{
					"attributes":{
						"NORMAL":15,
						"COLOR_0":14,
						"POSITION":13
					},
					"indices":12,
					"material":3
				},
				{
					"attributes":{
						"NORMAL":19,
						"COLOR_0":18,
						"POSITION":17
					},
					"indices":16,
					"material":4
				},
				{
					"attributes":{
						"NORMAL":23,
						"COLOR_0":22,
						"POSITION":21
					},
					"indices":20
				}
			],
			"name":"output0"
		}
	],
	"materials":[
		{
			"name":"phenolicSplash",
			"pbrMetallicRoughness":{
				"metallicFactor":0.100000001,
				"roughnessFactor":0.5
			}
		},
		{
			"name":"unobtanium",
			"pbrMetallicRoughness":{
				"baseColorFactor":[0.477348387,0.501565576,0.550000012,1
				],
				"metallicFactor":0.300000012,
				"roughnessFactor":0.300000012
			}
		},
		{
			"name":"plasticBlue",
			"pbrMetallicRoughness":{
				"baseColorFactor":[0,0.5,1,1
				],
				"metallicFactor":0,
				"roughnessFactor":0.300000012
			}
		},
		{
			"name":"pipe",
			"pbrMetallicRoughness":{
				"baseColorFactor":[0.666700006,0.666700006,0.666700006,1
				],
				"metallicFactor":0.600000024,
				"roughnessFactor":0.400000006
			}
		},
		{
			"name":"pipeLight",
			"pbrMetallicRoughness":{
				"baseColorFactor":[0.850000024,0.850000024,0.850000024,1
				],
				"metallicFactor":0.600000024,
				"roughnessFactor":0.400000006
			}
		}
	],
	"scenes":[
		{
			"nodes":[0
			]
		}
	],
	"scene":0
}
