{
	"asset":{
		"version":"2.0",
		"generator":"Houdini GLTF 2.0 Exporter"
	},
	"accessors":[
		{
			"bufferView":0,
			"componentType":5121,
			"count":120,
			"type":"SCALAR",
			"min":[0
			],
			"max":[77
			]
		},
		{
			"bufferView":1,
			"componentType":5126,
			"count":78,
			"type":"VEC3",
			"min":[5.00966787,0.729492903,-1.28224456
			],
			"max":[5.21277332,0.912165642,-1.22842193
			]
		},
		{
			"bufferView":2,
			"componentType":5126,
			"count":78,
			"type":"VEC2",
			"min":[0,1
			],
			"max":[0,1
			]
		},
		{
			"bufferView":3,
			"componentType":5126,
			"count":78,
			"type":"VEC3",
			"min":[-0.679763675,-0.879656911,-0.777607858
			],
			"max":[0.856207192,0.87314862,0.998522162
			]
		},
		{
			"bufferView":4,
			"componentType":5123,
			"count":264,
			"type":"SCALAR",
			"min":[0
			],
			"max":[175
			]
		},
		{
			"bufferView":5,
			"componentType":5126,
			"count":176,
			"type":"VEC3",
			"min":[4.93429422,0.65309906,-1.44329607
			],
			"max":[5.22788429,0.93048501,-1.27594209
			]
		},
		{
			"bufferView":6,
			"componentType":5126,
			"count":176,
			"type":"VEC2",
			"min":[0,1
			],
			"max":[0,1
			]
		},
		{
			"bufferView":7,
			"componentType":5126,
			"count":176,
			"type":"VEC3",
			"min":[-0.839831471,-0.970532656,-0.988380492
			],
			"max":[0.950045407,0.977204263,0.629983187
			]
		},
		{
			"bufferView":8,
			"componentType":5123,
			"count":1932,
			"type":"SCALAR",
			"min":[0
			],
			"max":[1283
			]
		},
		{
			"bufferView":9,
			"componentType":5126,
			"count":1284,
			"type":"VEC3",
			"min":[4.66866875,0.290835857,-2.21245861
			],
			"max":[5.25169468,0.936685085,-1.20648658
			]
		},
		{
			"bufferView":10,
			"componentType":5126,
			"count":1284,
			"type":"VEC2",
			"min":[0,1
			],
			"max":[0,1
			]
		},
		{
			"bufferView":11,
			"componentType":5126,
			"count":1284,
			"type":"VEC3",
			"min":[-0.998593509,-0.998070061,-0.987149358
			],
			"max":[0.997700751,0.964533091,0.970333755
			]
		},
		{
			"bufferView":12,
			"componentType":5125,
			"count":287994,
			"type":"SCALAR",
			"min":[0
			],
			"max":[94704
			]
		},
		{
			"bufferView":13,
			"componentType":5126,
			"count":94705,
			"type":"VEC3",
			"min":[-1.00974154,1.5232501,-0.472086549
			],
			"max":[1.97107625,4.92241621,0.224047482
			]
		},
		{
			"bufferView":14,
			"componentType":5126,
			"count":94705,
			"type":"VEC2",
			"min":[0,1
			],
			"max":[0,1
			]
		},
		{
			"bufferView":15,
			"componentType":5126,
			"count":94705,
			"type":"VEC3",
			"min":[-0.999529183,-1,-0.999529183
			],
			"max":[0.999529123,1,0.999529183
			]
		},
		{
			"bufferView":16,
			"componentType":5123,
			"count":2520,
			"type":"SCALAR",
			"min":[0
			],
			"max":[1149
			]
		},
		{
			"bufferView":17,
			"componentType":5126,
			"count":1150,
			"type":"VEC3",
			"min":[-0.913526416,2.11555243,-0.441881448
			],
			"max":[1.87486088,4.81261778,0.193842143
			]
		},
		{
			"bufferView":18,
			"componentType":5126,
			"count":1150,
			"type":"VEC2",
			"min":[0,1
			],
			"max":[0,1
			]
		},
		{
			"bufferView":19,
			"componentType":5126,
			"count":1150,
			"type":"VEC3",
			"min":[-0.624705791,-0.38947469,-0.953652501
			],
			"max":[0.624705791,0.476087272,0.953652501
			]
		},
		{
			"bufferView":20,
			"componentType":5123,
			"count":2292,
			"type":"SCALAR",
			"min":[0
			],
			"max":[743
			]
		},
		{
			"bufferView":21,
			"componentType":5126,
			"count":744,
			"type":"VEC3",
			"min":[0.0656401515,0.633249998,-0.441117853
			],
			"max":[0.891237497,1.63325,0.195379555
			]
		},
		{
			"bufferView":22,
			"componentType":5126,
			"count":744,
			"type":"VEC2",
			"min":[0,1
			],
			"max":[0,1
			]
		},
		{
			"bufferView":23,
			"componentType":5126,
			"count":744,
			"type":"VEC3",
			"min":[-0.979015648,-1,-0.979015648
			],
			"max":[0.979015648,1,0.979015648
			]
		},
		{
			"bufferView":24,
			"componentType":5125,
			"count":98700,
			"type":"SCALAR",
			"min":[0
			],
			"max":[26136
			]
		},
		{
			"bufferView":25,
			"componentType":5126,
			"count":26137,
			"type":"VEC3",
			"min":[-5.42942524,-0.409561872,-5.45815659
			],
			"max":[5.42942524,1.45535755,5.45815659
			]
		},
		{
			"bufferView":26,
			"componentType":5126,
			"count":26137,
			"type":"VEC2",
			"min":[0,-1.97505093
			],
			"max":[1,1
			]
		},
		{
			"bufferView":27,
			"componentType":5126,
			"count":26137,
			"type":"VEC3",
			"min":[-0.999990225,-0.99995774,-0.999768615
			],
			"max":[0.999925673,0.999979973,0.999741912
			]
		},
		{
			"bufferView":28,
			"componentType":5125,
			"count":202887,
			"type":"SCALAR",
			"min":[0
			],
			"max":[67577
			]
		},
		{
			"bufferView":29,
			"componentType":5126,
			"count":67578,
			"type":"VEC3",
			"min":[-4.52055645,-4.92241621,-5.01661015
			],
			"max":[5.14642525,0.230324268,4.97012901
			]
		},
		{
			"bufferView":30,
			"componentType":5126,
			"count":67578,
			"type":"VEC2",
			"min":[0,1
			],
			"max":[0,1
			]
		},
		{
			"bufferView":31,
			"componentType":5126,
			"count":67578,
			"type":"VEC3",
			"min":[-0.999610484,-0.999967098,-0.999877155
			],
			"max":[0.999997497,0.993941426,0.998286426
			]
		},
		{
			"bufferView":32,
			"componentType":5125,
			"count":51195,
			"type":"SCALAR",
			"min":[0
			],
			"max":[10937
			]
		},
		{
			"bufferView":33,
			"componentType":5126,
			"count":10938,
			"type":"VEC3",
			"min":[-4.52301598,-0.0888590813,-5.00895309
			],
			"max":[5.14642525,0.893249989,4.98338985
			]
		},
		{
			"bufferView":34,
			"componentType":5126,
			"count":10938,
			"type":"VEC2",
			"min":[0,1
			],
			"max":[0,1
			]
		},
		{
			"bufferView":35,
			"componentType":5126,
			"count":10938,
			"type":"VEC3",
			"min":[-0.999975681,-0.996116281,-0.999856174
			],
			"max":[0.999773145,0.999998808,0.999935925
			]
		}
	],
	"buffers":[
		{
			"uri":"motherRussia_data.bin",
			"byteLength":9066520,
			"name":"main_buffer"
		}
	],
	"bufferViews":[
		{
			"buffer":0,
			"byteLength":120,
			"target":34963
		},
		{
			"buffer":0,
			"byteOffset":120,
			"byteLength":936,
			"target":34962
		},
		{
			"buffer":0,
			"byteOffset":1056,
			"byteLength":624,
			"target":34962
		},
		{
			"buffer":0,
			"byteOffset":1680,
			"byteLength":936,
			"target":34962
		},
		{
			"buffer":0,
			"byteOffset":2616,
			"byteLength":528,
			"target":34963
		},
		{
			"buffer":0,
			"byteOffset":3144,
			"byteLength":2112,
			"target":34962
		},
		{
			"buffer":0,
			"byteOffset":5256,
			"byteLength":1408,
			"target":34962
		},
		{
			"buffer":0,
			"byteOffset":6664,
			"byteLength":2112,
			"target":34962
		},
		{
			"buffer":0,
			"byteOffset":8776,
			"byteLength":3864,
			"target":34963
		},
		{
			"buffer":0,
			"byteOffset":12640,
			"byteLength":15408,
			"target":34962
		},
		{
			"buffer":0,
			"byteOffset":28048,
			"byteLength":10272,
			"target":34962
		},
		{
			"buffer":0,
			"byteOffset":38320,
			"byteLength":15408,
			"target":34962
		},
		{
			"buffer":0,
			"byteOffset":53728,
			"byteLength":1151976,
			"target":34963
		},
		{
			"buffer":0,
			"byteOffset":1205704,
			"byteLength":1136460,
			"target":34962
		},
		{
			"buffer":0,
			"byteOffset":2342164,
			"byteLength":757640,
			"target":34962
		},
		{
			"buffer":0,
			"byteOffset":3099804,
			"byteLength":1136460,
			"target":34962
		},
		{
			"buffer":0,
			"byteOffset":4236264,
			"byteLength":5040,
			"target":34963
		},
		{
			"buffer":0,
			"byteOffset":4241304,
			"byteLength":13800,
			"target":34962
		},
		{
			"buffer":0,
			"byteOffset":4255104,
			"byteLength":9200,
			"target":34962
		},
		{
			"buffer":0,
			"byteOffset":4264304,
			"byteLength":13800,
			"target":34962
		},
		{
			"buffer":0,
			"byteOffset":4278104,
			"byteLength":4584,
			"target":34963
		},
		{
			"buffer":0,
			"byteOffset":4282688,
			"byteLength":8928,
			"target":34962
		},
		{
			"buffer":0,
			"byteOffset":4291616,
			"byteLength":5952,
			"target":34962
		},
		{
			"buffer":0,
			"byteOffset":4297568,
			"byteLength":8928,
			"target":34962
		},
		{
			"buffer":0,
			"byteOffset":4306496,
			"byteLength":394800,
			"target":34963
		},
		{
			"buffer":0,
			"byteOffset":4701296,
			"byteLength":313644,
			"target":34962
		},
		{
			"buffer":0,
			"byteOffset":5014940,
			"byteLength":209096,
			"target":34962
		},
		{
			"buffer":0,
			"byteOffset":5224036,
			"byteLength":313644,
			"target":34962
		},
		{
			"buffer":0,
			"byteOffset":5537680,
			"byteLength":811548,
			"target":34963
		},
		{
			"buffer":0,
			"byteOffset":6349228,
			"byteLength":810936,
			"target":34962
		},
		{
			"buffer":0,
			"byteOffset":7160164,
			"byteLength":540624,
			"target":34962
		},
		{
			"buffer":0,
			"byteOffset":7700788,
			"byteLength":810936,
			"target":34962
		},
		{
			"buffer":0,
			"byteOffset":8511724,
			"byteLength":204780,
			"target":34963
		},
		{
			"buffer":0,
			"byteOffset":8716504,
			"byteLength":131256,
			"target":34962
		},
		{
			"buffer":0,
			"byteOffset":8847760,
			"byteLength":87504,
			"target":34962
		},
		{
			"buffer":0,
			"byteOffset":8935264,
			"byteLength":131256,
			"target":34962
		}
	],
	"nodes":[
		{
			"name":"motherRussia",
			"mesh":0
		}
	],
	"meshes":[
		{
			"primitives":[
				{
					"attributes":{
						"NORMAL":3,
						"TEXCOORD_0":2,
						"POSITION":1
					},
					"indices":0,
					"material":0
				},
				{
					"attributes":{
						"NORMAL":7,
						"TEXCOORD_0":6,
						"POSITION":5
					},
					"indices":4,
					"material":1
				},
				{
					"attributes":{
						"NORMAL":11,
						"TEXCOORD_0":10,
						"POSITION":9
					},
					"indices":8,
					"material":2
				},
				{
					"attributes":{
						"NORMAL":15,
						"TEXCOORD_0":14,
						"POSITION":13
					},
					"indices":12,
					"material":3
				},
				{
					"attributes":{
						"NORMAL":19,
						"TEXCOORD_0":18,
						"POSITION":17
					},
					"indices":16,
					"material":4
				},
				{
					"attributes":{
						"NORMAL":23,
						"TEXCOORD_0":22,
						"POSITION":21
					},
					"indices":20,
					"material":5
				},
				{
					"attributes":{
						"NORMAL":27,
						"TEXCOORD_0":26,
						"POSITION":25
					},
					"indices":24,
					"material":6
				},
				{
					"attributes":{
						"NORMAL":31,
						"TEXCOORD_0":30,
						"POSITION":29
					},
					"indices":28,
					"material":7
				},
				{
					"attributes":{
						"NORMAL":35,
						"TEXCOORD_0":34,
						"POSITION":33
					},
					"indices":32,
					"material":8
				}
			],
			"name":"OUT_MOTHER_RUSSIA"
		}
	],
	"materials":[
		{
			"name":"bearUshankaFront",
			"pbrMetallicRoughness":{
				"metallicFactor":0,
				"roughnessFactor":0.899999976
			}
		},
		{
			"name":"bearUshanka",
			"pbrMetallicRoughness":{
				"baseColorFactor":[1,0,0,1
				],
				"metallicFactor":0,
				"roughnessFactor":0.899999976
			}
		},
		{
			"name":"bearBody",
			"pbrMetallicRoughness":{
				"baseColorFactor":[0.365999997,0.182999998,0,1
				],
				"metallicFactor":0,
				"roughnessFactor":0.300000012
			}
		},
		{
			"name":"kremlinMetal",
			"pbrMetallicRoughness":{
				"baseColorFactor":[0.754999995,0.560625255,0.141184986,1
				],
				"metallicFactor":0.400000006,
				"roughnessFactor":0.300000012
			}
		},
		{
			"name":"kremlinStar",
			"pbrMetallicRoughness":{
				"baseColorFactor":[1,0,0,1
				],
				"metallicFactor":0,
				"roughnessFactor":0.300000012
			}
		},
		{
			"name":"kremlinStone",
			"pbrMetallicRoughness":{
				"baseColorFactor":[0.75,0.75,0.75,1
				],
				"metallicFactor":0,
				"roughnessFactor":0.300000012
			}
		},
		{
			"name":"pipe",
			"pbrMetallicRoughness":{
				"baseColorFactor":[0.666700006,0.666700006,0.666700006,1
				],
				"metallicFactor":0.75,
				"roughnessFactor":0.100000001
			}
		},
		{
			"name":"terrainSide",
			"pbrMetallicRoughness":{
				"baseColorFactor":[0.75,0.75,0.75,1
				],
				"metallicFactor":0.5,
				"roughnessFactor":0.400000006
			}
		},
		{
			"name":"terrainTop",
			"pbrMetallicRoughness":{
				"metallicFactor":0,
				"roughnessFactor":0.600000024
			}
		}
	],
	"scenes":[
		{
			"nodes":[0
			]
		}
	],
	"scene":0
}
