{
	"asset":{
		"version":"2.0",
		"generator":"Houdini GLTF 2.0 Exporter"
	},
	"accessors":[
		{
			"bufferView":0,
			"componentType":5125,
			"count":525672,
			"type":"SCALAR",
			"min":[0
			],
			"max":[96221
			]
		},
		{
			"bufferView":1,
			"componentType":5126,
			"count":96222,
			"type":"VEC3",
			"min":[-7.27915096,-7.34321117,-7.49999952
			],
			"max":[7.27915096,7.34321117,7.49999952
			]
		},
		{
			"bufferView":2,
			"componentType":5125,
			"count":96222,
			"type":"SCALAR",
			"min":[0
			],
			"max":[2
			]
		},
		{
			"bufferView":3,
			"componentType":5126,
			"count":96222,
			"type":"VEC3",
			"min":[0.254901975,0.180392146,0.992156863
			],
			"max":[0.670588136,0.737254977,1
			]
		},
		{
			"bufferView":4,
			"componentType":5126,
			"count":96222,
			"type":"VEC3",
			"min":[-0.999999106,-0.998893797,-1
			],
			"max":[0.999999106,0.998795569,1
			]
		}
	],
	"buffers":[
		{
			"uri":"accessories_data.bin",
			"byteLength":5951568,
			"name":"main_buffer"
		}
	],
	"bufferViews":[
		{
			"buffer":0,
			"byteLength":2102688,
			"target":34963
		},
		{
			"buffer":0,
			"byteOffset":2102688,
			"byteLength":1154664,
			"target":34962
		},
		{
			"buffer":0,
			"byteOffset":3257352,
			"byteLength":384888,
			"target":34962
		},
		{
			"buffer":0,
			"byteOffset":3642240,
			"byteLength":1154664,
			"target":34962
		},
		{
			"buffer":0,
			"byteOffset":4796904,
			"byteLength":1154664,
			"target":34962
		}
	],
	"nodes":[
		{
			"name":"comp",
			"mesh":0
		}
	],
	"meshes":[
		{
			"primitives":[
				{
					"attributes":{
						"NORMAL":4,
						"COLOR_0":3,
						"_class":2,
						"POSITION":1
					},
					"indices":0,
					"material":0
				}
			],
			"name":"OUT_COMP"
		}
	],
	"materials":[
		{
			"name":"plastic",
			"pbrMetallicRoughness":{
				"metallicFactor":0.300000012,
				"roughnessFactor":0.349999994
			}
		}
	],
	"scenes":[
		{
			"nodes":[0
			]
		}
	],
	"scene":0
}
