{
	"asset":{
		"version":"2.0",
		"generator":"Houdini GLTF 2.0 Exporter"
	},
	"accessors":[
		{
			"bufferView":0,
			"componentType":5125,
			"count":320286,
			"type":"SCALAR",
			"min":[0
			],
			"max":[240986
			]
		},
		{
			"bufferView":1,
			"componentType":5126,
			"count":240987,
			"type":"VEC3",
			"min":[-1.91367757,-5.01834488,-7.40590954
			],
			"max":[1.90311277,5.14531755,7.40590954
			]
		},
		{
			"bufferView":2,
			"componentType":5126,
			"count":240987,
			"type":"VEC3",
			"min":[1,1,1
			],
			"max":[1,1,1
			]
		},
		{
			"bufferView":3,
			"componentType":5126,
			"count":240987,
			"type":"VEC3",
			"min":[-1,-1,-1
			],
			"max":[1,1,1
			]
		},
		{
			"bufferView":4,
			"componentType":5125,
			"count":225840,
			"type":"SCALAR",
			"min":[0
			],
			"max":[37567
			]
		},
		{
			"bufferView":5,
			"componentType":5126,
			"count":37568,
			"type":"VEC3",
			"min":[-2.30372763,-4.98043489,-2.7466774
			],
			"max":[2.30372763,5.10869026,2.7466898
			]
		},
		{
			"bufferView":6,
			"componentType":5126,
			"count":37568,
			"type":"VEC3",
			"min":[1,1,1
			],
			"max":[1,1,1
			]
		},
		{
			"bufferView":7,
			"componentType":5126,
			"count":37568,
			"type":"VEC3",
			"min":[-1,-1,-1
			],
			"max":[1,1,1
			]
		},
		{
			"bufferView":8,
			"componentType":5125,
			"count":146244,
			"type":"SCALAR",
			"min":[0
			],
			"max":[24377
			]
		},
		{
			"bufferView":9,
			"componentType":5126,
			"count":24378,
			"type":"VEC3",
			"min":[-2.00145388,-5.14531755,-7.5
			],
			"max":[2.01654911,-1.1405921,7.5
			]
		},
		{
			"bufferView":10,
			"componentType":5126,
			"count":24378,
			"type":"VEC3",
			"min":[-0.00012308218,-0.000862938468,0.00111892191
			],
			"max":[0.951689363,0.945620418,0.394013464
			]
		},
		{
			"bufferView":11,
			"componentType":5126,
			"count":24378,
			"type":"VEC3",
			"min":[-0.999661744,-0.999982595,-0.999881446
			],
			"max":[0.999905765,0.99990803,0.999881446
			]
		}
	],
	"buffers":[
		{
			"uri":"gateValve_data.bin",
			"byteLength":13675068,
			"name":"main_buffer"
		}
	],
	"bufferViews":[
		{
			"buffer":0,
			"byteLength":1281144,
			"target":34963
		},
		{
			"buffer":0,
			"byteOffset":1281144,
			"byteLength":2891844,
			"target":34962
		},
		{
			"buffer":0,
			"byteOffset":4172988,
			"byteLength":2891844,
			"target":34962
		},
		{
			"buffer":0,
			"byteOffset":7064832,
			"byteLength":2891844,
			"target":34962
		},
		{
			"buffer":0,
			"byteOffset":9956676,
			"byteLength":903360,
			"target":34963
		},
		{
			"buffer":0,
			"byteOffset":10860036,
			"byteLength":450816,
			"target":34962
		},
		{
			"buffer":0,
			"byteOffset":11310852,
			"byteLength":450816,
			"target":34962
		},
		{
			"buffer":0,
			"byteOffset":11761668,
			"byteLength":450816,
			"target":34962
		},
		{
			"buffer":0,
			"byteOffset":12212484,
			"byteLength":584976,
			"target":34963
		},
		{
			"buffer":0,
			"byteOffset":12797460,
			"byteLength":292536,
			"target":34962
		},
		{
			"buffer":0,
			"byteOffset":13089996,
			"byteLength":292536,
			"target":34962
		},
		{
			"buffer":0,
			"byteOffset":13382532,
			"byteLength":292536,
			"target":34962
		}
	],
	"nodes":[
		{
			"name":"comp",
			"mesh":0
		}
	],
	"meshes":[
		{
			"primitives":[
				{
					"attributes":{
						"NORMAL":3,
						"COLOR_0":2,
						"POSITION":1
					},
					"indices":0,
					"material":0
				},
				{
					"attributes":{
						"NORMAL":7,
						"COLOR_0":6,
						"POSITION":5
					},
					"indices":4,
					"material":1
				},
				{
					"attributes":{
						"NORMAL":11,
						"COLOR_0":10,
						"POSITION":9
					},
					"indices":8,
					"material":2
				}
			],
			"name":"OUT_COMP"
		}
	],
	"materials":[
		{
			"name":"shinyMetal",
			"pbrMetallicRoughness":{
				"baseColorFactor":[0.5,0.5,0.5,1
				],
				"metallicFactor":0.400000006,
				"roughnessFactor":0.119999997
			}
		},
		{
			"name":"unobtanuim",
			"pbrMetallicRoughness":{
				"baseColorFactor":[0.5,0.5,0.5,1
				],
				"metallicFactor":0.300000012,
				"roughnessFactor":0.300000012
			}
		},
		{
			"name":"phenolic",
			"pbrMetallicRoughness":{
				"metallicFactor":0.300000012,
				"roughnessFactor":0.300000012
			}
		}
	],
	"scenes":[
		{
			"nodes":[0
			]
		}
	],
	"scene":0
}
