{
	"asset":{
		"version":"2.0",
		"generator":"Houdini GLTF 2.0 Exporter"
	},
	"accessors":[
		{
			"bufferView":0,
			"componentType":5125,
			"count":266706,
			"type":"SCALAR",
			"min":[0
			],
			"max":[191948
			]
		},
		{
			"bufferView":1,
			"componentType":5126,
			"count":191949,
			"type":"VEC3",
			"min":[-7.38757992,-4.95756435,-2.00420332
			],
			"max":[7.38757992,5.08839703,2.01288939
			]
		},
		{
			"bufferView":2,
			"componentType":5126,
			"count":191949,
			"type":"VEC3",
			"min":[1,1,1
			],
			"max":[1,1,1
			]
		},
		{
			"bufferView":3,
			"componentType":5126,
			"count":191949,
			"type":"VEC3",
			"min":[-1,-1,-1
			],
			"max":[1,1,1
			]
		},
		{
			"bufferView":4,
			"componentType":5125,
			"count":225840,
			"type":"SCALAR",
			"min":[0
			],
			"max":[37567
			]
		},
		{
			"bufferView":5,
			"componentType":5126,
			"count":37568,
			"type":"VEC3",
			"min":[-2.67460632,-4.77166271,-2.24327946
			],
			"max":[2.67461824,5.05273056,2.24327946
			]
		},
		{
			"bufferView":6,
			"componentType":5126,
			"count":37568,
			"type":"VEC3",
			"min":[0.214811772,0.00158364081,0.00509274937
			],
			"max":[0.948793948,0.882858455,0.385601252
			]
		},
		{
			"bufferView":7,
			"componentType":5126,
			"count":37568,
			"type":"VEC3",
			"min":[-1,-1,-1
			],
			"max":[1,1,1
			]
		},
		{
			"bufferView":8,
			"componentType":5125,
			"count":146244,
			"type":"SCALAR",
			"min":[0
			],
			"max":[24377
			]
		},
		{
			"bufferView":9,
			"componentType":5126,
			"count":24378,
			"type":"VEC3",
			"min":[-7.5,-5.08839703,-2.12071705
			],
			"max":[7.5,-0.876781046,2.10486221
			]
		},
		{
			"bufferView":10,
			"componentType":5126,
			"count":24378,
			"type":"VEC3",
			"min":[0.000307296461,0,0.00120666611
			],
			"max":[0.948793888,0.944415867,0.391577154
			]
		},
		{
			"bufferView":11,
			"componentType":5126,
			"count":24378,
			"type":"VEC3",
			"min":[-0.999881446,-0.999982595,-0.999905765
			],
			"max":[0.999881446,0.99990809,0.999661803
			]
		}
	],
	"buffers":[
		{
			"uri":"gateValve_data.bin",
			"byteLength":11695380,
			"name":"main_buffer"
		}
	],
	"bufferViews":[
		{
			"buffer":0,
			"byteLength":1066824,
			"target":34963
		},
		{
			"buffer":0,
			"byteOffset":1066824,
			"byteLength":2303388,
			"target":34962
		},
		{
			"buffer":0,
			"byteOffset":3370212,
			"byteLength":2303388,
			"target":34962
		},
		{
			"buffer":0,
			"byteOffset":5673600,
			"byteLength":2303388,
			"target":34962
		},
		{
			"buffer":0,
			"byteOffset":7976988,
			"byteLength":903360,
			"target":34963
		},
		{
			"buffer":0,
			"byteOffset":8880348,
			"byteLength":450816,
			"target":34962
		},
		{
			"buffer":0,
			"byteOffset":9331164,
			"byteLength":450816,
			"target":34962
		},
		{
			"buffer":0,
			"byteOffset":9781980,
			"byteLength":450816,
			"target":34962
		},
		{
			"buffer":0,
			"byteOffset":10232796,
			"byteLength":584976,
			"target":34963
		},
		{
			"buffer":0,
			"byteOffset":10817772,
			"byteLength":292536,
			"target":34962
		},
		{
			"buffer":0,
			"byteOffset":11110308,
			"byteLength":292536,
			"target":34962
		},
		{
			"buffer":0,
			"byteOffset":11402844,
			"byteLength":292536,
			"target":34962
		}
	],
	"nodes":[
		{
			"name":"comp",
			"mesh":0
		}
	],
	"meshes":[
		{
			"primitives":[
				{
					"attributes":{
						"NORMAL":3,
						"COLOR_0":2,
						"POSITION":1
					},
					"indices":0,
					"material":0
				},
				{
					"attributes":{
						"NORMAL":7,
						"COLOR_0":6,
						"POSITION":5
					},
					"indices":4,
					"material":1
				},
				{
					"attributes":{
						"NORMAL":11,
						"COLOR_0":10,
						"POSITION":9
					},
					"indices":8,
					"material":2
				}
			],
			"name":"OUT_COMP"
		}
	],
	"materials":[
		{
			"name":"pipe",
			"pbrMetallicRoughness":{
				"metallicFactor":0.400000006,
				"roughnessFactor":0.400000006
			}
		},
		{
			"name":"unobtanuim",
			"pbrMetallicRoughness":{
				"metallicFactor":0.100000001,
				"roughnessFactor":0.400000006
			}
		},
		{
			"name":"phenolic",
			"pbrMetallicRoughness":{
				"metallicFactor":0,
				"roughnessFactor":0.300000012
			}
		}
	],
	"scenes":[
		{
			"nodes":[0
			]
		}
	],
	"scene":0
}
