{
	"asset":{
		"version":"2.0",
		"generator":"Houdini GLTF 2.0 Exporter"
	},
	"accessors":[
		{
			"bufferView":0,
			"componentType":5125,
			"count":384786,
			"type":"SCALAR",
			"min":[0
			],
			"max":[101439
			]
		},
		{
			"bufferView":1,
			"componentType":5126,
			"count":101440,
			"type":"VEC3",
			"min":[-1.2811693,-2.76241732,-1.69166565
			],
			"max":[1.02734387,6.17205811,1.90771937
			]
		},
		{
			"bufferView":2,
			"componentType":5126,
			"count":101440,
			"type":"VEC3",
			"min":[1,1,1
			],
			"max":[1,1,1
			]
		},
		{
			"bufferView":3,
			"componentType":5126,
			"count":101440,
			"type":"VEC3",
			"min":[-1,-1,-1
			],
			"max":[1,1,1
			]
		},
		{
			"bufferView":4,
			"componentType":5125,
			"count":261162,
			"type":"SCALAR",
			"min":[0
			],
			"max":[43420
			]
		},
		{
			"bufferView":5,
			"componentType":5126,
			"count":43421,
			"type":"VEC3",
			"min":[-7.50000048,-6.17205811,-4.06684113
			],
			"max":[7.50000048,1.86154413,4.06684113
			]
		},
		{
			"bufferView":6,
			"componentType":5126,
			"count":43421,
			"type":"VEC3",
			"min":[0.00436605746,0,0
			],
			"max":[0.991008282,0.995488107,0.373116553
			]
		},
		{
			"bufferView":7,
			"componentType":5126,
			"count":43421,
			"type":"VEC3",
			"min":[-0.999888897,-0.999953389,-0.999939561
			],
			"max":[0.999923527,0.999934614,0.999959707
			]
		},
		{
			"bufferView":8,
			"componentType":5125,
			"count":143298,
			"type":"SCALAR",
			"min":[0
			],
			"max":[29245
			]
		},
		{
			"bufferView":9,
			"componentType":5126,
			"count":29246,
			"type":"VEC3",
			"min":[-2.32875848,-3.74926281,-2.09481025
			],
			"max":[2.07493281,5.76674652,2.30647373
			]
		},
		{
			"bufferView":10,
			"componentType":5126,
			"count":29246,
			"type":"VEC3",
			"min":[1,1,1
			],
			"max":[1,1,1
			]
		},
		{
			"bufferView":11,
			"componentType":5126,
			"count":29246,
			"type":"VEC3",
			"min":[-1,-1,-1
			],
			"max":[1,1,1
			]
		},
		{
			"bufferView":12,
			"componentType":5123,
			"count":1872,
			"type":"SCALAR",
			"min":[0
			],
			"max":[623
			]
		},
		{
			"bufferView":13,
			"componentType":5126,
			"count":624,
			"type":"VEC3",
			"min":[-0.88792038,0.920630217,-1.04145718
			],
			"max":[0.634094834,0.973496914,1.25751078
			]
		},
		{
			"bufferView":14,
			"componentType":5126,
			"count":624,
			"type":"VEC3",
			"min":[1,1,1
			],
			"max":[1,1,1
			]
		},
		{
			"bufferView":15,
			"componentType":5126,
			"count":624,
			"type":"VEC3",
			"min":[-0.999796748,-1,-0.999998629
			],
			"max":[0.999796748,1,0.999998629
			]
		}
	],
	"buffers":[
		{
			"uri":"gateValve_data.bin",
			"byteLength":9451044,
			"name":"main_buffer"
		}
	],
	"bufferViews":[
		{
			"buffer":0,
			"byteLength":1539144,
			"target":34963
		},
		{
			"buffer":0,
			"byteOffset":1539144,
			"byteLength":1217280,
			"target":34962
		},
		{
			"buffer":0,
			"byteOffset":2756424,
			"byteLength":1217280,
			"target":34962
		},
		{
			"buffer":0,
			"byteOffset":3973704,
			"byteLength":1217280,
			"target":34962
		},
		{
			"buffer":0,
			"byteOffset":5190984,
			"byteLength":1044648,
			"target":34963
		},
		{
			"buffer":0,
			"byteOffset":6235632,
			"byteLength":521052,
			"target":34962
		},
		{
			"buffer":0,
			"byteOffset":6756684,
			"byteLength":521052,
			"target":34962
		},
		{
			"buffer":0,
			"byteOffset":7277736,
			"byteLength":521052,
			"target":34962
		},
		{
			"buffer":0,
			"byteOffset":7798788,
			"byteLength":573192,
			"target":34963
		},
		{
			"buffer":0,
			"byteOffset":8371980,
			"byteLength":350952,
			"target":34962
		},
		{
			"buffer":0,
			"byteOffset":8722932,
			"byteLength":350952,
			"target":34962
		},
		{
			"buffer":0,
			"byteOffset":9073884,
			"byteLength":350952,
			"target":34962
		},
		{
			"buffer":0,
			"byteOffset":9424836,
			"byteLength":3744,
			"target":34963
		},
		{
			"buffer":0,
			"byteOffset":9428580,
			"byteLength":7488,
			"target":34962
		},
		{
			"buffer":0,
			"byteOffset":9436068,
			"byteLength":7488,
			"target":34962
		},
		{
			"buffer":0,
			"byteOffset":9443556,
			"byteLength":7488,
			"target":34962
		}
	],
	"nodes":[
		{
			"name":"comp",
			"mesh":0
		}
	],
	"meshes":[
		{
			"primitives":[
				{
					"attributes":{
						"NORMAL":3,
						"COLOR_0":2,
						"POSITION":1
					},
					"indices":0,
					"material":0
				},
				{
					"attributes":{
						"NORMAL":7,
						"COLOR_0":6,
						"POSITION":5
					},
					"indices":4,
					"material":1
				},
				{
					"attributes":{
						"NORMAL":11,
						"COLOR_0":10,
						"POSITION":9
					},
					"indices":8,
					"material":2
				},
				{
					"attributes":{
						"NORMAL":15,
						"COLOR_0":14,
						"POSITION":13
					},
					"indices":12
				}
			],
			"name":"output0"
		}
	],
	"materials":[
		{
			"name":"shinyMetal",
			"pbrMetallicRoughness":{
				"metallicFactor":0.5,
				"roughnessFactor":0.300000012
			}
		},
		{
			"name":"unobtanuim",
			"pbrMetallicRoughness":{
				"baseColorFactor":[0.86500001,0.932500005,1,1
				],
				"metallicFactor":0.100000001,
				"roughnessFactor":0.400000006
			}
		},
		{
			"name":"pipe",
			"pbrMetallicRoughness":{
				"baseColorFactor":[0.5,0.5,0.5,1
				],
				"metallicFactor":0.800000012,
				"roughnessFactor":0.600000024
			}
		}
	],
	"scenes":[
		{
			"nodes":[0
			]
		}
	],
	"scene":0
}
