{
	"asset":{
		"version":"2.0",
		"generator":"Houdini GLTF 2.0 Exporter"
	},
	"accessors":[
		{
			"bufferView":0,
			"componentType":5123,
			"count":1152,
			"type":"SCALAR",
			"min":[0
			],
			"max":[383
			]
		},
		{
			"bufferView":1,
			"componentType":5126,
			"count":384,
			"type":"VEC3",
			"min":[-1.08243454,-5,-2.126513
			],
			"max":[4.84174252,1.15160394,3.99675179
			]
		},
		{
			"bufferView":2,
			"componentType":5126,
			"count":384,
			"type":"VEC3",
			"min":[1,1,1
			],
			"max":[1,1,1
			]
		},
		{
			"bufferView":3,
			"componentType":5126,
			"count":384,
			"type":"VEC3",
			"min":[-0.994202614,-0.138854414,-0.950392067
			],
			"max":[0.386091679,0.940658391,0.713938892
			]
		},
		{
			"bufferView":4,
			"componentType":5123,
			"count":378,
			"type":"SCALAR",
			"min":[0
			],
			"max":[341
			]
		},
		{
			"bufferView":5,
			"componentType":5126,
			"count":342,
			"type":"VEC3",
			"min":[1.68078709,-3.87609959,1.37487972
			],
			"max":[2.0979352,-3.46312356,1.83749723
			]
		},
		{
			"bufferView":6,
			"componentType":5126,
			"count":342,
			"type":"VEC3",
			"min":[1,1,1
			],
			"max":[1,1,1
			]
		},
		{
			"bufferView":7,
			"componentType":5126,
			"count":342,
			"type":"VEC3",
			"min":[-0.912937939,-0.991140723,-0.959673524
			],
			"max":[0.91870451,0.770090222,0.976569414
			]
		},
		{
			"bufferView":8,
			"componentType":5123,
			"count":6000,
			"type":"SCALAR",
			"min":[0
			],
			"max":[5999
			]
		},
		{
			"bufferView":9,
			"componentType":5126,
			"count":6000,
			"type":"VEC3",
			"min":[-5.84102011,-6.04114246,-3.98447204
			],
			"max":[6.06731844,5.92986631,3.93776703
			]
		},
		{
			"bufferView":10,
			"componentType":5126,
			"count":6000,
			"type":"VEC3",
			"min":[0.301461816,0.301461816,0.301461816
			],
			"max":[0.997769296,0.997769296,0.997769296
			]
		},
		{
			"bufferView":11,
			"componentType":5126,
			"count":6000,
			"type":"VEC3",
			"min":[-0.917276621,-0.982246935,-0.980940044
			],
			"max":[0.917276621,0.982246935,0.980940044
			]
		},
		{
			"bufferView":12,
			"componentType":5123,
			"count":192,
			"type":"SCALAR",
			"min":[0
			],
			"max":[151
			]
		},
		{
			"bufferView":13,
			"componentType":5126,
			"count":152,
			"type":"VEC3",
			"min":[1.93619132,-4.52897358,0.279473186
			],
			"max":[3.10478878,-3.27175927,1.93338573
			]
		},
		{
			"bufferView":14,
			"componentType":5126,
			"count":152,
			"type":"VEC3",
			"min":[1,1,1
			],
			"max":[1,1,1
			]
		},
		{
			"bufferView":15,
			"componentType":5126,
			"count":152,
			"type":"VEC3",
			"min":[-0.737770498,-0.865536511,-0.759494007
			],
			"max":[0.623129666,0.941485345,0.910149574
			]
		},
		{
			"bufferView":16,
			"componentType":5123,
			"count":3510,
			"type":"SCALAR",
			"min":[0
			],
			"max":[3374
			]
		},
		{
			"bufferView":17,
			"componentType":5126,
			"count":3375,
			"type":"VEC3",
			"min":[1.10340917,-4.50897408,-0.0980985463
			],
			"max":[3.0185883,-1.64728045,2.16773224
			]
		},
		{
			"bufferView":18,
			"componentType":5126,
			"count":3375,
			"type":"VEC3",
			"min":[1,1,1
			],
			"max":[1,1,1
			]
		},
		{
			"bufferView":19,
			"componentType":5126,
			"count":3375,
			"type":"VEC3",
			"min":[-0.990644872,-0.999702811,-0.989835441
			],
			"max":[0.998781085,0.995712638,0.999743104
			]
		},
		{
			"bufferView":20,
			"componentType":5125,
			"count":174717,
			"type":"SCALAR",
			"min":[0
			],
			"max":[30850
			]
		},
		{
			"bufferView":21,
			"componentType":5126,
			"count":30851,
			"type":"VEC3",
			"min":[-4.61801529,-0.335893869,-3.53799963
			],
			"max":[1.10659301,4.78788376,2.11023283
			]
		},
		{
			"bufferView":22,
			"componentType":5126,
			"count":30851,
			"type":"VEC3",
			"min":[1,1,1
			],
			"max":[1,1,1
			]
		},
		{
			"bufferView":23,
			"componentType":5126,
			"count":30851,
			"type":"VEC3",
			"min":[-0.999978304,-0.999441504,-0.999939203
			],
			"max":[0.999550045,0.995565891,0.99993068
			]
		},
		{
			"bufferView":24,
			"componentType":5125,
			"count":1005882,
			"type":"SCALAR",
			"min":[0
			],
			"max":[196566
			]
		},
		{
			"bufferView":25,
			"componentType":5126,
			"count":196567,
			"type":"VEC3",
			"min":[-4.84174252,-0.608840942,-3.99675179
			],
			"max":[1.53220224,5,2.74280405
			]
		},
		{
			"bufferView":26,
			"componentType":5126,
			"count":196567,
			"type":"VEC3",
			"min":[1,1,1
			],
			"max":[1,1,1
			]
		},
		{
			"bufferView":27,
			"componentType":5126,
			"count":196567,
			"type":"VEC3",
			"min":[-0.999995112,-0.999988437,-0.999979734
			],
			"max":[0.999990821,0.999993801,0.999990761
			]
		},
		{
			"bufferView":28,
			"componentType":5123,
			"count":213,
			"type":"SCALAR",
			"min":[0
			],
			"max":[58
			]
		},
		{
			"bufferView":29,
			"componentType":5126,
			"count":59,
			"type":"VEC3",
			"min":[-3.39789367,-0.152317524,-2.46040201
			],
			"max":[0.557723224,3.95141053,1.37035072
			]
		},
		{
			"bufferView":30,
			"componentType":5126,
			"count":59,
			"type":"VEC3",
			"min":[1,1,1
			],
			"max":[1,1,1
			]
		},
		{
			"bufferView":31,
			"componentType":5126,
			"count":59,
			"type":"VEC3",
			"min":[-0.598315716,-0.669099391,-0.993483722
			],
			"max":[0.686639249,0.59646672,0.682104111
			]
		}
	],
	"buffers":[
		{
			"uri":"contact_data.bin",
			"byteLength":13303568,
			"name":"main_buffer"
		}
	],
	"bufferViews":[
		{
			"buffer":0,
			"byteLength":2304,
			"target":34963
		},
		{
			"buffer":0,
			"byteOffset":2304,
			"byteLength":4608,
			"target":34962
		},
		{
			"buffer":0,
			"byteOffset":6912,
			"byteLength":4608,
			"target":34962
		},
		{
			"buffer":0,
			"byteOffset":11520,
			"byteLength":4608,
			"target":34962
		},
		{
			"buffer":0,
			"byteOffset":16128,
			"byteLength":756,
			"target":34963
		},
		{
			"buffer":0,
			"byteOffset":16884,
			"byteLength":4104,
			"target":34962
		},
		{
			"buffer":0,
			"byteOffset":20988,
			"byteLength":4104,
			"target":34962
		},
		{
			"buffer":0,
			"byteOffset":25092,
			"byteLength":4104,
			"target":34962
		},
		{
			"buffer":0,
			"byteOffset":29196,
			"byteLength":12000,
			"target":34963
		},
		{
			"buffer":0,
			"byteOffset":41196,
			"byteLength":72000,
			"target":34962
		},
		{
			"buffer":0,
			"byteOffset":113196,
			"byteLength":72000,
			"target":34962
		},
		{
			"buffer":0,
			"byteOffset":185196,
			"byteLength":72000,
			"target":34962
		},
		{
			"buffer":0,
			"byteOffset":257196,
			"byteLength":384,
			"target":34963
		},
		{
			"buffer":0,
			"byteOffset":257580,
			"byteLength":1824,
			"target":34962
		},
		{
			"buffer":0,
			"byteOffset":259404,
			"byteLength":1824,
			"target":34962
		},
		{
			"buffer":0,
			"byteOffset":261228,
			"byteLength":1824,
			"target":34962
		},
		{
			"buffer":0,
			"byteOffset":263052,
			"byteLength":7020,
			"target":34963
		},
		{
			"buffer":0,
			"byteOffset":270072,
			"byteLength":40500,
			"target":34962
		},
		{
			"buffer":0,
			"byteOffset":310572,
			"byteLength":40500,
			"target":34962
		},
		{
			"buffer":0,
			"byteOffset":351072,
			"byteLength":40500,
			"target":34962
		},
		{
			"buffer":0,
			"byteOffset":391572,
			"byteLength":698868,
			"target":34963
		},
		{
			"buffer":0,
			"byteOffset":1090440,
			"byteLength":370212,
			"target":34962
		},
		{
			"buffer":0,
			"byteOffset":1460652,
			"byteLength":370212,
			"target":34962
		},
		{
			"buffer":0,
			"byteOffset":1830864,
			"byteLength":370212,
			"target":34962
		},
		{
			"buffer":0,
			"byteOffset":2201076,
			"byteLength":4023528,
			"target":34963
		},
		{
			"buffer":0,
			"byteOffset":6224604,
			"byteLength":2358804,
			"target":34962
		},
		{
			"buffer":0,
			"byteOffset":8583408,
			"byteLength":2358804,
			"target":34962
		},
		{
			"buffer":0,
			"byteOffset":10942212,
			"byteLength":2358804,
			"target":34962
		},
		{
			"buffer":0,
			"byteOffset":13301016,
			"byteLength":426,
			"target":34963
		},
		{
			"buffer":0,
			"byteOffset":13301444,
			"byteLength":708,
			"target":34962
		},
		{
			"buffer":0,
			"byteOffset":13302152,
			"byteLength":708,
			"target":34962
		},
		{
			"buffer":0,
			"byteOffset":13302860,
			"byteLength":708,
			"target":34962
		}
	],
	"nodes":[
		{
			"name":"comp",
			"mesh":0
		}
	],
	"meshes":[
		{
			"primitives":[
				{
					"attributes":{
						"NORMAL":3,
						"COLOR_0":2,
						"POSITION":1
					},
					"indices":0,
					"material":0
				},
				{
					"attributes":{
						"NORMAL":7,
						"COLOR_0":6,
						"POSITION":5
					},
					"indices":4,
					"material":1
				},
				{
					"attributes":{
						"NORMAL":11,
						"COLOR_0":10,
						"POSITION":9
					},
					"indices":8,
					"material":2
				},
				{
					"attributes":{
						"NORMAL":15,
						"COLOR_0":14,
						"POSITION":13
					},
					"indices":12,
					"material":3
				},
				{
					"attributes":{
						"NORMAL":19,
						"COLOR_0":18,
						"POSITION":17
					},
					"indices":16,
					"material":4
				},
				{
					"attributes":{
						"NORMAL":23,
						"COLOR_0":22,
						"POSITION":21
					},
					"indices":20,
					"material":5
				},
				{
					"attributes":{
						"NORMAL":27,
						"COLOR_0":26,
						"POSITION":25
					},
					"indices":24,
					"material":6
				},
				{
					"attributes":{
						"NORMAL":31,
						"COLOR_0":30,
						"POSITION":29
					},
					"indices":28
				}
			],
			"name":"OUT_COMP"
		}
	],
	"materials":[
		{
			"name":"waves",
			"pbrMetallicRoughness":{
				"baseColorFactor":[0,0.5,1,1
				],
				"metallicFactor":0,
				"roughnessFactor":0.800000012
			},
			"emissiveFactor":[0,0.25,0.5
			]
		},
		{
			"name":"cowUdder",
			"pbrMetallicRoughness":{
				"baseColorFactor":[0.759000003,0.412896037,0.531055093,1
				],
				"metallicFactor":0,
				"roughnessFactor":0.300000012
			}
		},
		{
			"name":"stars",
			"pbrMetallicRoughness":{
				"metallicFactor":0.100000001,
				"roughnessFactor":0.5
			}
		},
		{
			"name":"cowHoof",
			"pbrMetallicRoughness":{
				"baseColorFactor":[0.200000003,0.200000003,0.200000003,1
				],
				"metallicFactor":0,
				"roughnessFactor":0.300000012
			}
		},
		{
			"name":"cowBody",
			"pbrMetallicRoughness":{
				"baseColorFactor":[0.5,0.25,0,1
				],
				"metallicFactor":0,
				"roughnessFactor":0.300000012
			}
		},
		{
			"name":"metal",
			"pbrMetallicRoughness":{
				"baseColorFactor":[0.200000003,0.200000003,0.200000003,1
				],
				"metallicFactor":0.300000012,
				"roughnessFactor":0.200000003
			}
		},
		{
			"name":"plastic",
			"pbrMetallicRoughness":{
				"baseColorFactor":[0.776000023,0.792800009,0.800000012,1
				],
				"metallicFactor":0.300000012,
				"roughnessFactor":0.600000024
			}
		}
	],
	"scenes":[
		{
			"nodes":[0
			]
		}
	],
	"scene":0
}
