{
	"asset":{
		"version":"2.0",
		"generator":"Houdini GLTF 2.0 Exporter"
	},
	"accessors":[
		{
			"bufferView":0,
			"componentType":5123,
			"count":1152,
			"type":"SCALAR",
			"min":[0
			],
			"max":[383
			]
		},
		{
			"bufferView":1,
			"componentType":5126,
			"count":384,
			"type":"VEC3",
			"min":[-1.13210201,-5,-2.16466618
			],
			"max":[4.86026859,1.22241545,4.02908421
			]
		},
		{
			"bufferView":2,
			"componentType":5126,
			"count":384,
			"type":"VEC3",
			"min":[-0.994202614,-0.138854399,-0.950392067
			],
			"max":[0.386091679,0.940658391,0.713938832
			]
		},
		{
			"bufferView":3,
			"componentType":5123,
			"count":6000,
			"type":"SCALAR",
			"min":[0
			],
			"max":[5999
			]
		},
		{
			"bufferView":4,
			"componentType":5126,
			"count":6000,
			"type":"VEC3",
			"min":[-6.00239706,-6.11712933,-4.08034134
			],
			"max":[6.19400072,5.90525484,4.69717932
			]
		},
		{
			"bufferView":5,
			"componentType":5126,
			"count":6000,
			"type":"VEC3",
			"min":[-0.917276621,-0.982246935,-0.980940044
			],
			"max":[0.917276621,0.982246935,0.980940044
			]
		},
		{
			"bufferView":6,
			"componentType":5125,
			"count":165492,
			"type":"SCALAR",
			"min":[0
			],
			"max":[29122
			]
		},
		{
			"bufferView":7,
			"componentType":5126,
			"count":29123,
			"type":"VEC3",
			"min":[-4.55235577,-0.249442816,-3.48760319
			],
			"max":[0.963772297,4.71919823,1.95735133
			]
		},
		{
			"bufferView":8,
			"componentType":5126,
			"count":29123,
			"type":"VEC3",
			"min":[-0.999427915,-0.999016762,-0.999944746
			],
			"max":[0.999771953,0.998871744,0.999978125
			]
		},
		{
			"bufferView":9,
			"componentType":5125,
			"count":996894,
			"type":"SCALAR",
			"min":[0
			],
			"max":[194063
			]
		},
		{
			"bufferView":10,
			"componentType":5126,
			"count":194064,
			"type":"VEC3",
			"min":[-4.86026859,-0.668174505,-4.02908421
			],
			"max":[1.5991993,5,2.80015993
			]
		},
		{
			"bufferView":11,
			"componentType":5126,
			"count":194064,
			"type":"VEC3",
			"min":[-0.999974489,-0.999994338,-1
			],
			"max":[0.999994874,0.999988616,0.999997199
			]
		},
		{
			"bufferView":12,
			"componentType":5123,
			"count":432,
			"type":"SCALAR",
			"min":[0
			],
			"max":[395
			]
		},
		{
			"bufferView":13,
			"componentType":5126,
			"count":396,
			"type":"VEC3",
			"min":[1.59782004,-3.86316276,-0.112902239
			],
			"max":[2.7545917,-1.71099567,1.90477288
			]
		},
		{
			"bufferView":14,
			"componentType":5126,
			"count":396,
			"type":"VEC3",
			"min":[-0.91293788,-0.991140723,-0.986846805
			],
			"max":[0.9349792,0.770090222,0.976569355
			]
		},
		{
			"bufferView":15,
			"componentType":5123,
			"count":192,
			"type":"SCALAR",
			"min":[0
			],
			"max":[151
			]
		},
		{
			"bufferView":16,
			"componentType":5126,
			"count":152,
			"type":"VEC3",
			"min":[1.92127168,-4.52355194,0.269015759
			],
			"max":[3.10332108,-3.25186563,1.94196677
			]
		},
		{
			"bufferView":17,
			"componentType":5126,
			"count":152,
			"type":"VEC3",
			"min":[-0.737770498,-0.865536451,-0.759494007
			],
			"max":[0.623129666,0.941485286,0.910149515
			]
		},
		{
			"bufferView":18,
			"componentType":5123,
			"count":378,
			"type":"SCALAR",
			"min":[0
			],
			"max":[342
			]
		},
		{
			"bufferView":19,
			"componentType":5126,
			"count":343,
			"type":"VEC3",
			"min":[1.15403819,-4.5033226,-0.106665939
			],
			"max":[2.82394934,-1.80261207,2.12867641
			]
		},
		{
			"bufferView":20,
			"componentType":5126,
			"count":343,
			"type":"VEC3",
			"min":[-0.831985354,-0.999702811,-0.958845317
			],
			"max":[0.95169276,0.614490807,0.864825845
			]
		},
		{
			"bufferView":21,
			"componentType":5123,
			"count":1218,
			"type":"SCALAR",
			"min":[0
			],
			"max":[1193
			]
		},
		{
			"bufferView":22,
			"componentType":5126,
			"count":1194,
			"type":"VEC3",
			"min":[1.07890332,-4.39365482,-0.040666908
			],
			"max":[2.91514349,-1.6086874,2.17901087
			]
		},
		{
			"bufferView":23,
			"componentType":5126,
			"count":1194,
			"type":"VEC3",
			"min":[-0.990644872,-0.999431193,-0.989835382
			],
			"max":[0.99338311,0.993194818,0.999743104
			]
		},
		{
			"bufferView":24,
			"componentType":5121,
			"count":12,
			"type":"SCALAR",
			"min":[0
			],
			"max":[11
			]
		},
		{
			"bufferView":25,
			"componentType":5126,
			"count":12,
			"type":"VEC3",
			"min":[2.29169583,-1.80120742,0.10320875
			],
			"max":[2.49473524,-1.68158364,0.315589905
			]
		},
		{
			"bufferView":26,
			"componentType":5126,
			"count":12,
			"type":"VEC3",
			"min":[-0.270884663,-0.49652037,-0.971268058
			],
			"max":[0.910447717,0.461146325,0.403558969
			]
		},
		{
			"bufferView":27,
			"componentType":5123,
			"count":1848,
			"type":"SCALAR",
			"min":[0
			],
			"max":[1771
			]
		},
		{
			"bufferView":28,
			"componentType":5126,
			"count":1772,
			"type":"VEC3",
			"min":[1.07890332,-4.5033226,-0.112902239
			],
			"max":[3.0161283,-1.6086874,2.17798996
			]
		},
		{
			"bufferView":29,
			"componentType":5126,
			"count":1772,
			"type":"VEC3",
			"min":[-0.987963021,-0.979706228,-0.985558093
			],
			"max":[0.998781085,0.995712638,0.975377202
			]
		},
		{
			"bufferView":30,
			"componentType":5123,
			"count":234,
			"type":"SCALAR",
			"min":[0
			],
			"max":[63
			]
		},
		{
			"bufferView":31,
			"componentType":5126,
			"count":64,
			"type":"VEC3",
			"min":[-3.3962307,-0.198720455,-2.4711833
			],
			"max":[0.604907095,3.95332289,1.39992905
			]
		},
		{
			"bufferView":32,
			"componentType":5126,
			"count":64,
			"type":"VEC3",
			"min":[-0.598989487,-0.688938558,-0.989628613
			],
			"max":[0.655145764,0.602246463,0.665739834
			]
		}
	],
	"buffers":[
		{
			"uri":"contact_data.bin",
			"byteLength":10276560,
			"name":"main_buffer"
		}
	],
	"bufferViews":[
		{
			"buffer":0,
			"byteLength":2304,
			"target":34963
		},
		{
			"buffer":0,
			"byteOffset":2304,
			"byteLength":4608,
			"target":34962
		},
		{
			"buffer":0,
			"byteOffset":6912,
			"byteLength":4608,
			"target":34962
		},
		{
			"buffer":0,
			"byteOffset":11520,
			"byteLength":12000,
			"target":34963
		},
		{
			"buffer":0,
			"byteOffset":23520,
			"byteLength":72000,
			"target":34962
		},
		{
			"buffer":0,
			"byteOffset":95520,
			"byteLength":72000,
			"target":34962
		},
		{
			"buffer":0,
			"byteOffset":167520,
			"byteLength":661968,
			"target":34963
		},
		{
			"buffer":0,
			"byteOffset":829488,
			"byteLength":349476,
			"target":34962
		},
		{
			"buffer":0,
			"byteOffset":1178964,
			"byteLength":349476,
			"target":34962
		},
		{
			"buffer":0,
			"byteOffset":1528440,
			"byteLength":3987576,
			"target":34963
		},
		{
			"buffer":0,
			"byteOffset":5516016,
			"byteLength":2328768,
			"target":34962
		},
		{
			"buffer":0,
			"byteOffset":7844784,
			"byteLength":2328768,
			"target":34962
		},
		{
			"buffer":0,
			"byteOffset":10173552,
			"byteLength":864,
			"target":34963
		},
		{
			"buffer":0,
			"byteOffset":10174416,
			"byteLength":4752,
			"target":34962
		},
		{
			"buffer":0,
			"byteOffset":10179168,
			"byteLength":4752,
			"target":34962
		},
		{
			"buffer":0,
			"byteOffset":10183920,
			"byteLength":384,
			"target":34963
		},
		{
			"buffer":0,
			"byteOffset":10184304,
			"byteLength":1824,
			"target":34962
		},
		{
			"buffer":0,
			"byteOffset":10186128,
			"byteLength":1824,
			"target":34962
		},
		{
			"buffer":0,
			"byteOffset":10187952,
			"byteLength":756,
			"target":34963
		},
		{
			"buffer":0,
			"byteOffset":10188708,
			"byteLength":4116,
			"target":34962
		},
		{
			"buffer":0,
			"byteOffset":10192824,
			"byteLength":4116,
			"target":34962
		},
		{
			"buffer":0,
			"byteOffset":10196940,
			"byteLength":2436,
			"target":34963
		},
		{
			"buffer":0,
			"byteOffset":10199376,
			"byteLength":14328,
			"target":34962
		},
		{
			"buffer":0,
			"byteOffset":10213704,
			"byteLength":14328,
			"target":34962
		},
		{
			"buffer":0,
			"byteOffset":10228032,
			"byteLength":12,
			"target":34963
		},
		{
			"buffer":0,
			"byteOffset":10228044,
			"byteLength":144,
			"target":34962
		},
		{
			"buffer":0,
			"byteOffset":10228188,
			"byteLength":144,
			"target":34962
		},
		{
			"buffer":0,
			"byteOffset":10228332,
			"byteLength":3696,
			"target":34963
		},
		{
			"buffer":0,
			"byteOffset":10232028,
			"byteLength":21264,
			"target":34962
		},
		{
			"buffer":0,
			"byteOffset":10253292,
			"byteLength":21264,
			"target":34962
		},
		{
			"buffer":0,
			"byteOffset":10274556,
			"byteLength":468,
			"target":34963
		},
		{
			"buffer":0,
			"byteOffset":10275024,
			"byteLength":768,
			"target":34962
		},
		{
			"buffer":0,
			"byteOffset":10275792,
			"byteLength":768,
			"target":34962
		}
	],
	"nodes":[
		{
			"name":"comp",
			"mesh":0
		}
	],
	"meshes":[
		{
			"primitives":[
				{
					"attributes":{
						"NORMAL":2,
						"POSITION":1
					},
					"indices":0,
					"material":0
				},
				{
					"attributes":{
						"NORMAL":5,
						"POSITION":4
					},
					"indices":3,
					"material":1
				},
				{
					"attributes":{
						"NORMAL":8,
						"POSITION":7
					},
					"indices":6,
					"material":2
				},
				{
					"attributes":{
						"NORMAL":11,
						"POSITION":10
					},
					"indices":9,
					"material":3
				},
				{
					"attributes":{
						"NORMAL":14,
						"POSITION":13
					},
					"indices":12,
					"material":4
				},
				{
					"attributes":{
						"NORMAL":17,
						"POSITION":16
					},
					"indices":15,
					"material":5
				},
				{
					"attributes":{
						"NORMAL":20,
						"POSITION":19
					},
					"indices":18,
					"material":6
				},
				{
					"attributes":{
						"NORMAL":23,
						"POSITION":22
					},
					"indices":21,
					"material":7
				},
				{
					"attributes":{
						"NORMAL":26,
						"POSITION":25
					},
					"indices":24,
					"material":8
				},
				{
					"attributes":{
						"NORMAL":29,
						"POSITION":28
					},
					"indices":27,
					"material":9
				},
				{
					"attributes":{
						"NORMAL":32,
						"POSITION":31
					},
					"indices":30
				}
			],
			"name":"OUT_COMP"
		}
	],
	"materials":[
		{
			"name":"waves",
			"pbrMetallicRoughness":{
				"baseColorFactor":[0,0.5,1,1
				],
				"metallicFactor":0,
				"roughnessFactor":0.800000012
			},
			"emissiveFactor":[0,0.25,0.5
			]
		},
		{
			"name":"stars",
			"pbrMetallicRoughness":{
				"metallicFactor":0.0500000007,
				"roughnessFactor":0.100000001
			}
		},
		{
			"name":"metal",
			"pbrMetallicRoughness":{
				"baseColorFactor":[0.200000003,0.200000003,0.200000003,1
				],
				"metallicFactor":0.300000012,
				"roughnessFactor":0.200000003
			}
		},
		{
			"name":"plastic",
			"pbrMetallicRoughness":{
				"baseColorFactor":[0.776000023,0.792800009,0.800000012,1
				],
				"metallicFactor":0.300000012,
				"roughnessFactor":0.600000024
			}
		},
		{
			"name":"cowUdder",
			"pbrMetallicRoughness":{
				"baseColorFactor":[0.759000003,0.412896037,0.531055093,1
				],
				"metallicFactor":0,
				"roughnessFactor":0.300000012
			}
		},
		{
			"name":"cowHoof",
			"pbrMetallicRoughness":{
				"baseColorFactor":[0.200000003,0.200000003,0.200000003,1
				],
				"metallicFactor":0,
				"roughnessFactor":0.300000012
			}
		},
		{
			"name":"cowBottom",
			"pbrMetallicRoughness":{
				"baseColorFactor":[0.333000004,0.333000004,0.333000004,1
				],
				"metallicFactor":0,
				"roughnessFactor":0.300000012
			}
		},
		{
			"name":"cowBlack",
			"pbrMetallicRoughness":{
				"baseColorFactor":[0.333000004,0.333000004,0.333000004,1
				],
				"metallicFactor":0,
				"roughnessFactor":0.300000012
			}
		},
		{
			"name":"cowEyes",
			"pbrMetallicRoughness":{
				"baseColorFactor":[0,0.5,1,1
				],
				"metallicFactor":0,
				"roughnessFactor":0.300000012
			}
		},
		{
			"name":"cowWhite",
			"pbrMetallicRoughness":{
				"metallicFactor":0,
				"roughnessFactor":0.300000012
			}
		}
	],
	"scenes":[
		{
			"nodes":[0
			]
		}
	],
	"scene":0
}
