{
	"asset":{
		"version":"2.0",
		"generator":"Houdini GLTF 2.0 Exporter"
	},
	"accessors":[
		{
			"bufferView":0,
			"componentType":5123,
			"count":1152,
			"type":"SCALAR",
			"min":[0
			],
			"max":[383
			]
		},
		{
			"bufferView":1,
			"componentType":5126,
			"count":384,
			"type":"VEC3",
			"min":[-1.08243454,-5,-2.12651348
			],
			"max":[4.84174252,1.15160418,3.99675179
			]
		},
		{
			"bufferView":2,
			"componentType":5126,
			"count":384,
			"type":"MAT4",
			"min":[1,0,0,0,0,1,0,0,0,0,1,0,0,0,0,1
			],
			"max":[1,0,0,0,0,1,0,0,0,0,1,0,0,0,0,1
			]
		},
		{
			"bufferView":3,
			"componentType":5126,
			"count":384,
			"type":"VEC3",
			"min":[1,1,1
			],
			"max":[1,1,1
			]
		},
		{
			"bufferView":4,
			"componentType":5126,
			"count":384,
			"type":"VEC3",
			"min":[-0.994202614,-0.138854414,-0.950392067
			],
			"max":[0.386091679,0.940658391,0.713938892
			]
		},
		{
			"bufferView":5,
			"componentType":5123,
			"count":6000,
			"type":"SCALAR",
			"min":[0
			],
			"max":[5999
			]
		},
		{
			"bufferView":6,
			"componentType":5126,
			"count":6000,
			"type":"VEC3",
			"min":[-5.84102011,-6.04114246,-3.98447204
			],
			"max":[6.06731844,5.92986631,3.93776703
			]
		},
		{
			"bufferView":7,
			"componentType":5126,
			"count":6000,
			"type":"MAT4",
			"min":[1,0,0,0,0,1,0,0,0,0,1,0,0,0,0,1
			],
			"max":[1,0,0,0,0,1,0,0,0,0,1,0,0,0,0,1
			]
		},
		{
			"bufferView":8,
			"componentType":5126,
			"count":6000,
			"type":"VEC3",
			"min":[0.301461816,0.301461816,0.301461816
			],
			"max":[0.997769296,0.997769296,0.997769296
			]
		},
		{
			"bufferView":9,
			"componentType":5126,
			"count":6000,
			"type":"VEC3",
			"min":[-0.917276621,-0.982246935,-0.980940044
			],
			"max":[0.917276621,0.982246935,0.980940044
			]
		},
		{
			"bufferView":10,
			"componentType":5125,
			"count":174717,
			"type":"SCALAR",
			"min":[0
			],
			"max":[30850
			]
		},
		{
			"bufferView":11,
			"componentType":5126,
			"count":30851,
			"type":"VEC3",
			"min":[-4.61801529,-0.335893631,-3.53800011
			],
			"max":[1.10659313,4.78788376,2.11023283
			]
		},
		{
			"bufferView":12,
			"componentType":5126,
			"count":30851,
			"type":"MAT4",
			"min":[1,0,0,0,0,1,0,0,0,0,1,0,0,0,0,1
			],
			"max":[1,0,0,0,0,1,0,0,0,0,1,0,0,0,0,1
			]
		},
		{
			"bufferView":13,
			"componentType":5126,
			"count":30851,
			"type":"VEC3",
			"min":[1,1,1
			],
			"max":[1,1,1
			]
		},
		{
			"bufferView":14,
			"componentType":5126,
			"count":30851,
			"type":"VEC3",
			"min":[-0.999978304,-0.999441504,-0.999939203
			],
			"max":[0.999550045,0.995565891,0.99993068
			]
		},
		{
			"bufferView":15,
			"componentType":5125,
			"count":1005882,
			"type":"SCALAR",
			"min":[0
			],
			"max":[196566
			]
		},
		{
			"bufferView":16,
			"componentType":5126,
			"count":196567,
			"type":"VEC3",
			"min":[-4.84174252,-0.608840704,-3.99675179
			],
			"max":[1.5322026,5,2.74280405
			]
		},
		{
			"bufferView":17,
			"componentType":5126,
			"count":196567,
			"type":"MAT4",
			"min":[1,0,0,0,0,1,0,0,0,0,1,0,0,0,0,1
			],
			"max":[1,0,0,0,0,1,0,0,0,0,1,0,0,0,0,1
			]
		},
		{
			"bufferView":18,
			"componentType":5126,
			"count":196567,
			"type":"VEC3",
			"min":[1,1,1
			],
			"max":[1,1,1
			]
		},
		{
			"bufferView":19,
			"componentType":5126,
			"count":196567,
			"type":"VEC3",
			"min":[-0.999995112,-0.999988437,-0.999979734
			],
			"max":[0.999990821,0.999993801,0.999990761
			]
		},
		{
			"bufferView":20,
			"componentType":5123,
			"count":432,
			"type":"SCALAR",
			"min":[0
			],
			"max":[287
			]
		},
		{
			"bufferView":21,
			"componentType":5126,
			"count":288,
			"type":"VEC3",
			"min":[1.61641717,-3.87610269,-0.0980975628
			],
			"max":[2.76002812,-1.74841857,1.89661586
			]
		},
		{
			"bufferView":22,
			"componentType":5126,
			"count":288,
			"type":"MAT4",
			"min":[0.112380847,0,0,0,0,2.49535608e-17,-0.112380847,0,0,0.112380847,2.49535608e-17,0,-6.97942681e-09,1.55762336e-05,-0.0248953477,1
			],
			"max":[0.112380847,0,0,0,0,2.49535608e-17,-0.112380847,0,0,0.112380847,2.49535608e-17,0,-6.97942681e-09,1.55762336e-05,-0.0248953477,1
			]
		},
		{
			"bufferView":23,
			"componentType":5126,
			"count":288,
			"type":"VEC3",
			"min":[1,1,1
			],
			"max":[1,1,1
			]
		},
		{
			"bufferView":24,
			"componentType":5126,
			"count":288,
			"type":"VEC3",
			"min":[-0.823859572,-0.98256427,-0.962996542
			],
			"max":[0.938399374,0.671008945,0.837591231
			]
		},
		{
			"bufferView":25,
			"componentType":5123,
			"count":192,
			"type":"SCALAR",
			"min":[0
			],
			"max":[119
			]
		},
		{
			"bufferView":26,
			"componentType":5126,
			"count":120,
			"type":"VEC3",
			"min":[1.93619478,-4.52897692,0.279471993
			],
			"max":[3.10479164,-3.27176213,1.93338287
			]
		},
		{
			"bufferView":27,
			"componentType":5126,
			"count":120,
			"type":"MAT4",
			"min":[0.112380847,0,0,0,0,2.49535608e-17,-0.112380847,0,0,0.112380847,2.49535608e-17,0,-6.97923408e-09,8.10954225e-06,-0.0248951986,1
			],
			"max":[0.112380847,0,0,0,0,2.49535608e-17,-0.112380847,0,0,0.112380847,2.49535608e-17,0,-6.97923408e-09,8.10954225e-06,-0.0248951986,1
			]
		},
		{
			"bufferView":28,
			"componentType":5126,
			"count":120,
			"type":"VEC3",
			"min":[1,1,1
			],
			"max":[1,1,1
			]
		},
		{
			"bufferView":29,
			"componentType":5126,
			"count":120,
			"type":"VEC3",
			"min":[-0.723748326,-0.86555934,-0.747426033
			],
			"max":[0.619243562,0.941485167,0.847167313
			]
		},
		{
			"bufferView":30,
			"componentType":5123,
			"count":378,
			"type":"SCALAR",
			"min":[0
			],
			"max":[251
			]
		},
		{
			"bufferView":31,
			"componentType":5126,
			"count":252,
			"type":"VEC3",
			"min":[1.17768455,-4.50896311,-0.0919331759
			],
			"max":[2.82859159,-1.83899581,2.11797047
			]
		},
		{
			"bufferView":32,
			"componentType":5126,
			"count":252,
			"type":"MAT4",
			"min":[0.112380847,0,0,0,0,2.49535608e-17,-0.112380847,0,0,0.112380847,2.49535608e-17,0,-6.97936198e-09,1.63808199e-05,-0.0248952266,1
			],
			"max":[0.112380847,0,0,0,0,2.49535608e-17,-0.112380847,0,0,0.112380847,2.49535608e-17,0,-6.97936198e-09,1.63808199e-05,-0.0248952266,1
			]
		},
		{
			"bufferView":33,
			"componentType":5126,
			"count":252,
			"type":"VEC3",
			"min":[1,1,1
			],
			"max":[1,1,1
			]
		},
		{
			"bufferView":34,
			"componentType":5126,
			"count":252,
			"type":"VEC3",
			"min":[-0.814679861,-0.99591589,-0.913147926
			],
			"max":[0.941633344,0.604745805,0.789663672
			]
		},
		{
			"bufferView":35,
			"componentType":5123,
			"count":1218,
			"type":"SCALAR",
			"min":[0
			],
			"max":[811
			]
		},
		{
			"bufferView":36,
			"componentType":5126,
			"count":812,
			"type":"VEC3",
			"min":[1.10340714,-4.40055799,-0.0266841948
			],
			"max":[2.91874838,-1.64727688,2.16773129
			]
		},
		{
			"bufferView":37,
			"componentType":5126,
			"count":812,
			"type":"MAT4",
			"min":[0.112380847,0,0,0,0,2.49535608e-17,-0.112380847,0,0,0.112380847,2.49535608e-17,0,-6.97945435e-09,1.3535885e-05,-0.0248953886,1
			],
			"max":[0.112380847,0,0,0,0,2.49535608e-17,-0.112380847,0,0,0.112380847,2.49535608e-17,0,-6.97945435e-09,1.3535885e-05,-0.0248953886,1
			]
		},
		{
			"bufferView":38,
			"componentType":5126,
			"count":812,
			"type":"VEC3",
			"min":[1,1,1
			],
			"max":[1,1,1
			]
		},
		{
			"bufferView":39,
			"componentType":5126,
			"count":812,
			"type":"VEC3",
			"min":[-0.988581777,-0.993355393,-0.987400413
			],
			"max":[0.984989166,0.987817943,0.99970746
			]
		},
		{
			"bufferView":40,
			"componentType":5121,
			"count":12,
			"type":"SCALAR",
			"min":[0
			],
			"max":[7
			]
		},
		{
			"bufferView":41,
			"componentType":5126,
			"count":8,
			"type":"VEC3",
			"min":[2.30239677,-1.83760536,0.115554065
			],
			"max":[2.50312519,-1.71934247,0.32551831
			]
		},
		{
			"bufferView":42,
			"componentType":5126,
			"count":8,
			"type":"MAT4",
			"min":[0.112380847,0,0,0,0,2.49535608e-17,-0.112380847,0,0,0.112380847,2.49535608e-17,0,-6.9795405e-09,1.30913941e-05,-0.0248957239,1
			],
			"max":[0.112380847,0,0,0,0,2.49535608e-17,-0.112380847,0,0,0.112380847,2.49535608e-17,0,-6.9795405e-09,1.30913941e-05,-0.0248957239,1
			]
		},
		{
			"bufferView":43,
			"componentType":5126,
			"count":8,
			"type":"VEC3",
			"min":[1,1,1
			],
			"max":[1,1,1
			]
		},
		{
			"bufferView":44,
			"componentType":5126,
			"count":8,
			"type":"VEC3",
			"min":[-0.261062324,-0.370661318,-0.891323149
			],
			"max":[0.917616546,0.215244651,0.334140778
			]
		},
		{
			"bufferView":45,
			"componentType":5123,
			"count":1848,
			"type":"SCALAR",
			"min":[0
			],
			"max":[1231
			]
		},
		{
			"bufferView":46,
			"componentType":5126,
			"count":1232,
			"type":"VEC3",
			"min":[1.10341668,-4.50898218,-0.0981021971
			],
			"max":[3.01859045,-1.64728951,2.16672039
			]
		},
		{
			"bufferView":47,
			"componentType":5126,
			"count":1232,
			"type":"MAT4",
			"min":[0.112380847,0,0,0,0,2.49535608e-17,-0.112380847,0,0,0.112380847,2.49535608e-17,0,-6.97945435e-09,8.38790311e-06,-0.0248957202,1
			],
			"max":[0.112380847,0,0,0,0,2.49535608e-17,-0.112380847,0,0,0.112380847,2.49535608e-17,0,-6.97945435e-09,8.38790311e-06,-0.0248957202,1
			]
		},
		{
			"bufferView":48,
			"componentType":5126,
			"count":1232,
			"type":"VEC3",
			"min":[1,1,1
			],
			"max":[1,1,1
			]
		},
		{
			"bufferView":49,
			"componentType":5126,
			"count":1232,
			"type":"VEC3",
			"min":[-0.959588289,-0.963605285,-0.984730482
			],
			"max":[0.999827921,0.997526526,0.971812963
			]
		},
		{
			"bufferView":50,
			"componentType":5123,
			"count":213,
			"type":"SCALAR",
			"min":[0
			],
			"max":[58
			]
		},
		{
			"bufferView":51,
			"componentType":5126,
			"count":59,
			"type":"VEC3",
			"min":[-3.39789367,-0.152317524,-2.46040201
			],
			"max":[0.557723343,3.95141077,1.37035048
			]
		},
		{
			"bufferView":52,
			"componentType":5126,
			"count":59,
			"type":"MAT4",
			"min":[1,0,0,0,0,1,0,0,0,0,1,0,0,0,0,1
			],
			"max":[1,0,0,0,0,1,0,0,0,0,1,0,0,0,0,1
			]
		},
		{
			"bufferView":53,
			"componentType":5126,
			"count":59,
			"type":"VEC3",
			"min":[1,1,1
			],
			"max":[1,1,1
			]
		},
		{
			"bufferView":54,
			"componentType":5126,
			"count":59,
			"type":"VEC3",
			"min":[-0.598315716,-0.669099391,-0.993483722
			],
			"max":[0.686639249,0.59646672,0.682104111
			]
		}
	],
	"buffers":[
		{
			"uri":"contact_data.bin",
			"byteLength":28402576,
			"name":"main_buffer"
		}
	],
	"bufferViews":[
		{
			"buffer":0,
			"byteLength":2304,
			"target":34963
		},
		{
			"buffer":0,
			"byteOffset":2304,
			"byteLength":4608,
			"target":34962
		},
		{
			"buffer":0,
			"byteOffset":6912,
			"byteLength":24576,
			"target":34962
		},
		{
			"buffer":0,
			"byteOffset":31488,
			"byteLength":4608,
			"target":34962
		},
		{
			"buffer":0,
			"byteOffset":36096,
			"byteLength":4608,
			"target":34962
		},
		{
			"buffer":0,
			"byteOffset":40704,
			"byteLength":12000,
			"target":34963
		},
		{
			"buffer":0,
			"byteOffset":52704,
			"byteLength":72000,
			"target":34962
		},
		{
			"buffer":0,
			"byteOffset":124704,
			"byteLength":384000,
			"target":34962
		},
		{
			"buffer":0,
			"byteOffset":508704,
			"byteLength":72000,
			"target":34962
		},
		{
			"buffer":0,
			"byteOffset":580704,
			"byteLength":72000,
			"target":34962
		},
		{
			"buffer":0,
			"byteOffset":652704,
			"byteLength":698868,
			"target":34963
		},
		{
			"buffer":0,
			"byteOffset":1351572,
			"byteLength":370212,
			"target":34962
		},
		{
			"buffer":0,
			"byteOffset":1721784,
			"byteLength":1974464,
			"target":34962
		},
		{
			"buffer":0,
			"byteOffset":3696248,
			"byteLength":370212,
			"target":34962
		},
		{
			"buffer":0,
			"byteOffset":4066460,
			"byteLength":370212,
			"target":34962
		},
		{
			"buffer":0,
			"byteOffset":4436672,
			"byteLength":4023528,
			"target":34963
		},
		{
			"buffer":0,
			"byteOffset":8460200,
			"byteLength":2358804,
			"target":34962
		},
		{
			"buffer":0,
			"byteOffset":10819004,
			"byteLength":12580288,
			"target":34962
		},
		{
			"buffer":0,
			"byteOffset":23399292,
			"byteLength":2358804,
			"target":34962
		},
		{
			"buffer":0,
			"byteOffset":25758096,
			"byteLength":2358804,
			"target":34962
		},
		{
			"buffer":0,
			"byteOffset":28116900,
			"byteLength":864,
			"target":34963
		},
		{
			"buffer":0,
			"byteOffset":28117764,
			"byteLength":3456,
			"target":34962
		},
		{
			"buffer":0,
			"byteOffset":28121220,
			"byteLength":18432,
			"target":34962
		},
		{
			"buffer":0,
			"byteOffset":28139652,
			"byteLength":3456,
			"target":34962
		},
		{
			"buffer":0,
			"byteOffset":28143108,
			"byteLength":3456,
			"target":34962
		},
		{
			"buffer":0,
			"byteOffset":28146564,
			"byteLength":384,
			"target":34963
		},
		{
			"buffer":0,
			"byteOffset":28146948,
			"byteLength":1440,
			"target":34962
		},
		{
			"buffer":0,
			"byteOffset":28148388,
			"byteLength":7680,
			"target":34962
		},
		{
			"buffer":0,
			"byteOffset":28156068,
			"byteLength":1440,
			"target":34962
		},
		{
			"buffer":0,
			"byteOffset":28157508,
			"byteLength":1440,
			"target":34962
		},
		{
			"buffer":0,
			"byteOffset":28158948,
			"byteLength":756,
			"target":34963
		},
		{
			"buffer":0,
			"byteOffset":28159704,
			"byteLength":3024,
			"target":34962
		},
		{
			"buffer":0,
			"byteOffset":28162728,
			"byteLength":16128,
			"target":34962
		},
		{
			"buffer":0,
			"byteOffset":28178856,
			"byteLength":3024,
			"target":34962
		},
		{
			"buffer":0,
			"byteOffset":28181880,
			"byteLength":3024,
			"target":34962
		},
		{
			"buffer":0,
			"byteOffset":28184904,
			"byteLength":2436,
			"target":34963
		},
		{
			"buffer":0,
			"byteOffset":28187340,
			"byteLength":9744,
			"target":34962
		},
		{
			"buffer":0,
			"byteOffset":28197084,
			"byteLength":51968,
			"target":34962
		},
		{
			"buffer":0,
			"byteOffset":28249052,
			"byteLength":9744,
			"target":34962
		},
		{
			"buffer":0,
			"byteOffset":28258796,
			"byteLength":9744,
			"target":34962
		},
		{
			"buffer":0,
			"byteOffset":28268540,
			"byteLength":12,
			"target":34963
		},
		{
			"buffer":0,
			"byteOffset":28268552,
			"byteLength":96,
			"target":34962
		},
		{
			"buffer":0,
			"byteOffset":28268648,
			"byteLength":512,
			"target":34962
		},
		{
			"buffer":0,
			"byteOffset":28269160,
			"byteLength":96,
			"target":34962
		},
		{
			"buffer":0,
			"byteOffset":28269256,
			"byteLength":96,
			"target":34962
		},
		{
			"buffer":0,
			"byteOffset":28269352,
			"byteLength":3696,
			"target":34963
		},
		{
			"buffer":0,
			"byteOffset":28273048,
			"byteLength":14784,
			"target":34962
		},
		{
			"buffer":0,
			"byteOffset":28287832,
			"byteLength":78848,
			"target":34962
		},
		{
			"buffer":0,
			"byteOffset":28366680,
			"byteLength":14784,
			"target":34962
		},
		{
			"buffer":0,
			"byteOffset":28381464,
			"byteLength":14784,
			"target":34962
		},
		{
			"buffer":0,
			"byteOffset":28396248,
			"byteLength":426,
			"target":34963
		},
		{
			"buffer":0,
			"byteOffset":28396676,
			"byteLength":708,
			"target":34962
		},
		{
			"buffer":0,
			"byteOffset":28397384,
			"byteLength":3776,
			"target":34962
		},
		{
			"buffer":0,
			"byteOffset":28401160,
			"byteLength":708,
			"target":34962
		},
		{
			"buffer":0,
			"byteOffset":28401868,
			"byteLength":708,
			"target":34962
		}
	],
	"nodes":[
		{
			"name":"comp",
			"mesh":0
		}
	],
	"meshes":[
		{
			"primitives":[
				{
					"attributes":{
						"NORMAL":4,
						"COLOR_0":3,
						"_usdxform":2,
						"POSITION":1
					},
					"indices":0,
					"material":0
				},
				{
					"attributes":{
						"NORMAL":9,
						"COLOR_0":8,
						"_usdxform":7,
						"POSITION":6
					},
					"indices":5,
					"material":1
				},
				{
					"attributes":{
						"NORMAL":14,
						"COLOR_0":13,
						"_usdxform":12,
						"POSITION":11
					},
					"indices":10,
					"material":2
				},
				{
					"attributes":{
						"NORMAL":19,
						"COLOR_0":18,
						"_usdxform":17,
						"POSITION":16
					},
					"indices":15,
					"material":3
				},
				{
					"attributes":{
						"NORMAL":24,
						"COLOR_0":23,
						"_usdxform":22,
						"POSITION":21
					},
					"indices":20,
					"material":4
				},
				{
					"attributes":{
						"NORMAL":29,
						"COLOR_0":28,
						"_usdxform":27,
						"POSITION":26
					},
					"indices":25,
					"material":5
				},
				{
					"attributes":{
						"NORMAL":34,
						"COLOR_0":33,
						"_usdxform":32,
						"POSITION":31
					},
					"indices":30,
					"material":6
				},
				{
					"attributes":{
						"NORMAL":39,
						"COLOR_0":38,
						"_usdxform":37,
						"POSITION":36
					},
					"indices":35,
					"material":7
				},
				{
					"attributes":{
						"NORMAL":44,
						"COLOR_0":43,
						"_usdxform":42,
						"POSITION":41
					},
					"indices":40,
					"material":8
				},
				{
					"attributes":{
						"NORMAL":49,
						"COLOR_0":48,
						"_usdxform":47,
						"POSITION":46
					},
					"indices":45,
					"material":9
				},
				{
					"attributes":{
						"NORMAL":54,
						"COLOR_0":53,
						"_usdxform":52,
						"POSITION":51
					},
					"indices":50
				}
			],
			"name":"cowMaterials"
		}
	],
	"materials":[
		{
			"name":"waves",
			"pbrMetallicRoughness":{
				"baseColorFactor":[0,0.5,1,1
				],
				"metallicFactor":0,
				"roughnessFactor":0.800000012
			},
			"emissiveFactor":[0,0.25,0.5
			]
		},
		{
			"name":"stars",
			"pbrMetallicRoughness":{
				"metallicFactor":0.100000001,
				"roughnessFactor":0.5
			}
		},
		{
			"name":"metal",
			"pbrMetallicRoughness":{
				"baseColorFactor":[0.200000003,0.200000003,0.200000003,1
				],
				"metallicFactor":0.300000012,
				"roughnessFactor":0.200000003
			}
		},
		{
			"name":"plastic",
			"pbrMetallicRoughness":{
				"baseColorFactor":[0.776000023,0.792800009,0.800000012,1
				],
				"metallicFactor":0.300000012,
				"roughnessFactor":0.600000024
			}
		},
		{
			"name":"cowUdder",
			"pbrMetallicRoughness":{
				"baseColorFactor":[0.759000003,0.412896037,0.531055093,1
				],
				"metallicFactor":0,
				"roughnessFactor":0.300000012
			}
		},
		{
			"name":"cowHoof",
			"pbrMetallicRoughness":{
				"baseColorFactor":[0.200000003,0.200000003,0.200000003,1
				],
				"metallicFactor":0,
				"roughnessFactor":0.300000012
			}
		},
		{
			"name":"cowBottom",
			"pbrMetallicRoughness":{
				"baseColorFactor":[0.333000004,0.333000004,0.333000004,1
				],
				"metallicFactor":0,
				"roughnessFactor":0.300000012
			}
		},
		{
			"name":"cowBlack",
			"pbrMetallicRoughness":{
				"baseColorFactor":[0.333000004,0.333000004,0.333000004,1
				],
				"metallicFactor":0,
				"roughnessFactor":0.300000012
			}
		},
		{
			"name":"cowEyes",
			"pbrMetallicRoughness":{
				"baseColorFactor":[0,0.5,1,1
				],
				"metallicFactor":0,
				"roughnessFactor":0.300000012
			}
		},
		{
			"name":"cowWhite",
			"pbrMetallicRoughness":{
				"metallicFactor":0,
				"roughnessFactor":0.300000012
			}
		}
	],
	"scenes":[
		{
			"nodes":[0
			]
		}
	],
	"scene":0
}
