{
	"asset":{
		"version":"2.0",
		"generator":"Houdini GLTF 2.0 Exporter"
	},
	"accessors":[
		{
			"bufferView":0,
			"componentType":5125,
			"count":257304,
			"type":"SCALAR",
			"min":[0
			],
			"max":[61127
			]
		},
		{
			"bufferView":1,
			"componentType":5126,
			"count":61128,
			"type":"VEC3",
			"min":[-6.80440712,-5.14371967,-6.85197258
			],
			"max":[6.60069609,4.55525637,6.80133295
			]
		},
		{
			"bufferView":2,
			"componentType":5126,
			"count":61128,
			"type":"VEC3",
			"min":[-0.999935746,-0.999841154,-0.999903738
			],
			"max":[0.999935031,0.999950707,0.999977469
			]
		},
		{
			"bufferView":3,
			"componentType":5123,
			"count":14136,
			"type":"SCALAR",
			"min":[0
			],
			"max":[2544
			]
		},
		{
			"bufferView":4,
			"componentType":5126,
			"count":2545,
			"type":"VEC3",
			"min":[-3.12332535,0.784162998,2.51135397
			],
			"max":[-0.409860849,3.47357512,4.44354963
			]
		},
		{
			"bufferView":5,
			"componentType":5126,
			"count":2545,
			"type":"VEC3",
			"min":[-0.995291173,-0.999287724,-0.99879986
			],
			"max":[0.998653173,0.999991238,0.999369442
			]
		},
		{
			"bufferView":6,
			"componentType":5125,
			"count":160344,
			"type":"SCALAR",
			"min":[0
			],
			"max":[29050
			]
		},
		{
			"bufferView":7,
			"componentType":5126,
			"count":29051,
			"type":"VEC3",
			"min":[-3.51862264,-6.00310326,-4.19830704
			],
			"max":[4.92157555,6.00310373,3.62564278
			]
		},
		{
			"bufferView":8,
			"componentType":5126,
			"count":29051,
			"type":"VEC3",
			"min":[-0.999951482,-1,-0.999964714
			],
			"max":[0.99996233,1,0.999973297
			]
		}
	],
	"buffers":[
		{
			"uri":"importSubstitution_data.bin",
			"byteLength":3924240,
			"name":"main_buffer"
		}
	],
	"bufferViews":[
		{
			"buffer":0,
			"byteLength":1029216,
			"target":34963
		},
		{
			"buffer":0,
			"byteOffset":1029216,
			"byteLength":733536,
			"target":34962
		},
		{
			"buffer":0,
			"byteOffset":1762752,
			"byteLength":733536,
			"target":34962
		},
		{
			"buffer":0,
			"byteOffset":2496288,
			"byteLength":28272,
			"target":34963
		},
		{
			"buffer":0,
			"byteOffset":2524560,
			"byteLength":30540,
			"target":34962
		},
		{
			"buffer":0,
			"byteOffset":2555100,
			"byteLength":30540,
			"target":34962
		},
		{
			"buffer":0,
			"byteOffset":2585640,
			"byteLength":641376,
			"target":34963
		},
		{
			"buffer":0,
			"byteOffset":3227016,
			"byteLength":348612,
			"target":34962
		},
		{
			"buffer":0,
			"byteOffset":3575628,
			"byteLength":348612,
			"target":34962
		}
	],
	"nodes":[
		{
			"name":"samovarModelling",
			"mesh":0
		}
	],
	"meshes":[
		{
			"primitives":[
				{
					"attributes":{
						"NORMAL":2,
						"POSITION":1
					},
					"indices":0,
					"material":0
				},
				{
					"attributes":{
						"NORMAL":5,
						"POSITION":4
					},
					"indices":3,
					"material":1
				},
				{
					"attributes":{
						"NORMAL":8,
						"POSITION":7
					},
					"indices":6,
					"material":2
				}
			],
			"name":"OUT_SAMOVAR_COMP"
		}
	],
	"materials":[
		{
			"name":"pipe",
			"pbrMetallicRoughness":{
				"baseColorFactor":[0.75,0.75,0.75,1
				],
				"metallicFactor":0.600000024,
				"roughnessFactor":0.300000012
			}
		},
		{
			"name":"redPlastic",
			"pbrMetallicRoughness":{
				"baseColorFactor":[0.730000019,0,0,1
				],
				"metallicFactor":0.200000003,
				"roughnessFactor":0.200000003
			}
		},
		{
			"name":"unobtanium",
			"pbrMetallicRoughness":{
				"baseColorFactor":[0.5,0.5,0.5,1
				],
				"metallicFactor":0.300000012,
				"roughnessFactor":0.300000012
			}
		}
	],
	"scenes":[
		{
			"nodes":[0
			]
		}
	],
	"scene":0
}
