{
	"asset":{
		"version":"2.0",
		"generator":"Houdini GLTF 2.0 Exporter"
	},
	"accessors":[
		{
			"bufferView":0,
			"componentType":5125,
			"count":257304,
			"type":"SCALAR",
			"min":[0
			],
			"max":[61610
			]
		},
		{
			"bufferView":1,
			"componentType":5126,
			"count":61611,
			"type":"VEC3",
			"min":[0,0,0
			],
			"max":[0,0,0
			]
		},
		{
			"bufferView":2,
			"componentType":5126,
			"count":61611,
			"type":"SCALAR",
			"min":[0
			],
			"max":[0
			]
		},
		{
			"bufferView":3,
			"componentType":5126,
			"count":61611,
			"type":"VEC3",
			"min":[0,0,0
			],
			"max":[0,0,0
			]
		},
		{
			"bufferView":4,
			"componentType":5126,
			"count":61611,
			"type":"VEC3",
			"min":[-6.80445719,-5.14371967,-6.85444498
			],
			"max":[6.60348368,4.55548239,6.79736853
			]
		},
		{
			"bufferView":5,
			"componentType":5126,
			"count":61611,
			"type":"MAT4",
			"min":[0,0,0,0,0,0,0,0,0,0,0,0,0,0,0,0
			],
			"max":[0,0,0,0,0,0,0,0,0,0,0,0,0,0,0,0
			]
		},
		{
			"bufferView":6,
			"componentType":5126,
			"count":61611,
			"type":"VEC2",
			"min":[0,0
			],
			"max":[0,0
			]
		},
		{
			"bufferView":7,
			"componentType":5126,
			"count":61611,
			"type":"VEC3",
			"min":[0,0,0
			],
			"max":[0,0,0
			]
		},
		{
			"bufferView":8,
			"componentType":5126,
			"count":61611,
			"type":"VEC2",
			"min":[0,-0.0818156004
			],
			"max":[1,1
			]
		},
		{
			"bufferView":9,
			"componentType":5126,
			"count":61611,
			"type":"VEC3",
			"min":[-0.999935746,-0.999723613,-0.99980092
			],
			"max":[0.999935031,0.999950707,0.99996841
			]
		},
		{
			"bufferView":10,
			"componentType":5123,
			"count":14136,
			"type":"SCALAR",
			"min":[0
			],
			"max":[2811
			]
		},
		{
			"bufferView":11,
			"componentType":5126,
			"count":2812,
			"type":"VEC3",
			"min":[100,100,100
			],
			"max":[100.000008,100.000008,100.000008
			]
		},
		{
			"bufferView":12,
			"componentType":5126,
			"count":2812,
			"type":"SCALAR",
			"min":[0
			],
			"max":[0
			]
		},
		{
			"bufferView":13,
			"componentType":5126,
			"count":2812,
			"type":"VEC3",
			"min":[0,0,0
			],
			"max":[0,0,0
			]
		},
		{
			"bufferView":14,
			"componentType":5126,
			"count":2812,
			"type":"VEC3",
			"min":[-3.12337542,0.784162998,2.50866342
			],
			"max":[-0.409910798,3.47357512,4.44085932
			]
		},
		{
			"bufferView":15,
			"componentType":5126,
			"count":2812,
			"type":"MAT4",
			"min":[0,0,0,0,0,0,0,0,0,0,0,0,0,0,0,0
			],
			"max":[0,0,0,0,0,0,0,0,0,0,0,0,0,0,0,0
			]
		},
		{
			"bufferView":16,
			"componentType":5126,
			"count":2812,
			"type":"VEC2",
			"min":[0,0
			],
			"max":[0,0
			]
		},
		{
			"bufferView":17,
			"componentType":5126,
			"count":2812,
			"type":"VEC3",
			"min":[-1.57079649,0,0
			],
			"max":[-1.57079649,0,0
			]
		},
		{
			"bufferView":18,
			"componentType":5126,
			"count":2812,
			"type":"VEC2",
			"min":[0.00137203443,0.541902423
			],
			"max":[0.825023293,0.998627961
			]
		},
		{
			"bufferView":19,
			"componentType":5126,
			"count":2812,
			"type":"VEC3",
			"min":[-0.995291173,-0.999287724,-0.99879986
			],
			"max":[0.998653173,0.999991238,0.999369442
			]
		},
		{
			"bufferView":20,
			"componentType":5125,
			"count":160344,
			"type":"SCALAR",
			"min":[0
			],
			"max":[29308
			]
		},
		{
			"bufferView":21,
			"componentType":5126,
			"count":29309,
			"type":"VEC3",
			"min":[0,0,0
			],
			"max":[100,100,100
			]
		},
		{
			"bufferView":22,
			"componentType":5126,
			"count":29309,
			"type":"SCALAR",
			"min":[0
			],
			"max":[0
			]
		},
		{
			"bufferView":23,
			"componentType":5126,
			"count":29309,
			"type":"VEC3",
			"min":[0,0,0
			],
			"max":[0,0,0
			]
		},
		{
			"bufferView":24,
			"componentType":5126,
			"count":29309,
			"type":"VEC3",
			"min":[-3.51867247,-6.00310326,-4.20099735
			],
			"max":[4.92152596,6.00310373,3.62295246
			]
		},
		{
			"bufferView":25,
			"componentType":5126,
			"count":29309,
			"type":"MAT4",
			"min":[0,0,0,0,0,0,0,0,0,0,0,0,0,0,0,0
			],
			"max":[0,0,0,0,0,0,0,0,0,0,0,0,0,0,0,0
			]
		},
		{
			"bufferView":26,
			"componentType":5126,
			"count":29309,
			"type":"VEC2",
			"min":[0,0
			],
			"max":[0,0
			]
		},
		{
			"bufferView":27,
			"componentType":5126,
			"count":29309,
			"type":"VEC3",
			"min":[-1.57079649,0,0
			],
			"max":[0,0,0
			]
		},
		{
			"bufferView":28,
			"componentType":5126,
			"count":29309,
			"type":"VEC2",
			"min":[0,0.00593572855
			],
			"max":[0.96114397,1
			]
		},
		{
			"bufferView":29,
			"componentType":5126,
			"count":29309,
			"type":"VEC3",
			"min":[-0.999951482,-1,-0.999964714
			],
			"max":[0.99996233,1,0.999973297
			]
		}
	],
	"buffers":[
		{
			"uri":"importSubstitution_data.bin",
			"byteLength":15196272,
			"name":"main_buffer"
		}
	],
	"bufferViews":[
		{
			"buffer":0,
			"byteLength":1029216,
			"target":34963
		},
		{
			"buffer":0,
			"byteOffset":1029216,
			"byteLength":739332,
			"target":34962
		},
		{
			"buffer":0,
			"byteOffset":1768548,
			"byteLength":246444,
			"target":34962
		},
		{
			"buffer":0,
			"byteOffset":2014992,
			"byteLength":739332,
			"target":34962
		},
		{
			"buffer":0,
			"byteOffset":2754324,
			"byteLength":739332,
			"target":34962
		},
		{
			"buffer":0,
			"byteOffset":3493656,
			"byteLength":3943104,
			"target":34962
		},
		{
			"buffer":0,
			"byteOffset":7436760,
			"byteLength":492888,
			"target":34962
		},
		{
			"buffer":0,
			"byteOffset":7929648,
			"byteLength":739332,
			"target":34962
		},
		{
			"buffer":0,
			"byteOffset":8668980,
			"byteLength":492888,
			"target":34962
		},
		{
			"buffer":0,
			"byteOffset":9161868,
			"byteLength":739332,
			"target":34962
		},
		{
			"buffer":0,
			"byteOffset":9901200,
			"byteLength":28272,
			"target":34963
		},
		{
			"buffer":0,
			"byteOffset":9929472,
			"byteLength":33744,
			"target":34962
		},
		{
			"buffer":0,
			"byteOffset":9963216,
			"byteLength":11248,
			"target":34962
		},
		{
			"buffer":0,
			"byteOffset":9974464,
			"byteLength":33744,
			"target":34962
		},
		{
			"buffer":0,
			"byteOffset":10008208,
			"byteLength":33744,
			"target":34962
		},
		{
			"buffer":0,
			"byteOffset":10041952,
			"byteLength":179968,
			"target":34962
		},
		{
			"buffer":0,
			"byteOffset":10221920,
			"byteLength":22496,
			"target":34962
		},
		{
			"buffer":0,
			"byteOffset":10244416,
			"byteLength":33744,
			"target":34962
		},
		{
			"buffer":0,
			"byteOffset":10278160,
			"byteLength":22496,
			"target":34962
		},
		{
			"buffer":0,
			"byteOffset":10300656,
			"byteLength":33744,
			"target":34962
		},
		{
			"buffer":0,
			"byteOffset":10334400,
			"byteLength":641376,
			"target":34963
		},
		{
			"buffer":0,
			"byteOffset":10975776,
			"byteLength":351708,
			"target":34962
		},
		{
			"buffer":0,
			"byteOffset":11327484,
			"byteLength":117236,
			"target":34962
		},
		{
			"buffer":0,
			"byteOffset":11444720,
			"byteLength":351708,
			"target":34962
		},
		{
			"buffer":0,
			"byteOffset":11796428,
			"byteLength":351708,
			"target":34962
		},
		{
			"buffer":0,
			"byteOffset":12148136,
			"byteLength":1875776,
			"target":34962
		},
		{
			"buffer":0,
			"byteOffset":14023912,
			"byteLength":234472,
			"target":34962
		},
		{
			"buffer":0,
			"byteOffset":14258384,
			"byteLength":351708,
			"target":34962
		},
		{
			"buffer":0,
			"byteOffset":14610092,
			"byteLength":234472,
			"target":34962
		},
		{
			"buffer":0,
			"byteOffset":14844564,
			"byteLength":351708,
			"target":34962
		}
	],
	"nodes":[
		{
			"name":"samovarModelling",
			"mesh":0
		}
	],
	"meshes":[
		{
			"primitives":[
				{
					"attributes":{
						"NORMAL":9,
						"TEXCOORD_0":8,
						"_fbx_rotation":7,
						"_usdxform":5,
						"_st0":6,
						"POSITION":4,
						"_fbx_translation":3,
						"_dist":2,
						"_fbx_scale":1
					},
					"indices":0,
					"material":0
				},
				{
					"attributes":{
						"NORMAL":19,
						"TEXCOORD_0":18,
						"_fbx_rotation":17,
						"_usdxform":15,
						"_st0":16,
						"POSITION":14,
						"_fbx_translation":13,
						"_dist":12,
						"_fbx_scale":11
					},
					"indices":10,
					"material":1
				},
				{
					"attributes":{
						"NORMAL":29,
						"TEXCOORD_0":28,
						"_fbx_rotation":27,
						"_usdxform":25,
						"_st0":26,
						"POSITION":24,
						"_fbx_translation":23,
						"_dist":22,
						"_fbx_scale":21
					},
					"indices":20,
					"material":2
				}
			],
			"name":"OUT_SAMOVAR_COMP"
		}
	],
	"materials":[
		{
			"name":"pipe",
			"pbrMetallicRoughness":{
				"baseColorFactor":[0.75,0.75,0.75,1
				],
				"metallicFactor":0.600000024,
				"roughnessFactor":0.300000012
			}
		},
		{
			"name":"redPlastic",
			"pbrMetallicRoughness":{
				"baseColorFactor":[0.5,0,0,1
				],
				"metallicFactor":0.300000012,
				"roughnessFactor":0.200000003
			}
		},
		{
			"name":"unobtanium",
			"pbrMetallicRoughness":{
				"baseColorFactor":[0.5,0.5,0.5,1
				],
				"metallicFactor":0.300000012,
				"roughnessFactor":0.300000012
			}
		}
	],
	"scenes":[
		{
			"nodes":[0
			]
		}
	],
	"scene":0
}
